<svg width="94" height="113" viewBox="0 0 94 113" fill="none" xmlns="http://www.w3.org/2000/svg">
<path d="M17.2969 33.7926C22.2976 15.1295 41.481 4.05393 60.1442 9.0547C78.8073 14.0555 89.8828 33.2389 84.8821 51.902L77.6383 78.9361C72.6375 97.5992 53.4541 108.675 34.791 103.674C16.1279 98.6732 5.05233 79.4898 10.0531 60.8267L17.2969 33.7926Z" fill="black"/>
<g clip-path="url(#clip0_1673_9445)">
<path d="M58.635 67.6197C57.8407 68.6216 56.9805 69.5093 56.0506 70.2882C54.7831 71.35 53.7897 72.0539 53.0763 72.4015C51.9581 72.9861 50.8837 73.1511 49.848 72.8993C49.1091 72.7014 48.2744 72.2523 47.3514 71.5479C46.4244 70.8445 45.5244 70.378 44.6499 70.1437C43.7328 69.8979 42.6929 69.8446 41.527 69.9872C40.359 70.1314 39.4506 70.1262 38.7957 69.9744C37.7975 69.752 36.9301 69.0538 36.1927 67.8776C35.7125 67.1629 35.1796 66.0157 34.5962 64.4364C33.9684 62.7487 33.5805 60.8827 33.4337 58.8345C33.2812 56.6238 33.458 54.57 33.9666 52.6721C34.5491 50.498 35.5213 48.7488 36.8833 47.4296C37.961 46.3656 39.2116 45.6335 40.6388 45.2326C42.0659 44.8316 43.4961 44.8156 44.9353 45.1757C45.7193 45.3858 46.6823 45.9037 47.8322 46.7226C48.978 47.5422 49.7311 48.0039 50.0897 48.1C50.3578 48.1718 51.3425 48.1318 53.0345 47.9792C54.6318 47.8453 55.9194 47.9577 56.9038 48.3131C59.5741 49.2647 61.3363 50.8901 62.1806 53.1938C59.3433 54.0188 57.5808 55.7668 56.8927 58.4307C56.3601 60.5066 56.6495 62.4303 57.7588 64.1934C58.2576 65.0074 58.873 65.6982 59.6107 66.2693C59.2904 66.7436 58.966 67.1933 58.635 67.6197ZM58.9755 41.3101C58.5408 42.9325 57.5422 44.2885 55.985 45.3741C54.1126 46.6589 52.13 47.16 50.3007 46.5069C50.329 46.3059 50.3701 46.0973 50.4277 45.8821C50.8451 44.3245 51.9697 42.8394 53.539 41.7991C54.325 41.2701 55.2433 40.9012 56.2931 40.692C57.3391 40.489 58.2809 40.4741 59.1154 40.6519C59.0813 40.8753 59.0332 41.0949 58.9755 41.31L58.9755 41.3101Z" fill="white"/>
</g>
<defs>
<clipPath id="clip0_1673_9445">
<rect width="33.5853" height="33.5853" fill="white" transform="translate(35.9531 34.4453) rotate(15)"/>
</clipPath>
</defs>
</svg>
