<svg width="66" height="66" viewBox="0 0 66 66" fill="none" xmlns="http://www.w3.org/2000/svg">
<circle cx="33.0865" cy="33.0877" r="25.2449" transform="rotate(15 33.0865 33.0877)" fill="url(#paint0_linear_1673_9584)" stroke="url(#paint1_linear_1673_9584)" stroke-width="2.48963"/>
<circle cx="33.0917" cy="33.0873" r="22.0846" transform="rotate(15 33.0917 33.0873)" stroke="url(#paint2_linear_1673_9584)" stroke-width="3.831"/>
<g filter="url(#filter0_d_1673_9584)">
<path d="M50.1138 37.6493C47.5942 47.0525 37.9289 52.6328 28.5257 50.1132C19.1225 47.5936 13.5422 37.9283 16.0618 28.5251C18.1666 20.6698 25.2582 15.4825 33.0179 15.4564" stroke="url(#paint3_linear_1673_9584)" stroke-width="0.796683" stroke-linecap="round" shape-rendering="crispEdges"/>
</g>
<g filter="url(#filter1_d_1673_9584)">
<path fill-rule="evenodd" clip-rule="evenodd" d="M38.1616 14.1377C38.3741 14.1946 38.5002 14.4131 38.4433 14.6256L37.5656 17.9012C37.9328 18.0094 38.2933 18.1298 38.6467 18.262C38.6134 18.038 38.6246 17.8041 38.6866 17.5726L39.1366 15.8933C39.1936 15.6808 39.412 15.5547 39.6245 15.6116C39.837 15.6686 39.9631 15.887 39.9062 16.0995L39.4562 17.7788C39.3571 18.1485 39.502 18.5298 39.7978 18.7449C46.6275 21.9328 50.3955 29.6529 48.3771 37.1856C46.1138 45.6326 37.4314 50.6453 28.9844 48.382C20.5375 46.1186 15.5247 37.4362 17.7881 28.9893C19.8073 21.4534 26.9356 16.6508 34.4478 17.3097C34.8095 17.2695 35.1232 17.0124 35.2218 16.6444L35.6718 14.965C35.7287 14.7525 35.9472 14.6264 36.1597 14.6833C36.3722 14.7403 36.4983 14.9587 36.4413 15.1712L35.9913 16.8506C35.9294 17.0818 35.8223 17.2898 35.6817 17.467C36.053 17.5293 36.4247 17.6051 36.7961 17.6949L37.6737 14.4194C37.7307 14.2069 37.9491 14.0808 38.1616 14.1377ZM39.403 19.4401C39.5111 19.5103 39.6287 19.5691 39.7549 19.6144L39.7568 19.6091C46.0547 22.7193 49.495 29.9356 47.6076 36.9794C45.4581 45.0013 37.2126 49.7619 29.1906 47.6125C21.1687 45.463 16.4081 37.2174 18.5576 29.1955C20.4454 22.1501 27.0355 17.6203 34.0465 18.0781L34.0453 18.0847C34.1794 18.1089 34.3129 18.1166 34.4436 18.1093C35.2848 18.1868 36.1309 18.3364 36.9746 18.5625C37.8218 18.7895 38.6327 19.0845 39.403 19.4401Z" fill="url(#paint4_linear_1673_9584)" shape-rendering="crispEdges"/>
</g>
<g filter="url(#filter2_d_1673_9584)">
<path d="M39.8983 21.7223C44.848 24.6841 47.4505 30.6672 45.8835 36.5153C43.9903 43.581 36.7276 47.7741 29.662 45.8808C22.5963 43.9876 18.4032 36.725 20.2964 29.6593C21.8634 23.8111 27.1088 19.9309 32.8763 19.8408" stroke="url(#paint5_linear_1673_9584)" stroke-width="0.796683" stroke-linecap="round" shape-rendering="crispEdges"/>
</g>
<g filter="url(#filter3_d_1673_9584)">
<path fill-rule="evenodd" clip-rule="evenodd" d="M35.8437 22.7956C30.1593 21.2724 24.3164 24.6458 22.7933 30.3302C21.2701 36.0147 24.6435 41.8575 30.3279 43.3807C36.0123 44.9038 41.8552 41.5304 43.3784 35.846C44.9015 30.1616 41.5281 24.3187 35.8437 22.7956ZM22.0237 30.124C23.6607 24.0146 29.9405 20.389 36.0499 22.026C42.1593 23.663 45.7849 29.9428 44.1479 36.0522C42.5109 42.1616 36.2311 45.7872 30.1217 44.1502C24.0123 42.5132 20.3867 36.2335 22.0237 30.124ZM35.2782 24.9111C30.7626 23.7012 26.121 26.381 24.9111 30.8966C23.7011 35.4123 26.3809 40.0538 30.8966 41.2638C35.4122 42.4738 40.0538 39.794 41.2637 35.2783C42.4737 30.7626 39.7939 26.1211 35.2782 24.9111ZM24.1415 30.6904C25.4654 25.7498 30.5438 22.8178 35.4844 24.1416C40.4251 25.4655 43.3571 30.5438 42.0333 35.4845C40.7094 40.4252 35.631 43.3572 30.6904 42.0333C25.7497 40.7095 22.8177 35.6311 24.1415 30.6904ZM27.0289 31.464C27.9257 28.1171 31.3659 26.1309 34.7128 27.0277C38.0597 27.9245 40.0459 31.3647 39.1491 34.7116C38.2523 38.0585 34.8121 40.0447 31.4652 39.1479C28.1183 38.2511 26.1321 34.8109 27.0289 31.464ZM34.919 26.2582C31.1471 25.2475 27.27 27.4859 26.2594 31.2578C25.2487 35.0297 27.4871 38.9067 31.259 39.9174C35.0309 40.9281 38.908 38.6897 39.9186 34.9178C40.9293 31.1459 38.6909 27.2688 34.919 26.2582Z" fill="url(#paint6_linear_1673_9584)" shape-rendering="crispEdges"/>
</g>
<path fill-rule="evenodd" clip-rule="evenodd" d="M47.152 29.6479L48.0929 30.6793L48.0598 32.7212L22.2502 25.8055L21.3716 24.7541L23.2425 24.0206L47.152 29.6479ZM47.0914 33.7268L48.0823 34.515L47.9517 42.637L41.3905 36.7773L31.6394 42.3625L30.7024 41.5493L25.9825 32.6487L17.3705 34.4428L16.4504 33.6375L21.3232 27.345L47.0914 33.7268Z" fill="#008FBB" fill-opacity="0.32"/>
<path fill-rule="evenodd" clip-rule="evenodd" d="M22.3388 23.0015L47.1892 29.6602L47.1561 31.7021L21.3465 24.7865L22.3388 23.0015ZM20.3625 26.5684L47.1216 33.7384L46.991 41.8604L40.4298 36.0007L30.6787 41.586L25.0218 31.8721L16.4098 33.6662L20.3625 26.5684Z" fill="url(#paint7_linear_1673_9584)"/>
<path d="M53.7985 40.2302C53.8247 40.1541 53.8661 40.0928 53.9228 40.0461C53.9795 39.9994 54.0483 39.9711 54.1293 39.9611C54.2108 39.9523 54.2993 39.9643 54.3949 39.9971C54.4904 40.03 54.5672 40.0748 54.6251 40.1316C54.6837 40.1896 54.7209 40.2544 54.737 40.3261C54.753 40.3978 54.7479 40.4716 54.7217 40.5477C54.6958 40.623 54.6545 40.6839 54.5978 40.7306C54.5411 40.7773 54.472 40.8051 54.3905 40.8139C54.3095 40.8239 54.2213 40.8124 54.1258 40.7796C54.0302 40.7467 53.9532 40.7013 53.8947 40.6434C53.8367 40.5866 53.7997 40.5223 53.7837 40.4506C53.7677 40.3789 53.7726 40.3055 53.7985 40.2302ZM54.0039 40.3009C53.9894 40.3432 53.9982 40.3835 54.0303 40.422C54.063 40.4616 54.1238 40.4967 54.2126 40.5272C54.3013 40.5577 54.3704 40.5673 54.4197 40.5559C54.4695 40.5456 54.5017 40.5194 54.5163 40.4771C54.5311 40.434 54.5221 40.3926 54.4894 40.353C54.4573 40.3145 54.3968 40.28 54.3081 40.2495C54.2193 40.219 54.15 40.2088 54.1001 40.2191C54.0508 40.2305 54.0188 40.2578 54.0039 40.3009Z" fill="white" fill-opacity="0.32"/>
<path d="M53.2921 43.8072L52.4549 43.3826L52.575 43.1458L53.2292 43.4776L53.308 43.3221L53.491 43.4149L53.2921 43.8072Z" fill="white" fill-opacity="0.32"/>
<path d="M51.0626 45.6229C51.1087 45.5569 51.1654 45.5093 51.2327 45.4799C51.3001 45.4506 51.374 45.4423 51.4546 45.455C51.5354 45.4688 51.6173 45.5047 51.7001 45.5625C51.7829 45.6204 51.8444 45.6846 51.8846 45.7551C51.9249 45.8269 51.943 45.8995 51.9387 45.9728C51.9344 46.0461 51.9092 46.1158 51.8631 46.1818C51.8176 46.247 51.7611 46.2943 51.6938 46.3236C51.6264 46.3529 51.5523 46.3606 51.4715 46.3467C51.391 46.3341 51.3093 46.2988 51.2264 46.241C51.1436 46.1831 51.082 46.1183 51.0416 46.0465C51.0015 45.976 50.9835 45.904 50.9878 45.8307C50.9921 45.7574 51.0171 45.6881 51.0626 45.6229ZM51.2408 45.7472C51.2152 45.7839 51.2125 45.8251 51.2329 45.871C51.2535 45.918 51.3022 45.9684 51.3792 46.0222C51.4562 46.0759 51.5199 46.1041 51.5705 46.1066C51.6212 46.1105 51.6594 46.094 51.685 46.0574C51.7111 46.02 51.7139 45.9778 51.6933 45.9307C51.6729 45.8849 51.6243 45.8351 51.5473 45.7814C51.4703 45.7276 51.4065 45.6988 51.3557 45.695C51.3052 45.6924 51.2669 45.7098 51.2408 45.7472Z" fill="white" fill-opacity="0.32"/>
<path d="M49.6408 48.8704L48.95 48.2348L49.1297 48.0394L49.6696 48.536L49.7876 48.4077L49.9386 48.5467L49.6408 48.8704Z" fill="white" fill-opacity="0.32"/>
<path d="M46.9963 50.0097C47.0585 49.9586 47.126 49.9281 47.1988 49.9181C47.2715 49.9081 47.345 49.9201 47.4192 49.954C47.4932 49.9893 47.5623 50.0459 47.6264 50.124C47.6905 50.2021 47.7323 50.2805 47.7519 50.3593C47.7713 50.4393 47.7691 50.5141 47.7451 50.5835C47.7211 50.6529 47.678 50.7132 47.6158 50.7642C47.5543 50.8147 47.4872 50.8449 47.4144 50.8549C47.3417 50.8649 47.2683 50.8523 47.1942 50.8171C47.1201 50.7831 47.051 50.7271 46.9868 50.649C46.9227 50.5709 46.881 50.4919 46.8615 50.4118C46.842 50.3331 46.8442 50.2589 46.8681 50.1895C46.8921 50.1201 46.9348 50.0601 46.9963 50.0097ZM47.1342 50.1776C47.0996 50.2059 47.086 50.2449 47.0932 50.2945C47.1002 50.3454 47.1335 50.4071 47.1931 50.4797C47.2527 50.5522 47.3064 50.5966 47.3544 50.6127C47.4022 50.6301 47.4434 50.6247 47.478 50.5963C47.5132 50.5674 47.5273 50.5275 47.5202 50.4766C47.513 50.427 47.4797 50.3659 47.4201 50.2933C47.3605 50.2208 47.3068 50.1758 47.259 50.1584C47.211 50.1422 47.1694 50.1486 47.1342 50.1776Z" fill="white" fill-opacity="0.32"/>
<path d="M44.7237 52.769L44.2309 51.97L44.4569 51.8306L44.842 52.4549L44.9904 52.3634L45.0981 52.5381L44.7237 52.769Z" fill="white" fill-opacity="0.32"/>
<path d="M41.8917 53.1444C41.9653 53.112 42.0386 53.1008 42.1113 53.1108C42.1841 53.1208 42.2516 53.1521 42.3139 53.2048C42.3757 53.2587 42.4269 53.3319 42.4676 53.4243C42.5083 53.5168 42.5274 53.6036 42.525 53.6847C42.5222 53.7671 42.4999 53.8384 42.4581 53.8988C42.4163 53.9592 42.3585 54.0056 42.2849 54.038C42.2121 54.0701 42.1393 54.0811 42.0665 54.0711C41.9937 54.0611 41.9264 54.0292 41.8646 53.9753C41.8024 53.9226 41.7509 53.85 41.7102 53.7576C41.6695 53.6651 41.6506 53.5777 41.6535 53.4954C41.6559 53.4142 41.678 53.3435 41.7198 53.2831C41.7616 53.2227 41.8189 53.1765 41.8917 53.1444ZM41.9792 53.3433C41.9383 53.3613 41.9146 53.3951 41.9081 53.4448C41.9012 53.4957 41.9167 53.5642 41.9545 53.6501C41.9923 53.736 42.0321 53.7932 42.074 53.8217C42.1153 53.8513 42.1565 53.8572 42.1974 53.8392C42.2391 53.8208 42.2634 53.7862 42.2704 53.7353C42.2768 53.6855 42.2611 53.6177 42.2233 53.5318C42.1855 53.4459 42.1459 53.3881 42.1045 53.3584C42.0627 53.33 42.0209 53.3249 41.9792 53.3433Z" fill="white" fill-opacity="0.32"/>
<path d="M38.9518 55.1908L38.6932 54.2884L38.9484 54.2152L39.1506 54.9204L39.3181 54.8724L39.3747 55.0696L38.9518 55.1908Z" fill="white" fill-opacity="0.32"/>
<path d="M36.1381 54.7821C36.2178 54.7707 36.2913 54.7796 36.3587 54.8088C36.4261 54.838 36.4827 54.8864 36.5285 54.9539C36.5735 55.0224 36.6032 55.1066 36.6175 55.2067C36.6318 55.3067 36.6269 55.3954 36.6027 55.4729C36.5778 55.5515 36.5371 55.6142 36.4806 55.6611C36.4241 55.708 36.356 55.7372 36.2764 55.7486C36.1976 55.7598 36.1245 55.7509 36.0571 55.7217C35.9898 55.6925 35.9335 55.6436 35.8885 55.5751C35.8427 55.5076 35.8127 55.4238 35.7984 55.3238C35.7841 55.2238 35.7894 55.1345 35.8143 55.056C35.8384 54.9785 35.8787 54.9163 35.9352 54.8694C35.9917 54.8225 36.0594 54.7934 36.1381 54.7821ZM36.1689 54.9972C36.1247 55.0035 36.0927 55.0297 36.0732 55.0759C36.0528 55.1231 36.0493 55.1931 36.0626 55.286C36.0759 55.379 36.0988 55.4448 36.1314 55.4834C36.1633 55.5231 36.2014 55.5398 36.2456 55.5335C36.2908 55.527 36.3235 55.5002 36.3439 55.4531C36.3634 55.4069 36.3666 55.3374 36.3533 55.2444C36.34 55.1515 36.3174 55.0852 36.2856 55.0455C36.2529 55.0068 36.214 54.9907 36.1689 54.9972Z" fill="white" fill-opacity="0.32"/>
<path d="M32.9123 54.9937C32.9928 54.9944 33.0641 55.0142 33.1264 55.0532C33.1886 55.0922 33.2373 55.1485 33.2725 55.2221C33.3067 55.2966 33.3234 55.3843 33.3225 55.4854C33.3217 55.5864 33.3035 55.6734 33.268 55.7464C33.2316 55.8203 33.1819 55.8762 33.119 55.9141C33.0561 55.952 32.9844 55.9706 32.904 55.9699C32.8244 55.9693 32.7535 55.9494 32.6912 55.9105C32.629 55.8715 32.5808 55.8147 32.5465 55.7402C32.5114 55.6666 32.4943 55.5793 32.4951 55.4783C32.496 55.3773 32.5146 55.2898 32.551 55.2159C32.5865 55.1429 32.6357 55.0874 32.6986 55.0495C32.7615 55.0116 32.8328 54.993 32.9123 54.9937ZM32.9105 55.2109C32.8658 55.2106 32.8303 55.2317 32.804 55.2744C32.7768 55.318 32.7628 55.3867 32.762 55.4806C32.7612 55.5744 32.774 55.6429 32.8005 55.6861C32.826 55.7301 32.8611 55.7523 32.9058 55.7527C32.9514 55.7531 32.9878 55.7315 33.015 55.6879C33.0413 55.6452 33.0549 55.5769 33.0557 55.4831C33.0565 55.3892 33.0441 55.3203 33.0185 55.2762C32.9921 55.2331 32.9561 55.2113 32.9105 55.2109Z" fill="white" fill-opacity="0.32"/>
<path d="M29.7029 54.7273C29.7824 54.7396 29.8501 54.7696 29.9061 54.8172C29.962 54.8648 30.0021 54.9275 30.0262 55.0054C30.0492 55.0841 30.053 55.1734 30.0376 55.2732C30.0221 55.373 29.9915 55.4565 29.9458 55.5236C29.8991 55.5914 29.8419 55.6396 29.7741 55.668C29.7064 55.6964 29.6328 55.7044 29.5533 55.6921C29.4746 55.6799 29.4073 55.65 29.3514 55.6024C29.2954 55.5548 29.2559 55.4917 29.2328 55.413C29.2087 55.3351 29.2044 55.2462 29.2199 55.1464C29.2354 55.0466 29.2665 54.9627 29.3132 54.8949C29.3589 54.8278 29.4156 54.78 29.4833 54.7516C29.5511 54.7232 29.6242 54.7151 29.7029 54.7273ZM29.6696 54.942C29.6254 54.9351 29.5872 54.9509 29.555 54.9894C29.5218 55.0286 29.498 55.0945 29.4836 55.1873C29.4692 55.2801 29.472 55.3497 29.4919 55.3962C29.5108 55.4435 29.5424 55.4705 29.5866 55.4774C29.6316 55.4844 29.6707 55.4683 29.704 55.4291C29.7362 55.3907 29.7595 55.3251 29.7738 55.2323C29.7882 55.1395 29.786 55.0695 29.7671 55.0223C29.7471 54.9757 29.7146 54.949 29.6696 54.942Z" fill="white" fill-opacity="0.32"/>
<path d="M26.0366 54.8377L26.3074 53.9389L26.5617 54.0155L26.35 54.7179L26.517 54.7682L26.4578 54.9646L26.0366 54.8377Z" fill="white" fill-opacity="0.32"/>
<path d="M23.8884 52.9687C23.9615 53.0024 24.0185 53.0497 24.0593 53.1108C24.1001 53.1719 24.1214 53.2432 24.1232 53.3247C24.1239 53.4067 24.1031 53.4936 24.0609 53.5854C24.0187 53.6772 23.9664 53.7491 23.9041 53.8011C23.8406 53.8536 23.7724 53.8842 23.6995 53.893C23.6265 53.9017 23.5535 53.8893 23.4804 53.8557C23.4081 53.8224 23.3516 53.7753 23.3108 53.7142C23.27 53.6531 23.2493 53.5816 23.2486 53.4996C23.2468 53.418 23.267 53.3314 23.3092 53.2396C23.3514 53.1478 23.4043 53.0757 23.4678 53.0232C23.5301 52.9712 23.5977 52.9408 23.6706 52.932C23.7435 52.9232 23.8161 52.9355 23.8884 52.9687ZM23.7976 53.1661C23.757 53.1474 23.716 53.1522 23.6745 53.1803C23.6318 53.2089 23.5909 53.2658 23.5516 53.3511C23.5124 53.4364 23.496 53.5041 23.5024 53.5543C23.5077 53.605 23.5306 53.6396 23.5712 53.6583C23.6127 53.6774 23.6547 53.6726 23.6974 53.644C23.7389 53.6159 23.7792 53.5591 23.8185 53.4739C23.8577 53.3886 23.8747 53.3206 23.8694 53.27C23.863 53.2198 23.8391 53.1852 23.7976 53.1661Z" fill="white" fill-opacity="0.32"/>
<path d="M20.4051 52.1212L20.9102 51.3299L21.134 51.4727L20.7393 52.0911L20.8863 52.1849L20.7759 52.3578L20.4051 52.1212Z" fill="white" fill-opacity="0.32"/>
<path d="M18.8494 49.7403C18.9106 49.7926 18.9525 49.8536 18.9752 49.9235C18.9978 49.9934 18.9989 50.0678 18.9785 50.1468C18.9569 50.2259 18.9132 50.3038 18.8476 50.3807C18.782 50.4575 18.7122 50.5125 18.6381 50.5456C18.5627 50.5788 18.4887 50.5897 18.4162 50.5783C18.3436 50.5669 18.2767 50.5351 18.2155 50.4829C18.155 50.4312 18.1134 50.3704 18.0908 50.3006C18.0682 50.2307 18.0677 50.1562 18.0893 50.0771C18.1097 49.9982 18.1527 49.9202 18.2183 49.8434C18.2839 49.7666 18.3544 49.7116 18.4298 49.6783C18.5039 49.6452 18.5772 49.6344 18.6498 49.6458C18.7224 49.6572 18.7889 49.6887 18.8494 49.7403ZM18.7084 49.9056C18.6744 49.8765 18.6336 49.8699 18.586 49.8857C18.5371 49.9016 18.4823 49.9453 18.4213 50.0167C18.3604 50.0881 18.3261 50.1488 18.3187 50.1989C18.31 50.249 18.3226 50.2886 18.3566 50.3176C18.3913 50.3472 18.433 50.3541 18.4819 50.3382C18.5294 50.3224 18.5837 50.2788 18.6447 50.2074C18.7056 50.136 18.7405 50.0752 18.7492 50.0251C18.7566 49.975 18.743 49.9352 18.7084 49.9056Z" fill="white" fill-opacity="0.32"/>
<path d="M16.5682 47.4717C16.6211 47.5323 16.6536 47.5989 16.6657 47.6713C16.6778 47.7438 16.668 47.8176 16.6362 47.8927C16.6032 47.9677 16.5486 48.0384 16.4724 48.1048C16.3962 48.1711 16.319 48.2153 16.2409 48.2371C16.1614 48.2589 16.0867 48.2588 16.0166 48.2369C15.9465 48.215 15.885 48.1737 15.8321 48.113C15.7799 48.053 15.7477 47.9868 15.7355 47.9143C15.7234 47.8419 15.7339 47.7682 15.7669 47.6931C15.7987 47.618 15.8527 47.5473 15.9289 47.4809C16.005 47.4145 16.0829 47.3705 16.1623 47.3487C16.2405 47.3268 16.3146 47.3269 16.3847 47.3488C16.4548 47.3707 16.516 47.4117 16.5682 47.4717ZM16.4044 47.6144C16.3751 47.5807 16.3357 47.5682 16.2863 47.5768C16.2357 47.5853 16.175 47.6205 16.1042 47.6821C16.0334 47.7438 15.9906 47.7988 15.9759 47.8472C15.9599 47.8956 15.9666 47.9366 15.9959 47.9703C16.0259 48.0047 16.0662 48.0176 16.1168 48.009C16.1662 48.0004 16.2263 47.9652 16.2971 47.9036C16.3679 47.8419 16.4113 47.7869 16.4273 47.7386C16.442 47.6902 16.4344 47.6488 16.4044 47.6144Z" fill="white" fill-opacity="0.32"/>
<path d="M13.7448 45.2813L14.5291 44.7655L14.675 44.9873L14.0621 45.3904L14.1579 45.536L13.9865 45.6488L13.7448 45.2813Z" fill="white" fill-opacity="0.32"/>
<path d="M13.2936 42.4642C13.3282 42.5369 13.3415 42.6097 13.3337 42.6827C13.3258 42.7558 13.2964 42.8242 13.2456 42.8879C13.1935 42.9513 13.1219 43.0046 13.0306 43.048C12.9394 43.0913 12.8532 43.113 12.772 43.113C12.6896 43.1125 12.6176 43.0923 12.556 43.0523C12.4945 43.0123 12.4464 42.9559 12.4119 42.8832C12.3777 42.8114 12.3646 42.7389 12.3724 42.6659C12.3803 42.5929 12.4102 42.5247 12.4623 42.4613C12.5132 42.3976 12.5842 42.344 12.6755 42.3007C12.7667 42.2573 12.8535 42.2358 12.9359 42.2363C13.0171 42.2363 13.0885 42.2563 13.15 42.2964C13.2116 42.3364 13.2595 42.3923 13.2936 42.4642ZM13.0974 42.5574C13.0782 42.5171 13.0437 42.4944 12.9938 42.4894C12.9427 42.484 12.8748 42.5014 12.79 42.5417C12.7052 42.582 12.6492 42.6234 12.622 42.6661C12.5935 42.7083 12.5889 42.7496 12.6081 42.79C12.6276 42.8312 12.663 42.8545 12.7141 42.8599C12.7639 42.8649 12.8313 42.8472 12.9161 42.8069C13.0009 42.7667 13.0575 42.7254 13.0859 42.6832C13.1132 42.6405 13.117 42.5986 13.0974 42.5574Z" fill="white" fill-opacity="0.32"/>
<path d="M11.1684 39.599L12.0628 39.314L12.1435 39.567L11.4445 39.7897L11.4975 39.9558L11.302 40.0181L11.1684 39.599Z" fill="white" fill-opacity="0.32"/>
<path d="M10.5127 36.7515L11.4363 36.5841L11.4837 36.8454L10.7619 36.9762L10.793 37.1478L10.5911 37.1843L10.5127 36.7515Z" fill="white" fill-opacity="0.32"/>
<path d="M10.229 33.8726L11.1665 33.8238L11.1803 34.089L10.4477 34.1271L10.4568 34.3012L10.2519 34.3119L10.229 33.8726Z" fill="white" fill-opacity="0.32"/>
<path d="M10.3096 31.0206L11.2458 31.0894L11.2264 31.3542L10.4948 31.3005L10.482 31.4743L10.2774 31.4593L10.3096 31.0206Z" fill="white" fill-opacity="0.32"/>
<path d="M11.6632 28.497C11.6463 28.5756 11.6125 28.6415 11.5618 28.6946C11.5111 28.7478 11.4461 28.7841 11.3669 28.8037C11.287 28.8222 11.1977 28.8208 11.099 28.7996C11.0002 28.7784 10.9186 28.743 10.8543 28.6935C10.7892 28.643 10.7445 28.5831 10.7201 28.5138C10.6956 28.4445 10.6918 28.3706 10.7087 28.2919C10.7255 28.2141 10.7592 28.1487 10.8099 28.0955C10.8606 28.0424 10.9259 28.0066 11.0058 27.9881C11.085 27.9686 11.174 27.9694 11.2728 27.9906C11.3715 28.0118 11.4534 28.0477 11.5185 28.0983C11.5828 28.1478 11.6272 28.2071 11.6517 28.2764C11.6761 28.3457 11.68 28.4192 11.6632 28.497ZM11.4508 28.4513C11.4602 28.4076 11.4467 28.3686 11.4102 28.3342C11.373 28.2988 11.3085 28.2712 11.2167 28.2515C11.1249 28.2318 11.0552 28.2305 11.0076 28.2478C10.9594 28.2639 10.9305 28.2938 10.9211 28.3375C10.9116 28.3821 10.9254 28.4221 10.9626 28.4575C10.9991 28.4919 11.0632 28.5189 11.155 28.5387C11.2468 28.5584 11.3168 28.5602 11.3651 28.544C11.4127 28.5268 11.4413 28.4959 11.4508 28.4513Z" fill="white" fill-opacity="0.32"/>
<path d="M11.7558 24.836L12.6374 25.1583L12.5462 25.4077L11.8573 25.1558L11.7974 25.3196L11.6047 25.2491L11.7558 24.836Z" fill="white" fill-opacity="0.32"/>
<path d="M12.9597 22.2198L13.7936 22.6508L13.6717 22.8867L13.0201 22.5499L12.94 22.7048L12.7577 22.6106L12.9597 22.2198Z" fill="white" fill-opacity="0.32"/>
<path d="M15.2082 20.4089C15.1617 20.4745 15.1046 20.5217 15.0371 20.5505C14.9695 20.5793 14.8955 20.5871 14.815 20.5738C14.7343 20.5593 14.6527 20.5229 14.5703 20.4644C14.4879 20.406 14.4269 20.3413 14.3873 20.2704C14.3475 20.1983 14.33 20.1256 14.3349 20.0524C14.3397 19.9791 14.3654 19.9096 14.412 19.844C14.458 19.7791 14.5148 19.7322 14.5824 19.7034C14.6499 19.6746 14.7241 19.6675 14.8048 19.682C14.8853 19.6952 14.9667 19.7311 15.0491 19.7895C15.1315 19.848 15.1926 19.9133 15.2324 19.9854C15.2721 20.0562 15.2894 20.1283 15.2846 20.2016C15.2797 20.2749 15.2543 20.344 15.2082 20.4089ZM15.031 20.2832C15.0569 20.2467 15.0598 20.2055 15.0398 20.1595C15.0196 20.1123 14.9712 20.0615 14.8947 20.0072C14.8181 19.9529 14.7546 19.9243 14.7041 19.9213C14.6533 19.9171 14.615 19.9332 14.5892 19.9697C14.5628 20.0069 14.5597 20.0491 14.5799 20.0963C14.5999 20.1423 14.6482 20.1924 14.7247 20.2467C14.8013 20.3011 14.865 20.3303 14.9157 20.3345C14.9662 20.3375 15.0047 20.3204 15.031 20.2832Z" fill="white" fill-opacity="0.32"/>
<path d="M17.1981 17.9908C17.1425 18.049 17.0792 18.0875 17.0082 18.1062C16.9372 18.1249 16.8628 18.1219 16.7851 18.0971C16.7073 18.0711 16.6319 18.0232 16.5589 17.9535C16.4858 17.8837 16.4348 17.8109 16.4058 17.7351C16.3768 17.658 16.3701 17.5835 16.3855 17.5117C16.4009 17.4399 16.4364 17.3749 16.4919 17.3167C16.5469 17.2591 16.6098 17.221 16.6809 17.2022C16.7519 17.1835 16.8263 17.1872 16.904 17.2132C16.9817 17.238 17.0571 17.2852 17.1302 17.355C17.2033 17.4247 17.2543 17.4982 17.2833 17.5753C17.3122 17.6511 17.319 17.7249 17.3036 17.7968C17.2882 17.8686 17.253 17.9332 17.1981 17.9908ZM17.0409 17.8408C17.0718 17.8085 17.0807 17.7681 17.0675 17.7197C17.0544 17.6701 17.0138 17.6128 16.9459 17.548C16.878 17.4832 16.8193 17.4457 16.7697 17.4354C16.7202 17.4239 16.6799 17.4343 16.6491 17.4667C16.6176 17.4997 16.6084 17.541 16.6216 17.5906C16.6347 17.639 16.6752 17.6956 16.7431 17.7604C16.811 17.8253 16.8698 17.8634 16.9194 17.8749C16.9689 17.8851 17.0095 17.8738 17.0409 17.8408Z" fill="white" fill-opacity="0.32"/>
<path d="M19.191 14.9162L19.7733 15.6525L19.5651 15.8172L19.11 15.2419L18.9733 15.35L18.846 15.1891L19.191 14.9162Z" fill="white" fill-opacity="0.32"/>
<path d="M21.8924 14.249C21.8231 14.2899 21.7518 14.3098 21.6783 14.3086C21.6049 14.3074 21.5341 14.2844 21.466 14.2395C21.3982 14.1934 21.3386 14.1269 21.2871 14.04C21.2356 13.9531 21.2062 13.8692 21.1989 13.7883C21.1919 13.7062 21.2055 13.6327 21.2398 13.5678C21.274 13.5028 21.3258 13.4498 21.395 13.4088C21.4635 13.3683 21.5344 13.3486 21.6079 13.3498C21.6813 13.351 21.7519 13.3747 21.8197 13.4208C21.8879 13.4657 21.9477 13.5316 21.9991 13.6185C22.0506 13.7054 22.0798 13.7899 22.0869 13.872C22.0942 13.9529 22.0807 14.0258 22.0465 14.0907C22.0122 14.1557 21.9608 14.2084 21.8924 14.249ZM21.7817 14.062C21.8201 14.0392 21.8396 14.0028 21.8401 13.9526C21.8408 13.9013 21.8173 13.8352 21.7695 13.7544C21.7217 13.6737 21.6753 13.6216 21.6303 13.5984C21.5857 13.5739 21.5442 13.573 21.5057 13.5958C21.4665 13.619 21.4465 13.6563 21.4457 13.7077C21.4452 13.7578 21.4689 13.8233 21.5167 13.904C21.5646 13.9848 21.6108 14.0375 21.6554 14.062C21.7004 14.0852 21.7424 14.0852 21.7817 14.062Z" fill="white" fill-opacity="0.32"/>
<path d="M24.7416 12.8254C24.6671 12.8559 24.5937 12.8653 24.5212 12.8534C24.4487 12.8416 24.382 12.8086 24.3211 12.7543C24.2607 12.6988 24.2113 12.6244 24.173 12.5309C24.1347 12.4374 24.1178 12.3502 24.1222 12.2691C24.1272 12.1869 24.1513 12.1161 24.1947 12.0568C24.238 11.9975 24.2969 11.9526 24.3713 11.9221C24.4449 11.8919 24.518 11.8827 24.5905 11.8946C24.663 11.9064 24.7294 11.94 24.7898 11.9955C24.8507 12.0497 24.9003 12.1236 24.9386 12.2171C24.977 12.3106 24.9936 12.3984 24.9887 12.4807C24.9842 12.5617 24.9603 12.6319 24.917 12.6912C24.8737 12.7505 24.8152 12.7952 24.7416 12.8254ZM24.6592 12.6244C24.7006 12.6074 24.7251 12.5742 24.7328 12.5247C24.741 12.474 24.7273 12.4052 24.6917 12.3183C24.6561 12.2314 24.6178 12.1733 24.5767 12.1437C24.5361 12.113 24.4951 12.1061 24.4537 12.1231C24.4115 12.1404 24.3863 12.1744 24.3781 12.2251C24.3704 12.2746 24.3844 12.3428 24.42 12.4297C24.4556 12.5166 24.4937 12.5753 24.5343 12.606C24.5754 12.6356 24.617 12.6417 24.6592 12.6244Z" fill="white" fill-opacity="0.32"/>
<path d="M27.8257 10.8217L28.0576 11.7314L27.8003 11.797L27.6191 11.0862L27.4501 11.1292L27.3994 10.9304L27.8257 10.8217Z" fill="white" fill-opacity="0.32"/>
<path d="M30.6195 11.3066C30.5395 11.3156 30.4663 11.3045 30.3998 11.2733C30.3333 11.2421 30.2782 11.1921 30.2345 11.1232C30.1915 11.0534 30.1644 10.9683 30.1531 10.8679C30.1418 10.7675 30.1493 10.6789 30.1758 10.6022C30.203 10.5244 30.2456 10.463 30.3035 10.4178C30.3613 10.3726 30.4303 10.3454 30.5102 10.3364C30.5893 10.3275 30.6621 10.3387 30.7286 10.3699C30.7951 10.4011 30.8498 10.4516 30.8927 10.5214C30.9365 10.5903 30.964 10.6749 30.9753 10.7753C30.9866 10.8757 30.9787 10.9647 30.9514 11.0425C30.925 11.1192 30.8828 11.1802 30.8249 11.2254C30.7671 11.2706 30.6986 11.2977 30.6195 11.3066ZM30.5952 11.0907C30.6396 11.0857 30.6723 11.0604 30.6933 11.0149C30.715 10.9683 30.7206 10.8984 30.7101 10.8052C30.6996 10.7119 30.6786 10.6454 30.6472 10.6058C30.6165 10.5651 30.579 10.5473 30.5345 10.5523C30.4892 10.5574 30.4557 10.5832 30.434 10.6298C30.413 10.6753 30.4078 10.7447 30.4183 10.838C30.4288 10.9313 30.4494 10.9983 30.48 11.0389C30.5115 11.0785 30.5499 11.0958 30.5952 11.0907Z" fill="white" fill-opacity="0.32"/>
<path d="M33.9431 10.2239L33.9208 11.1624L33.6554 11.1561L33.6728 10.4227L33.4985 10.4186L33.5034 10.2135L33.9431 10.2239Z" fill="white" fill-opacity="0.32"/>
<path d="M36.5199 11.4416C36.4405 11.4286 36.373 11.3981 36.3174 11.3501C36.2618 11.3021 36.2223 11.2391 36.1988 11.161C36.1763 11.0821 36.1732 10.9928 36.1894 10.8931C36.2057 10.7934 36.2369 10.7102 36.2831 10.6434C36.3303 10.5759 36.3879 10.5283 36.4559 10.5004C36.5238 10.4725 36.5975 10.465 36.6769 10.478C36.7555 10.4908 36.8225 10.5212 36.8781 10.5692C36.9337 10.6172 36.9727 10.6806 36.9952 10.7595C37.0187 10.8376 37.0223 10.9265 37.0061 11.0262C36.9898 11.1259 36.9581 11.2095 36.9108 11.277C36.8646 11.3438 36.8076 11.3911 36.7396 11.4189C36.6717 11.4468 36.5984 11.4544 36.5199 11.4416ZM36.5548 11.2271C36.599 11.2343 36.6373 11.2188 36.6697 11.1806C36.7033 11.1417 36.7276 11.0759 36.7427 10.9833C36.7578 10.8906 36.7555 10.821 36.736 10.7743C36.7174 10.7269 36.6861 10.6996 36.642 10.6924C36.597 10.6851 36.5577 10.7009 36.5242 10.7398C36.4917 10.778 36.4679 10.8434 36.4528 10.936C36.4377 11.0287 36.4394 11.0987 36.458 11.1461C36.4775 11.1928 36.5098 11.2198 36.5548 11.2271Z" fill="white" fill-opacity="0.32"/>
<path d="M40.1815 11.3401L39.9037 12.2368L39.6501 12.1582L39.8671 11.4575L39.7006 11.4059L39.7613 11.2099L40.1815 11.3401Z" fill="white" fill-opacity="0.32"/>
<path d="M42.3945 13.2425C42.3217 13.2083 42.2651 13.1605 42.2248 13.0991C42.1845 13.0377 42.1637 12.9663 42.1625 12.8847C42.1624 12.8027 42.1839 12.716 42.2268 12.6245C42.2697 12.5331 42.3225 12.4616 42.3853 12.41C42.4492 12.358 42.5176 12.3279 42.5906 12.3197C42.6636 12.3115 42.7365 12.3245 42.8093 12.3587C42.8814 12.3925 42.9375 12.4401 42.9779 12.5015C43.0182 12.5629 43.0384 12.6346 43.0384 12.7165C43.0396 12.7981 43.0188 12.8846 42.9759 12.9761C42.9329 13.0675 42.8795 13.1392 42.8156 13.1912C42.7529 13.2428 42.6851 13.2727 42.6121 13.2809C42.5391 13.2891 42.4666 13.2763 42.3945 13.2425ZM42.4868 13.0458C42.5273 13.0648 42.5684 13.0604 42.6101 13.0326C42.653 13.0043 42.6944 12.9477 42.7343 12.8627C42.7741 12.7777 42.7911 12.7101 42.785 12.6599C42.7802 12.6092 42.7575 12.5743 42.717 12.5554C42.6758 12.536 42.6337 12.5404 42.5908 12.5687C42.5491 12.5965 42.5083 12.6529 42.4684 12.7379C42.4285 12.8229 42.411 12.8907 42.4159 12.9414C42.4219 12.9916 42.4456 13.0264 42.4868 13.0458Z" fill="white" fill-opacity="0.32"/>
<path d="M45.8344 14.0854L45.3234 14.8729L45.1007 14.7284L45.5 14.113L45.3537 14.0181L45.4654 13.846L45.8344 14.0854Z" fill="white" fill-opacity="0.32"/>
<path d="M47.399 16.4832C47.3382 16.4306 47.2967 16.3692 47.2746 16.2991C47.2525 16.2291 47.2519 16.1547 47.2729 16.0759C47.2951 15.9969 47.3393 15.9193 47.4055 15.843C47.4717 15.7666 47.5419 15.7122 47.6163 15.6796C47.6919 15.6469 47.766 15.6366 47.8384 15.6485C47.9109 15.6605 47.9775 15.6928 48.0383 15.7455C48.0985 15.7976 48.1396 15.8587 48.1617 15.9287C48.1838 15.9987 48.1838 16.0732 48.1615 16.1521C48.1405 16.2309 48.097 16.3085 48.0308 16.3849C47.9646 16.4612 47.8937 16.5157 47.8181 16.5484C47.7438 16.5809 47.6703 16.5912 47.5979 16.5793C47.5254 16.5674 47.4591 16.5354 47.399 16.4832ZM47.5412 16.3191C47.575 16.3483 47.6158 16.3553 47.6635 16.3398C47.7124 16.3243 47.7676 16.281 47.8291 16.2101C47.8906 16.1391 47.9253 16.0787 47.9331 16.0287C47.9422 15.9786 47.9298 15.9389 47.8961 15.9096C47.8616 15.8798 47.8199 15.8726 47.7709 15.8882C47.7232 15.9036 47.6687 15.9468 47.6072 16.0177C47.5457 16.0887 47.5104 16.1492 47.5013 16.1993C47.4935 16.2493 47.5068 16.2892 47.5412 16.3191Z" fill="white" fill-opacity="0.32"/>
<path d="M49.6754 18.7663C49.6229 18.7052 49.5909 18.6384 49.5794 18.5659C49.5678 18.4934 49.5781 18.4197 49.6105 18.3448C49.6441 18.27 49.6992 18.1997 49.7758 18.1339C49.8525 18.0681 49.93 18.0245 50.0083 18.0033C50.0879 17.9821 50.1627 17.9827 50.2326 18.0051C50.3026 18.0276 50.3637 18.0693 50.4161 18.1304C50.468 18.1908 50.4997 18.2572 50.5113 18.3297C50.5229 18.4023 50.5119 18.4759 50.4783 18.5507C50.4459 18.6256 50.3914 18.6959 50.3148 18.7617C50.2381 18.8275 50.16 18.871 50.0804 18.8922C50.0021 18.9135 49.9279 18.913 49.858 18.8905C49.7881 18.8681 49.7272 18.8267 49.6754 18.7663ZM49.8402 18.6248C49.8693 18.6587 49.9086 18.6715 49.958 18.6632C50.0088 18.655 50.0697 18.6204 50.141 18.5592C50.2122 18.4981 50.2553 18.4434 50.2704 18.3951C50.2868 18.3469 50.2804 18.3058 50.2513 18.2719C50.2216 18.2373 50.1814 18.2241 50.1307 18.2323C50.0812 18.2405 50.0209 18.2753 49.9497 18.3364C49.8784 18.3975 49.8346 18.4522 49.8183 18.5004C49.8032 18.5487 49.8105 18.5902 49.8402 18.6248Z" fill="white" fill-opacity="0.32"/>
<path d="M52.4655 20.9342L51.6775 21.4443L51.5332 21.2214L52.149 20.8228L52.0543 20.6765L52.2265 20.565L52.4655 20.9342Z" fill="white" fill-opacity="0.32"/>
<path d="M52.9406 23.8088C52.9066 23.7358 52.8938 23.6629 52.9022 23.5899C52.9106 23.517 52.9404 23.4488 52.9918 23.3854C53.0443 23.3224 53.1163 23.2696 53.2079 23.2269C53.2994 23.1842 53.3858 23.1631 53.467 23.1638C53.5493 23.1648 53.6212 23.1856 53.6825 23.226C53.7438 23.2665 53.7914 23.3232 53.8254 23.3961C53.859 23.4683 53.8717 23.5408 53.8633 23.6138C53.8549 23.6867 53.8244 23.7547 53.7719 23.8176C53.7206 23.881 53.6491 23.9341 53.5576 23.9768C53.466 24.0195 53.3791 24.0403 53.2967 24.0393C53.2155 24.0386 53.1443 24.0181 53.083 23.9776C53.0217 23.9372 52.9742 23.8809 52.9406 23.8088ZM53.1375 23.7169C53.1564 23.7574 53.1908 23.7804 53.2406 23.7857C53.2917 23.7915 53.3597 23.7746 53.4448 23.7349C53.5299 23.6952 53.5862 23.6542 53.6137 23.6117C53.6425 23.5697 53.6474 23.5285 53.6285 23.488C53.6092 23.4466 53.5741 23.4231 53.5231 23.4173C53.4732 23.4119 53.4057 23.4291 53.3207 23.4688C53.2356 23.5084 53.1787 23.5493 53.1499 23.5913C53.1224 23.6337 53.1182 23.6756 53.1375 23.7169Z" fill="white" fill-opacity="0.32"/>
<path d="M55.0428 26.6603L54.1463 26.9388L54.0675 26.6852L54.768 26.4676L54.7163 26.3011L54.9123 26.2403L55.0428 26.6603Z" fill="white" fill-opacity="0.32"/>
<path d="M54.7226 29.5839C54.7097 29.5045 54.7172 29.4308 54.7451 29.3629C54.7731 29.295 54.8204 29.2375 54.887 29.1905C54.9547 29.1442 55.0384 29.1129 55.1381 29.0968C55.2378 29.0806 55.3267 29.0839 55.4046 29.1065C55.4836 29.13 55.547 29.1695 55.595 29.2251C55.643 29.2807 55.6734 29.3483 55.6863 29.4277C55.699 29.5062 55.6914 29.5795 55.6635 29.6474C55.6355 29.7153 55.5877 29.7724 55.5201 29.8187C55.4534 29.8658 55.3702 29.8974 55.2705 29.9135C55.1708 29.9297 55.0814 29.9261 55.0025 29.9026C54.9245 29.88 54.8616 29.8408 54.8136 29.7852C54.7656 29.7296 54.7353 29.6625 54.7226 29.5839ZM54.937 29.5492C54.9442 29.5933 54.971 29.6247 55.0175 29.6434C55.065 29.6629 55.1351 29.6651 55.2278 29.6501C55.3205 29.6351 55.3858 29.6109 55.4239 29.5775C55.463 29.5449 55.479 29.5066 55.4718 29.4625C55.4645 29.4174 55.4371 29.3852 55.3896 29.3657C55.3431 29.347 55.2735 29.3452 55.1808 29.3602C55.0881 29.3752 55.0223 29.399 54.9832 29.4316C54.9451 29.465 54.9297 29.5042 54.937 29.5492Z" fill="white" fill-opacity="0.32"/>
<path d="M55.0005 32.7455C54.9993 32.6651 55.0175 32.5933 55.0551 32.5302C55.0926 32.467 55.1478 32.4171 55.2206 32.3803C55.2943 32.3444 55.3817 32.3257 55.4827 32.3242C55.5837 32.3228 55.6711 32.339 55.7449 32.3728C55.8196 32.4075 55.8766 32.4559 55.9159 32.5179C55.9553 32.5799 55.9755 32.6512 55.9767 32.7316C55.9778 32.8112 55.9596 32.8825 55.922 32.9457C55.8845 33.0088 55.8288 33.0583 55.7551 33.0942C55.6824 33.131 55.5954 33.1501 55.4944 33.1516C55.3934 33.153 55.3056 33.1364 55.2309 33.1017C55.1571 33.0679 55.1005 33.0199 55.0612 32.9579C55.0218 32.8959 55.0016 32.8251 55.0005 32.7455ZM55.2177 32.7424C55.2183 32.7871 55.2403 32.8221 55.2836 32.8474C55.3278 32.8736 55.3968 32.8861 55.4906 32.8847C55.5845 32.8834 55.6527 32.869 55.6952 32.8416C55.7387 32.8151 55.7601 32.7794 55.7594 32.7347C55.7588 32.6891 55.7364 32.6532 55.6922 32.6271C55.6489 32.6017 55.5803 32.5897 55.4865 32.5911C55.3926 32.5924 55.324 32.6064 55.2805 32.6329C55.238 32.6603 55.217 32.6968 55.2177 32.7424Z" fill="white" fill-opacity="0.32"/>
<path d="M54.8097 35.9902C54.8205 35.9104 54.8492 35.8421 54.8957 35.7853C54.9422 35.7284 55.0041 35.6872 55.0816 35.6616C55.1598 35.637 55.249 35.6315 55.3491 35.6451C55.4492 35.6586 55.5332 35.6876 55.6012 35.732C55.6699 35.7774 55.7191 35.8337 55.7488 35.9009C55.7785 35.968 55.788 36.0415 55.7772 36.1212C55.7665 36.2001 55.7379 36.2679 55.6914 36.3248C55.6449 36.3816 55.5826 36.4224 55.5043 36.4469C55.4269 36.4725 55.3381 36.4786 55.238 36.465C55.1379 36.4514 55.0535 36.422 54.9847 36.3766C54.9168 36.3322 54.8679 36.2764 54.8382 36.2092C54.8086 36.142 54.799 36.069 54.8097 35.9902ZM55.025 36.0193C55.019 36.0636 55.0355 36.1015 55.0746 36.133C55.1144 36.1654 55.1808 36.1879 55.2738 36.2005C55.3669 36.2131 55.4364 36.209 55.4826 36.1882C55.5294 36.1684 55.5559 36.1364 55.5619 36.0921C55.568 36.0469 55.5512 36.0081 55.5114 35.9756C55.4723 35.9441 55.4063 35.9221 55.3133 35.9095C55.2202 35.8969 55.1503 35.9005 55.1034 35.9203C55.0573 35.9411 55.0311 35.9741 55.025 36.0193Z" fill="white" fill-opacity="0.32"/>
<defs>
<filter id="filter0_d_1673_9584" x="15.0586" y="15.058" width="35.852" height="36.457" filterUnits="userSpaceOnUse" color-interpolation-filters="sRGB">
<feFlood flood-opacity="0" result="BackgroundImageFix"/>
<feColorMatrix in="SourceAlpha" type="matrix" values="0 0 0 0 0 0 0 0 0 0 0 0 0 0 0 0 0 0 127 0" result="hardAlpha"/>
<feOffset dx="0.398341" dy="0.398341"/>
<feComposite in2="hardAlpha" operator="out"/>
<feColorMatrix type="matrix" values="0 0 0 0 0.115104 0 0 0 0 0.649472 0 0 0 0 0.8125 0 0 0 0.36 0"/>
<feBlend mode="normal" in2="BackgroundImageFix" result="effect1_dropShadow_1673_9584"/>
<feBlend mode="normal" in="SourceGraphic" in2="effect1_dropShadow_1673_9584" result="shape"/>
</filter>
<filter id="filter1_d_1673_9584" x="17.2446" y="14.124" width="32.0741" height="35.1998" filterUnits="userSpaceOnUse" color-interpolation-filters="sRGB">
<feFlood flood-opacity="0" result="BackgroundImageFix"/>
<feColorMatrix in="SourceAlpha" type="matrix" values="0 0 0 0 0 0 0 0 0 0 0 0 0 0 0 0 0 0 127 0" result="hardAlpha"/>
<feOffset dx="0.398341" dy="0.398341"/>
<feComposite in2="hardAlpha" operator="out"/>
<feColorMatrix type="matrix" values="0 0 0 0 0.115104 0 0 0 0 0.649472 0 0 0 0 0.8125 0 0 0 0.36 0"/>
<feBlend mode="normal" in2="BackgroundImageFix" result="effect1_dropShadow_1673_9584"/>
<feBlend mode="normal" in="SourceGraphic" in2="effect1_dropShadow_1673_9584" result="shape"/>
</filter>
<filter id="filter2_d_1673_9584" x="19.4434" y="19.4424" width="27.6913" height="27.6898" filterUnits="userSpaceOnUse" color-interpolation-filters="sRGB">
<feFlood flood-opacity="0" result="BackgroundImageFix"/>
<feColorMatrix in="SourceAlpha" type="matrix" values="0 0 0 0 0 0 0 0 0 0 0 0 0 0 0 0 0 0 127 0" result="hardAlpha"/>
<feOffset dx="0.398341" dy="0.398341"/>
<feComposite in2="hardAlpha" operator="out"/>
<feColorMatrix type="matrix" values="0 0 0 0 0.115104 0 0 0 0 0.649472 0 0 0 0 0.8125 0 0 0 0.36 0"/>
<feBlend mode="normal" in2="BackgroundImageFix" result="effect1_dropShadow_1673_9584"/>
<feBlend mode="normal" in="SourceGraphic" in2="effect1_dropShadow_1673_9584" result="shape"/>
</filter>
<filter id="filter3_d_1673_9584" x="21.6309" y="21.633" width="23.3085" height="23.3087" filterUnits="userSpaceOnUse" color-interpolation-filters="sRGB">
<feFlood flood-opacity="0" result="BackgroundImageFix"/>
<feColorMatrix in="SourceAlpha" type="matrix" values="0 0 0 0 0 0 0 0 0 0 0 0 0 0 0 0 0 0 127 0" result="hardAlpha"/>
<feOffset dx="0.398341" dy="0.398341"/>
<feComposite in2="hardAlpha" operator="out"/>
<feColorMatrix type="matrix" values="0 0 0 0 0.115104 0 0 0 0 0.649472 0 0 0 0 0.8125 0 0 0 0.36 0"/>
<feBlend mode="normal" in2="BackgroundImageFix" result="effect1_dropShadow_1673_9584"/>
<feBlend mode="normal" in="SourceGraphic" in2="effect1_dropShadow_1673_9584" result="shape"/>
</filter>
<linearGradient id="paint0_linear_1673_9584" x1="6.59682" y1="6.59795" x2="59.5762" y2="59.5773" gradientUnits="userSpaceOnUse">
<stop stop-color="#47BDE1"/>
<stop offset="1" stop-color="#3DB1D5"/>
</linearGradient>
<linearGradient id="paint1_linear_1673_9584" x1="6.59682" y1="6.59795" x2="59.5762" y2="59.5773" gradientUnits="userSpaceOnUse">
<stop stop-color="white"/>
<stop offset="1" stop-color="#87DDF8"/>
</linearGradient>
<linearGradient id="paint2_linear_1673_9584" x1="9.09164" y1="9.08725" x2="57.0918" y2="57.0874" gradientUnits="userSpaceOnUse">
<stop stop-color="#039DCE" stop-opacity="0.69"/>
<stop offset="1" stop-color="#0294C2" stop-opacity="0.12"/>
</linearGradient>
<linearGradient id="paint3_linear_1673_9584" x1="20.6239" y1="11.4991" x2="45.5517" y2="54.6753" gradientUnits="userSpaceOnUse">
<stop stop-color="white" stop-opacity="0.35"/>
<stop offset="1" stop-color="#1099C5" stop-opacity="0"/>
</linearGradient>
<linearGradient id="paint4_linear_1673_9584" x1="22.8657" y1="10.0392" x2="44.2793" y2="52.48" gradientUnits="userSpaceOnUse">
<stop stop-color="white" stop-opacity="0.35"/>
<stop offset="1" stop-color="#1099C5" stop-opacity="0"/>
</linearGradient>
<linearGradient id="paint5_linear_1673_9584" x1="23.7244" y1="16.8657" x2="42.4555" y2="49.3089" gradientUnits="userSpaceOnUse">
<stop stop-color="white" stop-opacity="0.35"/>
<stop offset="1" stop-color="#1099C5" stop-opacity="0"/>
</linearGradient>
<linearGradient id="paint6_linear_1673_9584" x1="24.9878" y1="19.062" x2="41.1838" y2="47.1143" gradientUnits="userSpaceOnUse">
<stop stop-color="white" stop-opacity="0.35"/>
<stop offset="1" stop-color="#1099C5" stop-opacity="0"/>
</linearGradient>
<linearGradient id="paint7_linear_1673_9584" x1="27.7481" y1="24.4513" x2="34.9903" y2="42.7638" gradientUnits="userSpaceOnUse">
<stop stop-color="#F5FDFF"/>
<stop offset="1" stop-color="#97E7FF"/>
</linearGradient>
</defs>
</svg>
