<svg width="49" height="49" viewBox="0 0 49 49" fill="none" xmlns="http://www.w3.org/2000/svg">
<circle cx="24.1644" cy="24.1643" r="16.8583" transform="rotate(-30 24.1644 24.1643)" fill="url(#paint0_linear_1673_9651)" stroke="url(#paint1_linear_1673_9651)" stroke-width="1.66255"/>
<circle cx="24.1628" cy="24.1641" r="14.7479" transform="rotate(-30 24.1628 24.1641)" stroke="url(#paint2_linear_1673_9651)" stroke-width="2.5583"/>
<g filter="url(#filter0_d_1673_9651)">
<path d="M34.357 18.2785C37.6075 23.9084 35.6785 31.1074 30.0486 34.3578C24.4187 37.6083 17.2197 35.6793 13.9693 30.0494C11.2539 25.3462 12.1531 19.5481 15.8049 15.8717" stroke="url(#paint3_linear_1673_9651)" stroke-width="0.532017" stroke-linecap="round" shape-rendering="crispEdges"/>
</g>
<g filter="url(#filter1_d_1673_9651)">
<path fill-rule="evenodd" clip-rule="evenodd" d="M17.617 12.8194C17.7442 12.746 17.9069 12.7896 17.9804 12.9168L19.113 14.8786C19.3375 14.7562 19.5646 14.6428 19.7939 14.5382C19.6724 14.4481 19.5672 14.3324 19.4871 14.1937L18.9066 13.1883C18.8332 13.061 18.8768 12.8983 19.004 12.8249C19.1312 12.7514 19.2939 12.795 19.3674 12.9223L19.9479 13.9277C20.0755 14.1488 20.3234 14.2604 20.5643 14.2228C25.2957 12.5002 30.7231 14.3661 33.3278 18.8776C36.2477 23.935 34.5149 30.4018 29.4575 33.3217C24.4001 36.2416 17.9333 34.5088 15.0134 29.4514C12.4107 24.9435 13.5047 19.3158 17.3546 16.0783C17.5121 15.8882 17.5413 15.6143 17.4123 15.3908L16.8318 14.3854C16.7584 14.2581 16.802 14.0954 16.9292 14.022C17.0564 13.9485 17.2191 13.9921 17.2926 14.1193L17.8731 15.1248C17.9533 15.2638 18.001 15.4133 18.0182 15.564C18.223 15.4178 18.4344 15.2779 18.6523 15.1447L17.5196 13.1828C17.4462 13.0556 17.4898 12.8929 17.617 12.8194ZM20.706 14.7376C20.7906 14.7197 20.8743 14.6918 20.9557 14.6534L20.954 14.6498C25.3973 13.1423 30.4315 14.9251 32.867 19.1436C35.64 23.9465 33.9944 30.088 29.1915 32.861C24.3886 35.634 18.2471 33.9884 15.4741 29.1854C13.0393 24.9683 14.0111 19.7192 17.5355 16.6244L17.5369 16.6265C17.6078 16.5772 17.6715 16.5213 17.7276 16.46C18.165 16.0951 18.6395 15.7626 19.1497 15.4681C19.6554 15.1761 20.176 14.9331 20.706 14.7376Z" fill="url(#paint4_linear_1673_9651)" shape-rendering="crispEdges"/>
</g>
<g filter="url(#filter2_d_1673_9651)">
<path d="M22.0119 15.5827C25.7478 14.644 29.8018 16.2403 31.8234 19.7417C34.2658 23.9721 32.8164 29.3815 28.586 31.8239C24.3556 34.2663 18.9462 32.8169 16.5038 28.5865C14.4822 25.0851 15.1268 20.776 17.8077 18.01" stroke="url(#paint5_linear_1673_9651)" stroke-width="0.532017" stroke-linecap="round" shape-rendering="crispEdges"/>
</g>
<g filter="url(#filter3_d_1673_9651)">
<path fill-rule="evenodd" clip-rule="evenodd" d="M20.6079 18.0024C17.2045 19.9674 16.0384 24.3193 18.0034 27.7227C19.9683 31.1261 24.3202 32.2922 27.7236 30.3272C31.127 28.3622 32.2931 24.0103 30.3282 20.6069C28.3632 17.2035 24.0113 16.0375 20.6079 18.0024ZM17.5426 27.9887C15.4308 24.3308 16.684 19.6535 20.3419 17.5417C23.9997 15.4298 28.677 16.6831 30.7889 20.3409C32.9008 23.9988 31.6475 28.6761 27.9896 30.7879C24.3318 32.8998 19.6545 31.6465 17.5426 27.9887ZM21.337 19.2691C18.6333 20.83 17.707 24.2872 19.2679 26.9908C20.8289 29.6944 24.286 30.6208 26.9896 29.0598C29.6933 27.4989 30.6196 24.0417 29.0587 21.3381C27.4977 18.6345 24.0406 17.7081 21.337 19.2691ZM18.8072 27.2568C17.0993 24.2987 18.1129 20.5162 21.0709 18.8083C24.029 17.1005 27.8115 18.114 29.5194 21.0721C31.2272 24.0302 30.2137 27.8127 27.2556 29.5206C24.2975 31.2284 20.515 30.2149 18.8072 27.2568ZM20.5364 26.2589C19.3795 24.255 20.066 21.6927 22.0699 20.5358C24.0738 19.3788 26.6361 20.0654 27.7931 22.0693C28.95 24.0731 28.2634 26.6355 26.2595 27.7924C24.2557 28.9494 21.6933 28.2628 20.5364 26.2589ZM21.8039 20.075C19.5456 21.3789 18.7718 24.2666 20.0757 26.5249C21.3795 28.7832 24.2672 29.557 26.5256 28.2532C28.7839 26.9493 29.5576 24.0616 28.2538 21.8033C26.95 19.5449 24.0622 18.7712 21.8039 20.075Z" fill="url(#paint6_linear_1673_9651)" shape-rendering="crispEdges"/>
</g>
<path fill-rule="evenodd" clip-rule="evenodd" d="M29.177 15.9011L30.1082 15.9438L31.0568 16.9237L15.604 25.8454L14.6926 25.7637L15.2297 24.534L29.177 15.9011ZM31.0793 17.8522L31.9194 17.7565L35.6929 21.6534L29.8278 21.9846L27.8607 29.2264L27.0342 29.2849L20.6026 27.3108L17.3832 32.2244L16.5685 32.2787L15.8981 27.0064L31.0793 17.8522Z" fill="#008FBB" fill-opacity="0.32"/>
<path fill-rule="evenodd" clip-rule="evenodd" d="M14.3261 24.4778L29.2047 15.8876L30.1532 16.8675L14.7004 25.7892L14.3261 24.4778ZM15.0752 27.0954L31.0966 17.8455L34.87 21.7424L29.005 22.0736L27.0378 29.3154L19.7798 27.3998L16.5604 32.3134L15.0752 27.0954Z" fill="url(#paint7_linear_1673_9651)"/>
<path d="M37.0906 18.0528C37.067 18.0045 37.0576 17.9559 37.0623 17.9071C37.0671 17.8583 37.0862 17.8124 37.1197 17.7695C37.154 17.7268 37.2015 17.6907 37.2621 17.6611C37.3228 17.6315 37.3802 17.6164 37.4344 17.6159C37.4894 17.6156 37.5376 17.6286 37.579 17.6549C37.6204 17.6812 37.6529 17.7185 37.6765 17.7667C37.6998 17.8145 37.7091 17.8628 37.7043 17.9116C37.6996 17.9604 37.6801 18.0062 37.6458 18.0488C37.6122 18.0918 37.5652 18.128 37.5045 18.1576C37.4439 18.1872 37.3861 18.2022 37.3311 18.2024C37.2769 18.203 37.2291 18.1901 37.1877 18.1638C37.1463 18.1375 37.1139 18.1005 37.0906 18.0528ZM37.221 17.9891C37.2341 18.0159 37.2573 18.0308 37.2906 18.0338C37.3248 18.0371 37.37 18.025 37.4264 17.9975C37.4827 17.97 37.5198 17.9419 37.5377 17.9132C37.5564 17.8848 37.5592 17.8572 37.5461 17.8304C37.5327 17.803 37.509 17.7877 37.4748 17.7845C37.4415 17.7815 37.3966 17.7937 37.3403 17.8212C37.284 17.8487 37.2465 17.8767 37.2278 17.9051C37.2099 17.9337 37.2076 17.9618 37.221 17.9891Z" fill="white" fill-opacity="0.32"/>
<path d="M38.5067 19.9477L37.9108 20.1425L37.8557 19.974L38.3213 19.8217L38.2852 19.7111L38.4154 19.6685L38.5067 19.9477Z" fill="white" fill-opacity="0.32"/>
<path d="M38.2778 21.8199C38.2684 21.767 38.2727 21.7177 38.2906 21.6721C38.3086 21.6264 38.3396 21.5876 38.3836 21.5555C38.4283 21.5239 38.4839 21.5022 38.5503 21.4904C38.6167 21.4786 38.6761 21.4799 38.7284 21.4942C38.7813 21.5091 38.8241 21.5348 38.8567 21.5715C38.8893 21.6081 38.9103 21.6529 38.9197 21.7058C38.929 21.7581 38.9247 21.8071 38.9067 21.8527C38.8887 21.8984 38.8574 21.937 38.8127 21.9686C38.7687 22.0007 38.7134 22.0226 38.647 22.0344C38.5806 22.0462 38.5209 22.0447 38.4679 22.0299C38.4157 22.0155 38.3732 21.99 38.3406 21.9533C38.308 21.9167 38.2871 21.8722 38.2778 21.8199ZM38.4206 21.7945C38.4259 21.8239 38.4441 21.8446 38.4753 21.8566C38.5073 21.8692 38.5541 21.8699 38.6158 21.859C38.6776 21.848 38.721 21.8312 38.746 21.8085C38.7718 21.7864 38.7821 21.7606 38.7769 21.7312C38.7715 21.7012 38.7529 21.68 38.721 21.6674C38.6897 21.6554 38.6432 21.6549 38.5815 21.6659C38.5198 21.6768 38.476 21.6934 38.4503 21.7156C38.4252 21.7382 38.4153 21.7645 38.4206 21.7945Z" fill="white" fill-opacity="0.32"/>
<path d="M39.1117 23.9826L38.4854 24.0087L38.478 23.8315L38.9674 23.8111L38.9626 23.6948L39.0995 23.6891L39.1117 23.9826Z" fill="white" fill-opacity="0.32"/>
<path d="M38.3787 25.7221C38.384 25.6686 38.4014 25.6223 38.4311 25.5832C38.4607 25.5442 38.501 25.5151 38.5521 25.4962C38.6037 25.4778 38.6631 25.472 38.7302 25.4786C38.7973 25.4852 38.8541 25.5025 38.9006 25.5304C38.9476 25.559 38.9818 25.5954 39.0032 25.6395C39.0247 25.6836 39.0328 25.7324 39.0275 25.7859C39.0223 25.8387 39.0049 25.8847 38.9753 25.9238C38.9457 25.9629 38.905 25.9916 38.8534 26.0099C38.8024 26.0289 38.7433 26.0351 38.6761 26.0285C38.609 26.0219 38.5519 26.0043 38.505 25.9756C38.4585 25.9477 38.4246 25.9117 38.4031 25.8676C38.3816 25.8234 38.3735 25.775 38.3787 25.7221ZM38.5231 25.7363C38.5202 25.766 38.5321 25.7908 38.559 25.8109C38.5863 25.8316 38.6312 25.845 38.6936 25.8511C38.756 25.8572 38.8023 25.8528 38.8326 25.8378C38.8634 25.8234 38.8802 25.8014 38.8832 25.7717C38.8861 25.7414 38.8739 25.7159 38.8466 25.6952C38.8198 25.6751 38.7752 25.6621 38.7128 25.6559C38.6504 25.6498 38.6038 25.6539 38.573 25.6683C38.5427 25.6833 38.5261 25.706 38.5231 25.7363Z" fill="white" fill-opacity="0.32"/>
<path d="M38.5953 28.0507L37.9853 27.9062L38.0262 27.7336L38.5029 27.8466L38.5297 27.7333L38.663 27.7649L38.5953 28.0507Z" fill="white" fill-opacity="0.32"/>
<path d="M37.4249 29.5163C37.4444 29.4662 37.4737 29.4264 37.5127 29.3967C37.5518 29.3671 37.5985 29.35 37.6528 29.3455C37.7074 29.3418 37.7661 29.3521 37.829 29.3766C37.8919 29.401 37.9419 29.433 37.9791 29.4724C38.0166 29.5126 38.0398 29.5569 38.0486 29.6051C38.0574 29.6534 38.052 29.7025 38.0325 29.7526C38.0133 29.8021 37.9841 29.8417 37.945 29.8714C37.906 29.901 37.8591 29.9177 37.8045 29.9214C37.7502 29.926 37.6916 29.916 37.6287 29.8915C37.5659 29.8671 37.5157 29.8348 37.4781 29.7945C37.441 29.7551 37.418 29.7112 37.4092 29.663C37.4004 29.6147 37.4056 29.5658 37.4249 29.5163ZM37.5601 29.5689C37.5493 29.5967 37.5541 29.6239 37.5745 29.6504C37.5953 29.6777 37.6349 29.7027 37.6933 29.7254C37.7518 29.7482 37.7976 29.7564 37.8308 29.7501C37.8643 29.7445 37.8865 29.7279 37.8973 29.7C37.9084 29.6717 37.9035 29.6438 37.8827 29.6165C37.8623 29.59 37.8228 29.5654 37.7644 29.5427C37.706 29.5199 37.66 29.5113 37.6265 29.5169C37.5933 29.5232 37.5712 29.5405 37.5601 29.5689Z" fill="white" fill-opacity="0.32"/>
<path d="M37.004 31.8201L36.4557 31.5161L36.5417 31.361L36.9701 31.5986L37.0266 31.4968L37.1464 31.5632L37.004 31.8201Z" fill="white" fill-opacity="0.32"/>
<path d="M35.4846 32.9079C35.5169 32.8649 35.5558 32.8344 35.6014 32.8164C35.647 32.7984 35.6966 32.7945 35.7501 32.8047C35.8037 32.8158 35.8575 32.8416 35.9115 32.8821C35.9654 32.9225 36.005 32.9668 36.0302 33.0148C36.0555 33.0636 36.0659 33.1124 36.0614 33.1613C36.0569 33.2101 36.0385 33.256 36.0063 33.299C35.9744 33.3415 35.9357 33.3718 35.8901 33.3898C35.8444 33.4079 35.7948 33.4114 35.7412 33.4003C35.6877 33.39 35.634 33.3646 35.58 33.3242C35.526 33.2837 35.4864 33.239 35.4611 33.1902C35.4358 33.1422 35.4255 33.0938 35.43 33.045C35.4346 32.9961 35.4528 32.9505 35.4846 32.9079ZM35.6007 32.995C35.5828 33.0188 35.5801 33.0463 35.5927 33.0774C35.6053 33.1092 35.6367 33.144 35.6869 33.1816C35.7371 33.2192 35.779 33.2394 35.8126 33.2423C35.8464 33.246 35.8723 33.2359 35.8902 33.212C35.9085 33.1876 35.9113 33.1595 35.8986 33.1276C35.8861 33.0966 35.8547 33.0623 35.8046 33.0247C35.7544 32.9871 35.7124 32.9664 35.6786 32.9627C35.645 32.9598 35.619 32.9706 35.6007 32.995Z" fill="white" fill-opacity="0.32"/>
<path d="M34.0741 34.4741C34.1124 34.4365 34.1554 34.4121 34.2032 34.4011C34.251 34.3902 34.3006 34.3937 34.352 34.4119C34.4033 34.4309 34.4526 34.4645 34.4999 34.5126C34.5472 34.5607 34.5797 34.6104 34.5974 34.6616C34.6151 34.7137 34.6181 34.7635 34.6063 34.8111C34.5945 34.8588 34.5694 34.9014 34.5311 34.9391C34.4932 34.9763 34.4504 35.0004 34.4026 35.0114C34.3548 35.0224 34.3052 35.0184 34.2538 34.9994C34.2025 34.9812 34.1532 34.9481 34.1059 34.9C34.0586 34.8519 34.0261 34.8018 34.0084 34.7497C33.9907 34.6984 33.9877 34.649 33.9995 34.6014C34.0113 34.5538 34.0362 34.5114 34.0741 34.4741ZM34.1758 34.5776C34.1545 34.5985 34.1477 34.6253 34.1554 34.6578C34.1632 34.6913 34.189 34.7303 34.233 34.775C34.2769 34.8197 34.3153 34.846 34.3482 34.8539C34.381 34.8626 34.4081 34.8565 34.4294 34.8356C34.4511 34.8143 34.4581 34.7869 34.4504 34.7535C34.4426 34.7209 34.4168 34.6822 34.3728 34.6375C34.3289 34.5928 34.2905 34.5661 34.2576 34.5574C34.2248 34.5495 34.1975 34.5562 34.1758 34.5776Z" fill="white" fill-opacity="0.32"/>
<path d="M32.458 35.8153C32.5014 35.7835 32.5475 35.7657 32.5964 35.7618C32.6453 35.7578 32.6938 35.7685 32.742 35.7939C32.79 35.8202 32.834 35.8605 32.8738 35.915C32.9136 35.9694 32.9386 36.0233 32.9487 36.0766C32.9587 36.1307 32.9544 36.1804 32.9358 36.2258C32.9172 36.2712 32.8863 36.3097 32.8429 36.3415C32.8 36.3728 32.7541 36.3905 32.7052 36.3945C32.6563 36.3984 32.6079 36.3873 32.5598 36.361C32.5116 36.3356 32.4676 36.2957 32.4278 36.2412C32.388 36.1868 32.3631 36.1325 32.3531 36.0784C32.343 36.0251 32.3472 35.9758 32.3658 35.9304C32.3844 35.885 32.4151 35.8466 32.458 35.8153ZM32.5436 35.9324C32.5195 35.95 32.509 35.9755 32.5119 36.0088C32.5147 36.043 32.5346 36.0854 32.5716 36.136C32.6087 36.1866 32.6429 36.2182 32.6742 36.2307C32.7055 36.2441 32.7331 36.242 32.7572 36.2244C32.7818 36.2064 32.7927 36.1803 32.7899 36.1461C32.7869 36.1128 32.767 36.0708 32.7299 36.0202C32.6929 35.9696 32.6588 35.9376 32.6276 35.9242C32.5962 35.9117 32.5682 35.9144 32.5436 35.9324Z" fill="white" fill-opacity="0.32"/>
<path d="M30.802 37.5548L30.5055 37.0025L30.6617 36.9187L30.8934 37.3502L30.996 37.2952L31.0608 37.4159L30.802 37.5548Z" fill="white" fill-opacity="0.32"/>
<path d="M28.9425 37.646C28.9929 37.6274 29.0421 37.6229 29.0902 37.6325C29.1383 37.642 29.182 37.6656 29.2214 37.7033C29.2605 37.7417 29.2917 37.7925 29.3151 37.8558C29.3385 37.9191 29.3478 37.9777 29.3429 38.0317C29.3377 38.0864 29.3199 38.1331 29.2896 38.1717C29.2594 38.2103 29.219 38.2389 29.1686 38.2575C29.1188 38.2759 29.0698 38.2804 29.0217 38.2708C28.9736 38.2612 28.93 38.2372 28.891 38.1988C28.8516 38.1612 28.8202 38.1107 28.7968 38.0475C28.7734 37.9842 28.7643 37.9252 28.7695 37.8704C28.7744 37.8164 28.792 37.7701 28.8223 37.7316C28.8526 37.693 28.8926 37.6645 28.9425 37.646ZM28.9928 37.7821C28.9648 37.7925 28.9476 37.8141 28.9413 37.847C28.9347 37.8806 28.9422 37.9268 28.964 37.9856C28.9857 38.0444 29.01 38.0842 29.0367 38.1048C29.0631 38.1263 29.0903 38.1318 29.1183 38.1214C29.1468 38.1109 29.1644 38.0888 29.1711 38.0551C29.1774 38.0222 29.1697 37.9764 29.1479 37.9176C29.1262 37.8588 29.1021 37.8187 29.0757 37.7973C29.049 37.7766 29.0213 37.7715 28.9928 37.7821Z" fill="white" fill-opacity="0.32"/>
<path d="M26.9321 38.8549L26.7969 38.2428L26.97 38.2046L27.0757 38.6829L27.1893 38.6578L27.2189 38.7916L26.9321 38.8549Z" fill="white" fill-opacity="0.32"/>
<path d="M25.1116 38.4366C25.1651 38.4324 25.2137 38.4414 25.2574 38.4637C25.3011 38.486 25.3368 38.5206 25.3644 38.5675C25.3916 38.6151 25.4078 38.6725 25.4131 38.7398C25.4184 38.807 25.4114 38.866 25.392 38.9166C25.3721 38.9679 25.3423 39.008 25.3027 39.0368C25.263 39.0657 25.2164 39.0823 25.1629 39.0865C25.1099 39.0907 25.0616 39.0816 25.0179 39.0593C24.9742 39.037 24.9388 39.0021 24.9117 38.9545C24.884 38.9076 24.8675 38.8505 24.8622 38.7832C24.8569 38.716 24.8642 38.6567 24.8841 38.6054C24.9035 38.5548 24.933 38.5151 24.9726 38.4862C25.0123 38.4573 25.0586 38.4408 25.1116 38.4366ZM25.123 38.5812C25.0932 38.5836 25.0708 38.5997 25.0558 38.6296C25.0403 38.6602 25.035 38.7067 25.0399 38.7692C25.0448 38.8317 25.0573 38.8765 25.0775 38.9037C25.097 38.9315 25.1217 38.9442 25.1514 38.9419C25.1818 38.9395 25.2047 38.923 25.2203 38.8924C25.2353 38.8625 25.2403 38.8163 25.2354 38.7538C25.2305 38.6913 25.2182 38.6462 25.1987 38.6184C25.1786 38.5912 25.1533 38.5788 25.123 38.5812Z" fill="white" fill-opacity="0.32"/>
<path d="M23.0082 38.4202C23.0618 38.4238 23.1086 38.4399 23.1485 38.4684C23.1884 38.4969 23.2186 38.5364 23.2391 38.5869C23.2589 38.6379 23.2665 38.6971 23.2619 38.7644C23.2572 38.8317 23.2416 38.8889 23.215 38.9362C23.1878 38.984 23.1525 39.0193 23.109 39.042C23.0656 39.0647 23.017 39.0743 22.9634 39.0706C22.9104 39.0669 22.8639 39.0509 22.824 39.0224C22.7841 38.9939 22.7542 38.9541 22.7344 38.9031C22.7139 38.8526 22.706 38.7937 22.7106 38.7264C22.7153 38.6591 22.7312 38.6016 22.7584 38.5538C22.785 38.5065 22.82 38.4715 22.8635 38.4488C22.9069 38.4261 22.9552 38.4165 23.0082 38.4202ZM22.9982 38.5649C22.9684 38.5628 22.9439 38.5755 22.9247 38.6029C22.9048 38.6309 22.8927 38.6761 22.8884 38.7387C22.8841 38.8012 22.8899 38.8474 22.9058 38.8772C22.9211 38.9076 22.9436 38.9238 22.9734 38.9258C23.0038 38.9279 23.0289 38.915 23.0488 38.887C23.068 38.8596 23.0798 38.8147 23.0841 38.7521C23.0884 38.6896 23.0829 38.6431 23.0676 38.6128C23.0517 38.5829 23.0286 38.567 22.9982 38.5649Z" fill="white" fill-opacity="0.32"/>
<path d="M20.6876 38.7024L20.8144 38.0884L20.988 38.1243L20.8889 38.604L21.003 38.6276L20.9753 38.7618L20.6876 38.7024Z" fill="white" fill-opacity="0.32"/>
<path d="M19.1942 37.5759C19.2449 37.5939 19.2855 37.622 19.3163 37.6602C19.3471 37.6984 19.3655 37.7446 19.3716 37.7987C19.3769 37.8532 19.3683 37.9122 19.3457 37.9758C19.3231 38.0394 19.2926 38.0903 19.2543 38.1286C19.2151 38.1673 19.1716 38.1917 19.1236 38.2019C19.0756 38.2121 19.0263 38.2082 18.9757 38.1902C18.9257 38.1724 18.8852 38.1444 18.8545 38.1062C18.8237 38.068 18.8057 38.0216 18.8003 37.9672C18.7942 37.913 18.8025 37.8542 18.8251 37.7906C18.8477 37.7271 18.8786 37.6759 18.9177 37.6372C18.956 37.5989 18.9992 37.5747 19.0472 37.5645C19.0951 37.5543 19.1442 37.5581 19.1942 37.5759ZM19.1456 37.7126C19.1175 37.7026 19.0905 37.7082 19.0645 37.7294C19.0379 37.751 19.014 37.7913 18.993 37.8503C18.972 37.9094 18.9651 37.9554 18.9724 37.9884C18.9789 38.0218 18.9962 38.0435 19.0243 38.0535C19.053 38.0637 19.0807 38.058 19.1074 38.0365C19.1333 38.0153 19.1568 37.9751 19.1778 37.9161C19.1988 37.857 19.206 37.8108 19.1995 37.7774C19.1923 37.7444 19.1743 37.7228 19.1456 37.7126Z" fill="white" fill-opacity="0.32"/>
<path d="M16.8921 37.2243L17.1798 36.6674L17.3374 36.7488L17.1125 37.184L17.2159 37.2374L17.1531 37.3592L16.8921 37.2243Z" fill="white" fill-opacity="0.32"/>
<path d="M15.2817 36.1919L15.6388 35.6766L15.7845 35.7776L15.5055 36.1802L15.6012 36.2466L15.5231 36.3592L15.2817 36.1919Z" fill="white" fill-opacity="0.32"/>
<path d="M13.8367 34.9759L14.2563 34.5102L14.3881 34.6289L14.0602 34.9928L14.1466 35.0707L14.0549 35.1725L13.8367 34.9759Z" fill="white" fill-opacity="0.32"/>
<path d="M12.5687 33.6059L13.0432 33.1963L13.1591 33.3305L12.7883 33.6506L12.8643 33.7387L12.7606 33.8282L12.5687 33.6059Z" fill="white" fill-opacity="0.32"/>
<path d="M12.067 31.7959C12.0961 31.841 12.1113 31.8881 12.1124 31.9371C12.1135 31.9862 12.1 32.034 12.0719 32.0806C12.0429 32.1271 12.0001 32.1686 11.9434 32.2052C11.8867 32.2419 11.8315 32.2637 11.7778 32.2707C11.7232 32.2775 11.6738 32.2704 11.6295 32.2492C11.5853 32.228 11.5486 32.1949 11.5194 32.1498C11.4906 32.1051 11.4756 32.0583 11.4745 32.0093C11.4733 31.9602 11.4873 31.9125 11.5163 31.8661C11.5444 31.8194 11.5868 31.7778 11.6435 31.7412C11.7001 31.7046 11.7558 31.6828 11.8103 31.676C11.8641 31.669 11.9131 31.676 11.9573 31.6972C12.0016 31.7184 12.0381 31.7513 12.067 31.7959ZM11.9451 31.8746C11.9289 31.8496 11.9041 31.8375 11.8706 31.8386C11.8363 31.8394 11.7929 31.8568 11.7402 31.8909C11.6876 31.9249 11.6541 31.9572 11.6397 31.9878C11.6245 32.0182 11.6251 32.046 11.6413 32.071C11.6578 32.0966 11.6832 32.109 11.7175 32.1081C11.751 32.1071 11.794 32.0896 11.8467 32.0556C11.8993 32.0215 11.9332 31.9893 11.9484 31.9589C11.9627 31.9283 11.9617 31.9002 11.9451 31.8746Z" fill="white" fill-opacity="0.32"/>
<path d="M10.4193 30.0543L10.9879 29.7902L11.0626 29.951L10.6183 30.1574L10.6674 30.2629L10.5431 30.3207L10.4193 30.0543Z" fill="white" fill-opacity="0.32"/>
<path d="M9.78852 28.281L10.3858 28.0907L10.4396 28.2597L9.9729 28.4084L10.0082 28.5193L9.87768 28.5609L9.78852 28.281Z" fill="white" fill-opacity="0.32"/>
<path d="M10.0306 26.4029C10.0396 26.4559 10.0349 26.5051 10.0166 26.5506C9.9983 26.5961 9.96702 26.6348 9.92276 26.6665C9.87781 26.6978 9.82208 26.7191 9.75557 26.7304C9.68906 26.7417 9.62972 26.74 9.57755 26.7252C9.5247 26.71 9.48212 26.6839 9.4498 26.647C9.41749 26.6101 9.39683 26.5652 9.38783 26.5122C9.37892 26.4598 9.38362 26.4109 9.40193 26.3654C9.42023 26.3199 9.45186 26.2815 9.49681 26.2502C9.54107 26.2185 9.59646 26.1969 9.66297 26.1856C9.72948 26.1743 9.78916 26.1763 9.84201 26.1915C9.89418 26.2063 9.93642 26.2321 9.96873 26.269C10.001 26.3059 10.0217 26.3505 10.0306 26.4029ZM9.88753 26.4272C9.88253 26.3978 9.86445 26.377 9.8333 26.3647C9.80146 26.3519 9.75463 26.3508 9.69283 26.3613C9.63103 26.3718 9.58751 26.3883 9.56226 26.4108C9.53632 26.4328 9.52585 26.4585 9.53085 26.4879C9.53595 26.5179 9.55443 26.5393 9.58627 26.552C9.61742 26.5643 9.6639 26.5652 9.7257 26.5547C9.7875 26.5442 9.83137 26.5279 9.85731 26.506C9.88256 26.4835 9.89264 26.4573 9.88753 26.4272Z" fill="white" fill-opacity="0.32"/>
<path d="M9.85949 24.3661C9.86074 24.4199 9.84901 24.4679 9.82432 24.5103C9.79962 24.5527 9.76308 24.5864 9.71469 24.6114C9.66569 24.6358 9.60747 24.6488 9.54002 24.6504C9.47257 24.6519 9.41411 24.6416 9.36463 24.6195C9.31453 24.5968 9.27617 24.5648 9.24953 24.5236C9.2229 24.4824 9.20896 24.435 9.20771 24.3813C9.20648 24.3281 9.21821 24.2804 9.24291 24.238C9.2676 24.1956 9.30445 24.1622 9.35345 24.1378C9.40184 24.1128 9.45976 24.0995 9.5272 24.098C9.59465 24.0964 9.65342 24.107 9.70351 24.1297C9.753 24.1518 9.79106 24.1835 9.81769 24.2247C9.84432 24.2659 9.85826 24.313 9.85949 24.3661ZM9.71445 24.3695C9.71376 24.3397 9.69889 24.3164 9.66984 24.2998C9.64017 24.2826 9.59401 24.2747 9.53134 24.2761C9.46867 24.2776 9.42321 24.2876 9.39498 24.3062C9.36613 24.3241 9.35206 24.3481 9.35275 24.3779C9.35346 24.4083 9.36864 24.4322 9.3983 24.4494C9.42735 24.466 9.47322 24.4736 9.53589 24.4722C9.59856 24.4707 9.64431 24.461 9.67316 24.443C9.70139 24.4245 9.71516 24.4 9.71445 24.3695Z" fill="white" fill-opacity="0.32"/>
<path d="M9.36624 22.0192L9.98889 22.0919L9.96832 22.268L9.48177 22.2112L9.46827 22.3268L9.33217 22.311L9.36624 22.0192Z" fill="white" fill-opacity="0.32"/>
<path d="M10.3433 20.4778C10.33 20.5299 10.3057 20.5729 10.2704 20.6071C10.2352 20.6412 10.1909 20.6637 10.1375 20.6747C10.0837 20.6849 10.0242 20.6817 9.95882 20.6649C9.89347 20.6482 9.83997 20.6225 9.79833 20.5878C9.75625 20.5523 9.72797 20.5112 9.71348 20.4643C9.69899 20.4175 9.69841 20.368 9.71175 20.316C9.72494 20.2645 9.74916 20.2217 9.78441 20.1876C9.81965 20.1535 9.86416 20.1313 9.91795 20.121C9.9713 20.1101 10.0307 20.1129 10.096 20.1297C10.1614 20.1464 10.2151 20.1725 10.2571 20.208C10.2988 20.2427 10.3268 20.2835 10.3413 20.3303C10.3558 20.3772 10.3565 20.4263 10.3433 20.4778ZM10.2028 20.4418C10.2102 20.4129 10.2021 20.3865 10.1787 20.3626C10.1548 20.338 10.1125 20.3179 10.0518 20.3023C9.99103 20.2868 9.94457 20.2841 9.91236 20.2943C9.87972 20.3038 9.8597 20.3231 9.85229 20.352C9.84473 20.3815 9.85289 20.4085 9.87678 20.4331C9.90025 20.457 9.94234 20.4767 10.0031 20.4923C10.0638 20.5079 10.1105 20.5109 10.1431 20.5014C10.1753 20.4912 10.1952 20.4713 10.2028 20.4418Z" fill="white" fill-opacity="0.32"/>
<path d="M11.023 18.5148C11.0023 18.5644 10.972 18.6035 10.9322 18.6321C10.8923 18.6608 10.8452 18.6766 10.7909 18.6798C10.7362 18.6821 10.6777 18.6703 10.6155 18.6442C10.5532 18.6182 10.504 18.585 10.4679 18.5446C10.4314 18.5034 10.4094 18.4586 10.4018 18.4101C10.3943 18.3617 10.4009 18.3127 10.4216 18.2631C10.4421 18.2141 10.4723 18.1753 10.5121 18.1466C10.5519 18.118 10.5992 18.1025 10.6539 18.1001C10.7083 18.097 10.7666 18.1085 10.8288 18.1345C10.891 18.1606 10.9404 18.1942 10.9769 18.2353C11.0131 18.2757 11.0349 18.3201 11.0425 18.3686C11.05 18.4171 11.0435 18.4658 11.023 18.5148ZM10.8892 18.4588C10.9007 18.4313 10.8966 18.404 10.8768 18.3769C10.8568 18.3491 10.8178 18.3231 10.76 18.2989C10.7022 18.2747 10.6566 18.2653 10.6232 18.2708C10.5896 18.2755 10.567 18.2916 10.5554 18.3191C10.5437 18.3472 10.5478 18.3751 10.5679 18.403C10.5877 18.43 10.6265 18.4556 10.6843 18.4798C10.7421 18.504 10.7879 18.5138 10.8215 18.5091C10.8549 18.5037 10.8774 18.4869 10.8892 18.4588Z" fill="white" fill-opacity="0.32"/>
<path d="M11.5317 16.1627L12.0708 16.4827L11.9803 16.6352L11.559 16.3851L11.4996 16.4852L11.3818 16.4153L11.5317 16.1627Z" fill="white" fill-opacity="0.32"/>
<path d="M13.0736 15.1227C13.0401 15.1647 13.0003 15.1941 12.9542 15.2107C12.9081 15.2274 12.8584 15.2298 12.8053 15.2179C12.752 15.2052 12.699 15.1779 12.6462 15.1358C12.5935 15.0937 12.5553 15.0483 12.5315 14.9996C12.5076 14.95 12.4987 14.9009 12.5047 14.8522C12.5107 14.8036 12.5304 14.7582 12.5639 14.7162C12.5971 14.6747 12.6367 14.6456 12.6828 14.6289C12.729 14.6122 12.7786 14.6102 12.8319 14.6229C12.8851 14.6348 12.938 14.6617 12.9908 14.7038C13.0435 14.7459 13.0818 14.7917 13.1057 14.8413C13.1294 14.89 13.1383 14.9387 13.1323 14.9874C13.1263 15.0361 13.1068 15.0812 13.0736 15.1227ZM12.9602 15.0322C12.9788 15.0089 12.9823 14.9815 12.9707 14.9501C12.959 14.9179 12.9287 14.8822 12.8797 14.8431C12.8306 14.8041 12.7893 14.7826 12.7558 14.7787C12.7221 14.774 12.696 14.7833 12.6774 14.8067C12.6584 14.8305 12.6547 14.8585 12.6664 14.8907C12.678 14.9221 12.7084 14.9574 12.7574 14.9965C12.8064 15.0356 12.8477 15.0575 12.8814 15.0622C12.915 15.066 12.9412 15.0561 12.9602 15.0322Z" fill="white" fill-opacity="0.32"/>
<path d="M14.116 13.09L14.5486 13.5437L14.4203 13.6661L14.0822 13.3115L13.9979 13.3919L13.9034 13.2927L14.116 13.09Z" fill="white" fill-opacity="0.32"/>
<path d="M15.8888 12.4925C15.8452 12.5239 15.7989 12.5414 15.75 12.5449C15.7011 12.5485 15.6526 12.5374 15.6047 12.5116C15.5568 12.485 15.5132 12.4443 15.4738 12.3896C15.4344 12.3348 15.4098 12.2808 15.4001 12.2274C15.3906 12.1732 15.3952 12.1235 15.4142 12.0783C15.4331 12.033 15.4643 11.9947 15.508 11.9633C15.5511 11.9323 15.5971 11.915 15.646 11.9114C15.6949 11.9078 15.7433 11.9193 15.7912 11.946C15.8391 11.9718 15.8828 12.012 15.9222 12.0668C15.9617 12.1215 15.9861 12.176 15.9957 12.2302C16.0054 12.2835 16.0008 12.3328 15.9819 12.378C15.963 12.4233 15.9319 12.4614 15.8888 12.4925ZM15.8041 12.3747C15.8283 12.3573 15.8391 12.3319 15.8364 12.2985C15.8338 12.2643 15.8142 12.2218 15.7776 12.1709C15.741 12.12 15.707 12.0882 15.6758 12.0754C15.6446 12.0617 15.6169 12.0636 15.5927 12.0811C15.568 12.0989 15.5569 12.1249 15.5595 12.1591C15.5622 12.1924 15.5818 12.2346 15.6184 12.2855C15.655 12.3363 15.6889 12.3686 15.7201 12.3822C15.7513 12.395 15.7793 12.3925 15.8041 12.3747Z" fill="white" fill-opacity="0.32"/>
<path d="M17.5473 10.7607L17.8396 11.3153L17.6827 11.398L17.4543 10.9646L17.3513 11.0189L17.2875 10.8976L17.5473 10.7607Z" fill="white" fill-opacity="0.32"/>
<path d="M19.4591 10.6536C19.4085 10.6718 19.3593 10.676 19.3112 10.666C19.2632 10.6561 19.2196 10.6321 19.1805 10.5942C19.1418 10.5555 19.111 10.5044 19.0881 10.441C19.0652 10.3775 19.0563 10.3188 19.0616 10.2649C19.0672 10.2101 19.0853 10.1636 19.1159 10.1253C19.1465 10.0869 19.1871 10.0586 19.2376 10.0404C19.2876 10.0223 19.3366 10.0183 19.3846 10.0282C19.4326 10.0382 19.476 10.0625 19.5147 10.1012C19.5538 10.1391 19.5848 10.1898 19.6078 10.2533C19.6307 10.3167 19.6393 10.3758 19.6337 10.4305C19.6284 10.4845 19.6105 10.5306 19.5799 10.569C19.5493 10.6073 19.509 10.6355 19.4591 10.6536ZM19.4098 10.5171C19.4379 10.507 19.4552 10.4855 19.4617 10.4526C19.4686 10.419 19.4614 10.3728 19.4401 10.3138C19.4189 10.2548 19.3949 10.2149 19.3683 10.1941C19.3421 10.1724 19.315 10.1667 19.2869 10.1768C19.2583 10.1872 19.2405 10.2091 19.2336 10.2427C19.227 10.2756 19.2344 10.3215 19.2557 10.3804C19.277 10.4394 19.3007 10.4797 19.327 10.5013C19.3535 10.5222 19.3812 10.5275 19.4098 10.5171Z" fill="white" fill-opacity="0.32"/>
<path d="M21.442 9.462L21.5726 10.0751L21.3992 10.1121L21.2972 9.63294L21.1833 9.65719L21.1547 9.52317L21.442 9.462Z" fill="white" fill-opacity="0.32"/>
<path d="M23.2688 9.88521C23.2152 9.88904 23.1666 9.87964 23.1231 9.85701C23.0796 9.83439 23.0442 9.79951 23.0168 9.75238C22.9901 9.70461 22.9743 9.64708 22.9695 9.57979C22.9647 9.51249 22.9722 9.4536 22.9919 9.40311C23.0122 9.35198 23.0423 9.31213 23.0821 9.28354C23.122 9.25495 23.1687 9.23875 23.2223 9.23492C23.2753 9.23113 23.3235 9.24055 23.3671 9.26318C23.4106 9.28581 23.4457 9.32101 23.4725 9.36877C23.4998 9.4159 23.5158 9.47312 23.5206 9.54041C23.5255 9.6077 23.5177 9.66691 23.4974 9.71804C23.4777 9.76853 23.4479 9.80807 23.408 9.83666C23.3682 9.86524 23.3218 9.88143 23.2688 9.88521ZM23.2584 9.7405C23.2882 9.73838 23.3107 9.7224 23.3259 9.69259C23.3417 9.66213 23.3474 9.61564 23.3429 9.55311C23.3384 9.49058 23.3262 9.44566 23.3063 9.41835C23.287 9.39041 23.2624 9.3775 23.2326 9.37963C23.2023 9.3818 23.1792 9.39811 23.1634 9.42857C23.1482 9.45838 23.1428 9.50456 23.1473 9.56709C23.1517 9.62961 23.1636 9.67485 23.183 9.7028C23.2029 9.73011 23.228 9.74267 23.2584 9.7405Z" fill="white" fill-opacity="0.32"/>
<path d="M25.3758 9.91101C25.3222 9.90692 25.2756 9.8905 25.2358 9.86172C25.1961 9.83295 25.1662 9.79325 25.1461 9.74262C25.1267 9.69144 25.1195 9.63222 25.1246 9.56495C25.1298 9.49768 25.1458 9.44052 25.1727 9.39348C25.2003 9.34588 25.2359 9.31087 25.2795 9.28845C25.3231 9.26603 25.3717 9.25685 25.4253 9.26094C25.4783 9.26497 25.5247 9.28138 25.5644 9.31015C25.6041 9.33892 25.6337 9.3789 25.6531 9.43008C25.6732 9.48071 25.6807 9.53966 25.6756 9.60693C25.6705 9.6742 25.6541 9.73163 25.6265 9.77922C25.5996 9.82627 25.5643 9.861 25.5207 9.88343C25.4771 9.90585 25.4288 9.91504 25.3758 9.91101ZM25.3868 9.76635C25.4166 9.76862 25.4412 9.75612 25.4606 9.72886C25.4807 9.70105 25.4931 9.65589 25.4979 9.59339C25.5027 9.53088 25.4972 9.48466 25.4815 9.45472C25.4665 9.42424 25.4441 9.40786 25.4143 9.4056C25.3839 9.40328 25.3587 9.41603 25.3386 9.44384C25.3192 9.4711 25.3071 9.51598 25.3023 9.57849C25.2976 9.64099 25.3027 9.68749 25.3178 9.71798C25.3334 9.74791 25.3565 9.76403 25.3868 9.76635Z" fill="white" fill-opacity="0.32"/>
<path d="M27.6696 9.63441L27.5384 10.2474L27.365 10.2103L27.4675 9.73127L27.3537 9.70689L27.3824 9.57291L27.6696 9.63441Z" fill="white" fill-opacity="0.32"/>
<path d="M29.2019 10.7765C29.1514 10.7581 29.1109 10.7297 29.0804 10.6913C29.0499 10.6529 29.0318 10.6066 29.0261 10.5524C29.0212 10.4979 29.0303 10.439 29.0533 10.3756C29.0764 10.3122 29.1072 10.2614 29.1459 10.2234C29.1853 10.185 29.229 10.1609 29.277 10.1511C29.3251 10.1412 29.3744 10.1455 29.4248 10.1639C29.4748 10.182 29.515 10.2103 29.5455 10.2488C29.576 10.2872 29.5937 10.3336 29.5986 10.3882C29.6043 10.4423 29.5956 10.5011 29.5726 10.5645C29.5495 10.6279 29.5183 10.6788 29.4789 10.7172C29.4402 10.7553 29.3969 10.7792 29.3489 10.789C29.3008 10.7989 29.2518 10.7947 29.2019 10.7765ZM29.2515 10.6402C29.2795 10.6504 29.3066 10.645 29.3327 10.624C29.3595 10.6026 29.3837 10.5625 29.4051 10.5036C29.4265 10.4447 29.4337 10.3987 29.4267 10.3656C29.4204 10.3322 29.4033 10.3104 29.3752 10.3002C29.3466 10.2898 29.3189 10.2953 29.2921 10.3166C29.266 10.3376 29.2422 10.3776 29.2208 10.4365C29.1994 10.4954 29.1918 10.5416 29.198 10.575C29.2051 10.608 29.2229 10.6298 29.2515 10.6402Z" fill="white" fill-opacity="0.32"/>
<path d="M31.4888 11.1339L31.197 11.6887L31.0401 11.6062L31.2681 11.1727L31.1651 11.1185L31.2288 10.9972L31.4888 11.1339Z" fill="white" fill-opacity="0.32"/>
<path d="M32.6677 12.6602C32.6241 12.6288 32.5929 12.5905 32.574 12.5452C32.5551 12.4999 32.5503 12.4505 32.5596 12.3968C32.5696 12.343 32.5944 12.2887 32.6339 12.234C32.6733 12.1793 32.7168 12.1389 32.7643 12.1128C32.8127 12.0865 32.8613 12.0752 32.9102 12.0789C32.9592 12.0825 33.0054 12.1 33.049 12.1314C33.0921 12.1625 33.1231 12.2007 33.142 12.2459C33.1609 12.2912 33.1652 12.3407 33.1552 12.3945C33.1459 12.4482 33.1215 12.5024 33.0821 12.5571C33.0426 12.6119 32.9987 12.6523 32.9504 12.6786C32.9029 12.7047 32.8546 12.7159 32.8057 12.7123C32.7568 12.7087 32.7108 12.6913 32.6677 12.6602ZM32.7525 12.5426C32.7768 12.56 32.8043 12.5622 32.8351 12.5491C32.8667 12.5358 32.9009 12.5038 32.9375 12.4529C32.9742 12.4021 32.9936 12.3598 32.9959 12.3261C32.9989 12.2922 32.9884 12.2666 32.9641 12.2491C32.9394 12.2313 32.9113 12.229 32.8796 12.2423C32.8488 12.2554 32.8151 12.2874 32.7784 12.3382C32.7418 12.3891 32.7219 12.4314 32.7188 12.4653C32.7166 12.499 32.7278 12.5248 32.7525 12.5426Z" fill="white" fill-opacity="0.32"/>
<path d="M34.2359 14.0092C34.1973 13.9717 34.172 13.9292 34.16 13.8817C34.1479 13.8342 34.1503 13.7845 34.1673 13.7328C34.1852 13.681 34.2176 13.6309 34.2646 13.5826C34.3117 13.5342 34.3606 13.5006 34.4114 13.4817C34.4631 13.4628 34.5128 13.4587 34.5607 13.4694C34.6085 13.4801 34.6517 13.5042 34.6903 13.5417C34.7284 13.5787 34.7535 13.621 34.7655 13.6685C34.7776 13.7161 34.7747 13.7657 34.7569 13.8175C34.7399 13.8692 34.7079 13.9193 34.6609 13.9677C34.6138 14.0161 34.5645 14.0497 34.5128 14.0686C34.462 14.0875 34.4127 14.0915 34.3648 14.0808C34.3169 14.0701 34.274 14.0462 34.2359 14.0092ZM34.337 13.9051C34.3584 13.926 34.3853 13.9321 34.4177 13.9236C34.4509 13.9151 34.4894 13.8884 34.5331 13.8435C34.5768 13.7985 34.6022 13.7595 34.6093 13.7265C34.6173 13.6934 34.6106 13.6665 34.5892 13.6457C34.5673 13.6245 34.5398 13.6181 34.5065 13.6266C34.4742 13.6351 34.4361 13.6618 34.3924 13.7068C34.3487 13.7517 34.3229 13.7907 34.3149 13.8238C34.3078 13.8568 34.3151 13.8839 34.337 13.9051Z" fill="white" fill-opacity="0.32"/>
<path d="M35.6291 15.6129C35.5965 15.5702 35.5778 15.5244 35.5729 15.4756C35.568 15.4268 35.5778 15.3781 35.6023 15.3294C35.6276 15.2809 35.6671 15.2362 35.7208 15.1953C35.7745 15.1544 35.8278 15.1284 35.8809 15.1173C35.9348 15.1063 35.9846 15.1096 36.0304 15.1273C36.0761 15.145 36.1152 15.1752 36.1478 15.218C36.18 15.2603 36.1985 15.3058 36.2034 15.3546C36.2083 15.4034 36.1981 15.4521 36.1728 15.5006C36.1483 15.5493 36.1092 15.594 36.0555 15.6349C36.0019 15.6758 35.9481 15.7017 35.8942 15.7127C35.8411 15.7239 35.7917 15.7206 35.746 15.7029C35.7002 15.6852 35.6613 15.6552 35.6291 15.6129ZM35.7445 15.525C35.7626 15.5488 35.7883 15.5589 35.8216 15.5553C35.8557 15.5518 35.8977 15.5311 35.9476 15.4931C35.9975 15.4551 36.0284 15.4204 36.0403 15.3887C36.0531 15.3572 36.0505 15.3296 36.0324 15.3059C36.0139 15.2816 35.9876 15.2713 35.9535 15.2747C35.9202 15.2783 35.8786 15.2991 35.8288 15.3371C35.7789 15.3751 35.7476 15.4098 35.7348 15.4413C35.7228 15.4729 35.7261 15.5008 35.7445 15.525Z" fill="white" fill-opacity="0.32"/>
<defs>
<filter id="filter0_d_1673_9651" x="12.1245" y="15.6057" width="24.3436" height="20.8632" filterUnits="userSpaceOnUse" color-interpolation-filters="sRGB">
<feFlood flood-opacity="0" result="BackgroundImageFix"/>
<feColorMatrix in="SourceAlpha" type="matrix" values="0 0 0 0 0 0 0 0 0 0 0 0 0 0 0 0 0 0 127 0" result="hardAlpha"/>
<feOffset dx="0.266008" dy="0.266008"/>
<feComposite in2="hardAlpha" operator="out"/>
<feColorMatrix type="matrix" values="0 0 0 0 0.115104 0 0 0 0 0.649472 0 0 0 0 0.8125 0 0 0 0.36 0"/>
<feBlend mode="normal" in2="BackgroundImageFix" result="effect1_dropShadow_1673_9651"/>
<feBlend mode="normal" in="SourceGraphic" in2="effect1_dropShadow_1673_9651" result="shape"/>
</filter>
<filter id="filter1_d_1673_9651" x="13.5952" y="12.7838" width="21.4169" height="22.2224" filterUnits="userSpaceOnUse" color-interpolation-filters="sRGB">
<feFlood flood-opacity="0" result="BackgroundImageFix"/>
<feColorMatrix in="SourceAlpha" type="matrix" values="0 0 0 0 0 0 0 0 0 0 0 0 0 0 0 0 0 0 127 0" result="hardAlpha"/>
<feOffset dx="0.266008" dy="0.266008"/>
<feComposite in2="hardAlpha" operator="out"/>
<feColorMatrix type="matrix" values="0 0 0 0 0.115104 0 0 0 0 0.649472 0 0 0 0 0.8125 0 0 0 0.36 0"/>
<feBlend mode="normal" in2="BackgroundImageFix" result="effect1_dropShadow_1673_9651"/>
<feBlend mode="normal" in="SourceGraphic" in2="effect1_dropShadow_1673_9651" result="shape"/>
</filter>
<filter id="filter2_d_1673_9651" x="15.0513" y="15.0519" width="18.4906" height="18.4906" filterUnits="userSpaceOnUse" color-interpolation-filters="sRGB">
<feFlood flood-opacity="0" result="BackgroundImageFix"/>
<feColorMatrix in="SourceAlpha" type="matrix" values="0 0 0 0 0 0 0 0 0 0 0 0 0 0 0 0 0 0 127 0" result="hardAlpha"/>
<feOffset dx="0.266008" dy="0.266008"/>
<feComposite in2="hardAlpha" operator="out"/>
<feColorMatrix type="matrix" values="0 0 0 0 0.115104 0 0 0 0 0.649472 0 0 0 0 0.8125 0 0 0 0.36 0"/>
<feBlend mode="normal" in2="BackgroundImageFix" result="effect1_dropShadow_1673_9651"/>
<feBlend mode="normal" in="SourceGraphic" in2="effect1_dropShadow_1673_9651" result="shape"/>
</filter>
<filter id="filter3_d_1673_9651" x="16.5166" y="16.5158" width="15.5643" height="15.564" filterUnits="userSpaceOnUse" color-interpolation-filters="sRGB">
<feFlood flood-opacity="0" result="BackgroundImageFix"/>
<feColorMatrix in="SourceAlpha" type="matrix" values="0 0 0 0 0 0 0 0 0 0 0 0 0 0 0 0 0 0 127 0" result="hardAlpha"/>
<feOffset dx="0.266008" dy="0.266008"/>
<feComposite in2="hardAlpha" operator="out"/>
<feColorMatrix type="matrix" values="0 0 0 0 0.115104 0 0 0 0 0.649472 0 0 0 0 0.8125 0 0 0 0.36 0"/>
<feBlend mode="normal" in2="BackgroundImageFix" result="effect1_dropShadow_1673_9651"/>
<feBlend mode="normal" in="SourceGraphic" in2="effect1_dropShadow_1673_9651" result="shape"/>
</filter>
<linearGradient id="paint0_linear_1673_9651" x1="6.47482" y1="6.47473" x2="41.8539" y2="41.8538" gradientUnits="userSpaceOnUse">
<stop stop-color="#47BDE1"/>
<stop offset="1" stop-color="#3DB1D5"/>
</linearGradient>
<linearGradient id="paint1_linear_1673_9651" x1="6.47482" y1="6.47473" x2="41.8539" y2="41.8538" gradientUnits="userSpaceOnUse">
<stop stop-color="white"/>
<stop offset="1" stop-color="#87DDF8"/>
</linearGradient>
<linearGradient id="paint2_linear_1673_9651" x1="8.13582" y1="8.13714" x2="40.1898" y2="40.1911" gradientUnits="userSpaceOnUse">
<stop stop-color="#039DCE" stop-opacity="0.69"/>
<stop offset="1" stop-color="#0294C2" stop-opacity="0.12"/>
</linearGradient>
<linearGradient id="paint3_linear_1673_9651" x1="8.08386" y1="19.8555" x2="40.2425" y2="28.4724" gradientUnits="userSpaceOnUse">
<stop stop-color="white" stop-opacity="0.35"/>
<stop offset="1" stop-color="#1099C5" stop-opacity="0"/>
</linearGradient>
<linearGradient id="paint4_linear_1673_9651" x1="8.4624" y1="18.1048" x2="38.6151" y2="28.0335" gradientUnits="userSpaceOnUse">
<stop stop-color="white" stop-opacity="0.35"/>
<stop offset="1" stop-color="#1099C5" stop-opacity="0"/>
</linearGradient>
<linearGradient id="paint5_linear_1673_9651" x1="12.0814" y1="20.9267" x2="36.2458" y2="27.4015" gradientUnits="userSpaceOnUse">
<stop stop-color="white" stop-opacity="0.35"/>
<stop offset="1" stop-color="#1099C5" stop-opacity="0"/>
</linearGradient>
<linearGradient id="paint6_linear_1673_9651" x1="13.7188" y1="21.3655" x2="34.6128" y2="26.9641" gradientUnits="userSpaceOnUse">
<stop stop-color="white" stop-opacity="0.35"/>
<stop offset="1" stop-color="#1099C5" stop-opacity="0"/>
</linearGradient>
<linearGradient id="paint7_linear_1673_9651" x1="17.5635" y1="22.609" x2="29.6296" y2="27.8366" gradientUnits="userSpaceOnUse">
<stop stop-color="#F5FDFF"/>
<stop offset="1" stop-color="#97E7FF"/>
</linearGradient>
</defs>
</svg>
