<svg width="225" height="225" viewBox="0 0 225 225" fill="none" xmlns="http://www.w3.org/2000/svg">
<g filter="url(#filter0_d_1673_9517)">
<circle cx="96.7094" cy="86.7097" r="61" transform="rotate(-15 96.7094 86.7097)" fill="url(#paint0_linear_1673_9517)"/>
<circle cx="96.7094" cy="86.7097" r="58.1335" transform="rotate(-15 96.7094 86.7097)" stroke="url(#paint1_linear_1673_9517)" stroke-width="5.73308"/>
</g>
<circle cx="96.7113" cy="86.7095" r="50.8559" transform="rotate(-15 96.7113 86.7095)" stroke="url(#paint2_linear_1673_9517)" stroke-width="8.82195"/>
<g filter="url(#filter1_d_1673_9517)">
<path d="M135.917 76.2041C141.719 97.8576 128.869 120.115 107.215 125.917C85.5617 131.719 63.3046 118.869 57.5025 97.2151C52.6556 79.1261 60.8254 60.6159 76.2702 51.6294" stroke="url(#paint3_linear_1673_9517)" stroke-width="1.83459" stroke-linecap="round" shape-rendering="crispEdges"/>
</g>
<g filter="url(#filter2_d_1673_9517)">
<path fill-rule="evenodd" clip-rule="evenodd" d="M85.0165 43.0729C85.5059 42.9418 86.0088 43.2322 86.14 43.7216L88.1609 51.264C89.0164 51.0572 89.8724 50.8826 90.7278 50.7393C90.4045 50.3314 90.1581 49.8529 90.0155 49.3207L88.9793 45.4535C88.8482 44.9642 89.1386 44.4612 89.6279 44.3301C90.1173 44.199 90.6203 44.4894 90.7514 44.9787L91.7876 48.8459C92.0143 49.6921 92.7348 50.2836 93.5659 50.3776C110.865 48.8604 127.28 59.9197 131.929 77.2732C137.141 96.7246 125.598 116.718 106.147 121.93C86.6952 127.142 66.7015 115.599 61.4895 96.1475C56.8399 78.7951 65.5247 61.0111 81.2626 53.6748C81.9367 53.1781 82.2657 52.3048 82.0388 51.4578L81.0026 47.5906C80.8714 47.1012 81.1618 46.5983 81.6512 46.4671C82.1405 46.336 82.6435 46.6264 82.7746 47.1158L83.8108 50.983C83.9535 51.5152 83.9793 52.053 83.9032 52.5681C84.7157 52.2644 85.5445 51.9876 86.3889 51.7388L84.3679 44.1964C84.2368 43.707 84.5272 43.2041 85.0165 43.0729ZM93.5741 52.2191C93.8769 52.2365 94.1861 52.2187 94.4967 52.1626L94.4939 52.1468C110.637 51.0946 125.811 61.5253 130.157 77.748C135.107 96.2208 124.145 115.208 105.672 120.158C87.1991 125.108 68.2113 114.145 63.2616 95.6727C58.9148 79.4503 66.8396 62.8307 81.3457 55.67L81.3509 55.6847C81.647 55.5783 81.9228 55.4397 82.1757 55.274C83.9432 54.4594 85.8036 53.7832 87.7472 53.2624C89.6894 52.742 91.6373 52.3975 93.5741 52.2191Z" fill="url(#paint4_linear_1673_9517)" shape-rendering="crispEdges"/>
</g>
<g filter="url(#filter3_d_1673_9517)">
<path d="M97.2021 56.2062C110.483 56.4138 122.562 65.3492 126.171 78.8161C130.53 95.0868 120.875 111.811 104.604 116.171C88.3333 120.531 71.609 110.875 67.2493 94.6041C63.6408 81.1371 69.6337 67.3594 81.0319 60.539" stroke="url(#paint5_linear_1673_9517)" stroke-width="1.83459" stroke-linecap="round" shape-rendering="crispEdges"/>
</g>
<g filter="url(#filter4_d_1673_9517)">
<path fill-rule="evenodd" clip-rule="evenodd" d="M90.36 63.0078C77.27 66.5152 69.5019 79.9701 73.0093 93.0601C76.5168 106.15 89.9716 113.918 103.062 110.411C116.152 106.903 123.92 93.4485 120.412 80.3585C116.905 67.2685 103.45 59.5003 90.36 63.0078ZM71.2372 93.5349C67.4676 79.4662 75.8165 65.0054 89.8852 61.2357C103.954 57.466 118.415 65.815 122.184 79.8837C125.954 93.9523 117.605 108.413 103.536 112.183C89.4678 115.953 75.0069 107.604 71.2372 93.5349ZM91.6626 67.8809C81.264 70.6672 75.093 81.3557 77.8793 91.7543C80.6656 102.153 91.3541 108.324 101.753 105.538C112.151 102.751 118.322 92.0628 115.536 81.6642C112.75 71.2656 102.061 65.0947 91.6626 67.8809ZM76.1073 92.2291C73.0587 80.8518 79.8105 69.1574 91.1878 66.1089C102.565 63.0603 114.259 69.8121 117.308 81.1894C120.357 92.5667 113.605 104.261 102.227 107.31C90.8502 110.358 79.1558 103.606 76.1073 92.2291ZM82.7532 90.4484C80.6881 82.7413 85.2619 74.8192 92.9691 72.7541C100.676 70.689 108.598 75.2628 110.663 82.9699C112.729 90.6771 108.155 98.5991 100.448 100.664C92.7404 102.729 84.8184 98.1556 82.7532 90.4484ZM92.4943 70.982C83.8084 73.3094 78.6538 82.2374 80.9812 90.9233C83.3085 99.6091 92.2365 104.764 100.922 102.436C109.608 100.109 114.763 91.181 112.435 82.4951C110.108 73.8092 101.18 68.6547 92.4943 70.982Z" fill="url(#paint6_linear_1673_9517)" shape-rendering="crispEdges"/>
</g>
<path fill-rule="evenodd" clip-rule="evenodd" d="M120.785 63.6642L123.849 64.6376L126.134 68.7479L66.7001 84.6732L63.7374 83.5879L66.6238 79.9711L120.785 63.6642ZM125.372 71.86L128.256 72.2911L137.347 88.6388L117.516 84.5076L104.5 106.873L101.695 106.331L82.0344 94.0148L66.9255 107.508L64.1633 106.962L66.6358 88.8023L125.372 71.86Z" fill="#008FBB" fill-opacity="0.32"/>
<path fill-rule="evenodd" clip-rule="evenodd" d="M63.6627 78.9697L120.888 63.6363L123.173 67.7466L63.7391 83.6718L63.6627 78.9697ZM63.8279 88.3584L125.448 71.8473L134.539 88.195L114.708 84.0637L101.692 106.43L79.2265 93.5709L64.1176 107.064L63.8279 88.3584Z" fill="url(#paint7_linear_1673_9517)"/>
<path d="M145.519 77.6064C145.484 77.4246 145.496 77.2544 145.555 77.0961C145.614 76.9377 145.719 76.8019 145.869 76.6888C146.021 76.5773 146.212 76.4994 146.44 76.4549C146.668 76.4104 146.873 76.4115 147.054 76.458C147.238 76.5062 147.386 76.5925 147.501 76.717C147.615 76.8416 147.69 76.9948 147.726 77.1766C147.761 77.3565 147.749 77.5256 147.689 77.684C147.63 77.8424 147.524 77.9773 147.372 78.0888C147.222 78.2019 147.033 78.2807 146.804 78.3251C146.576 78.3696 146.37 78.3678 146.186 78.3196C146.005 78.2731 145.858 78.1875 145.743 78.063C145.629 77.9385 145.554 77.7863 145.519 77.6064ZM146.01 77.5108C146.03 77.6118 146.094 77.6822 146.202 77.7219C146.313 77.7633 146.475 77.7633 146.687 77.7219C146.899 77.6806 147.048 77.6202 147.133 77.5407C147.22 77.4628 147.254 77.3733 147.235 77.2723C147.215 77.1692 147.149 77.097 147.038 77.0557C146.93 77.016 146.77 77.0168 146.557 77.0581C146.345 77.0994 146.195 77.159 146.108 77.2369C146.023 77.3164 145.99 77.4077 146.01 77.5108Z" fill="white" fill-opacity="0.32"/>
<path d="M148.542 84.723L146.384 84.8402L146.351 84.2296L148.037 84.1381L148.016 83.7372L148.487 83.7116L148.542 84.723Z" fill="white" fill-opacity="0.32"/>
<path d="M146.158 91.303C146.174 91.1184 146.232 90.9581 146.333 90.8221C146.433 90.6861 146.571 90.5843 146.746 90.5168C146.923 90.4514 147.128 90.4287 147.36 90.4487C147.591 90.4686 147.788 90.5259 147.949 90.6203C148.113 90.7171 148.232 90.841 148.308 90.9922C148.384 91.1434 148.414 91.3112 148.398 91.4959C148.382 91.6784 148.324 91.8377 148.223 91.9737C148.123 92.1096 147.984 92.2103 147.807 92.2756C147.632 92.3432 147.428 92.367 147.196 92.3471C146.964 92.3271 146.767 92.2688 146.604 92.172C146.442 92.0776 146.324 91.9547 146.248 91.8036C146.172 91.6524 146.142 91.4855 146.158 91.303ZM146.656 91.3459C146.647 91.4484 146.69 91.5337 146.783 91.6017C146.878 91.6719 147.034 91.7162 147.249 91.7348C147.464 91.7533 147.624 91.7361 147.728 91.683C147.833 91.6322 147.89 91.5555 147.899 91.4529C147.908 91.3483 147.865 91.2609 147.77 91.1907C147.677 91.1228 147.522 91.0795 147.307 91.061C147.092 91.0424 146.931 91.0586 146.825 91.1094C146.722 91.1624 146.665 91.2413 146.656 91.3459Z" fill="white" fill-opacity="0.32"/>
<path d="M147.145 98.8136L145.036 98.3416L145.169 97.7449L146.818 98.1137L146.906 97.722L147.367 97.8251L147.145 98.8136Z" fill="white" fill-opacity="0.32"/>
<path d="M143.063 104.496C143.128 104.323 143.228 104.184 143.361 104.08C143.495 103.977 143.655 103.916 143.842 103.898C144.03 103.883 144.233 103.917 144.451 103.999C144.669 104.081 144.843 104.189 144.972 104.323C145.103 104.461 145.185 104.612 145.217 104.778C145.249 104.944 145.233 105.114 145.167 105.288C145.103 105.459 145.004 105.597 144.87 105.7C144.737 105.804 144.576 105.863 144.387 105.878C144.2 105.896 143.998 105.864 143.78 105.782C143.563 105.7 143.388 105.591 143.257 105.453C143.128 105.319 143.047 105.168 143.015 105.002C142.982 104.836 142.999 104.668 143.063 104.496ZM143.531 104.672C143.495 104.769 143.513 104.862 143.584 104.953C143.657 105.046 143.794 105.131 143.997 105.207C144.199 105.283 144.357 105.31 144.472 105.286C144.587 105.266 144.663 105.208 144.699 105.111C144.736 105.013 144.718 104.917 144.646 104.824C144.574 104.733 144.437 104.65 144.235 104.574C144.032 104.498 143.874 104.47 143.758 104.49C143.644 104.513 143.568 104.574 143.531 104.672Z" fill="white" fill-opacity="0.32"/>
<path d="M141.945 112.061L140.043 111.035L140.333 110.497L141.82 111.299L142.01 110.945L142.426 111.169L141.945 112.061Z" fill="white" fill-opacity="0.32"/>
<path d="M136.509 116.393C136.618 116.243 136.751 116.137 136.908 116.073C137.064 116.009 137.235 115.994 137.42 116.027C137.605 116.063 137.792 116.15 137.979 116.288C138.167 116.426 138.305 116.577 138.394 116.741C138.483 116.909 138.52 117.077 138.507 117.245C138.493 117.414 138.431 117.573 138.322 117.722C138.213 117.87 138.081 117.976 137.924 118.04C137.768 118.104 137.597 118.117 137.411 118.081C137.226 118.048 137.04 117.962 136.853 117.825C136.665 117.687 136.527 117.534 136.438 117.367C136.349 117.202 136.311 117.036 136.325 116.867C136.339 116.699 136.4 116.541 136.509 116.393ZM136.912 116.689C136.851 116.772 136.843 116.866 136.887 116.973C136.932 117.083 137.042 117.201 137.216 117.329C137.39 117.457 137.536 117.525 137.652 117.534C137.768 117.545 137.857 117.509 137.918 117.426C137.98 117.342 137.989 117.245 137.944 117.135C137.9 117.029 137.79 116.911 137.616 116.784C137.442 116.656 137.296 116.586 137.179 116.575C137.063 116.566 136.974 116.604 136.912 116.689Z" fill="white" fill-opacity="0.32"/>
<path d="M133.382 123.387L131.827 121.885L132.252 121.445L133.467 122.619L133.746 122.33L134.085 122.658L133.382 123.387Z" fill="white" fill-opacity="0.32"/>
<path d="M126.995 126.069C127.141 125.954 127.297 125.887 127.465 125.868C127.633 125.849 127.802 125.88 127.971 125.962C128.14 126.047 128.296 126.181 128.44 126.364C128.583 126.547 128.676 126.729 128.717 126.912C128.757 127.097 128.749 127.269 128.69 127.427C128.631 127.586 128.529 127.723 128.383 127.837C128.239 127.95 128.083 128.016 127.915 128.036C127.747 128.055 127.579 128.022 127.41 127.938C127.241 127.856 127.085 127.723 126.941 127.54C126.797 127.357 126.705 127.173 126.664 126.988C126.623 126.806 126.632 126.635 126.691 126.476C126.749 126.318 126.851 126.182 126.995 126.069ZM127.304 126.462C127.223 126.526 127.189 126.615 127.203 126.73C127.217 126.847 127.291 126.991 127.424 127.161C127.558 127.331 127.679 127.436 127.789 127.475C127.898 127.518 127.993 127.507 128.074 127.444C128.157 127.379 128.191 127.288 128.178 127.17C128.163 127.055 128.09 126.913 127.956 126.743C127.823 126.573 127.701 126.467 127.592 126.424C127.482 126.385 127.386 126.397 127.304 126.462Z" fill="white" fill-opacity="0.32"/>
<path d="M120.886 130.088C121.047 129.996 121.213 129.954 121.382 129.96C121.551 129.966 121.713 130.022 121.867 130.128C122.021 130.237 122.156 130.393 122.27 130.596C122.385 130.798 122.449 130.993 122.462 131.179C122.475 131.368 122.44 131.537 122.358 131.685C122.276 131.833 122.155 131.953 121.994 132.044C121.834 132.134 121.67 132.176 121.501 132.17C121.332 132.164 121.17 132.107 121.016 131.998C120.861 131.891 120.727 131.737 120.612 131.534C120.498 131.332 120.434 131.136 120.422 130.947C120.408 130.76 120.443 130.593 120.524 130.445C120.606 130.297 120.727 130.178 120.886 130.088ZM121.133 130.523C121.043 130.574 120.997 130.657 120.993 130.772C120.989 130.89 121.04 131.043 121.147 131.232C121.253 131.42 121.358 131.542 121.46 131.597C121.562 131.656 121.658 131.659 121.747 131.609C121.839 131.557 121.886 131.472 121.89 131.354C121.894 131.238 121.842 131.087 121.736 130.898C121.629 130.71 121.525 130.587 121.423 130.529C121.321 130.473 121.224 130.471 121.133 130.523Z" fill="white" fill-opacity="0.32"/>
<path d="M114.259 133.159C114.432 133.092 114.601 133.074 114.768 133.104C114.934 133.135 115.086 133.214 115.224 133.341C115.361 133.472 115.471 133.645 115.555 133.862C115.639 134.079 115.674 134.281 115.66 134.467C115.645 134.656 115.587 134.818 115.484 134.953C115.382 135.087 115.244 135.188 115.071 135.255C114.901 135.321 114.732 135.339 114.566 135.309C114.399 135.278 114.248 135.198 114.111 135.067C113.973 134.94 113.862 134.768 113.778 134.551C113.694 134.334 113.66 134.131 113.675 133.942C113.689 133.755 113.747 133.595 113.849 133.46C113.952 133.325 114.088 133.225 114.259 133.159ZM114.44 133.625C114.344 133.662 114.286 133.738 114.266 133.852C114.245 133.968 114.273 134.127 114.351 134.329C114.429 134.53 114.515 134.666 114.609 134.736C114.701 134.808 114.795 134.826 114.891 134.789C114.989 134.751 115.048 134.673 115.069 134.557C115.089 134.443 115.06 134.286 114.982 134.084C114.904 133.883 114.819 133.746 114.727 133.673C114.633 133.603 114.538 133.587 114.44 133.625Z" fill="white" fill-opacity="0.32"/>
<path d="M107.65 137.406L107.155 135.302L107.751 135.162L108.137 136.806L108.528 136.715L108.636 137.175L107.65 137.406Z" fill="white" fill-opacity="0.32"/>
<path d="M100.831 136.2C101.015 136.183 101.183 136.212 101.335 136.286C101.487 136.361 101.611 136.479 101.709 136.639C101.805 136.802 101.863 136.999 101.885 137.231C101.906 137.463 101.885 137.666 101.821 137.842C101.754 138.02 101.654 138.159 101.518 138.261C101.383 138.362 101.223 138.421 101.038 138.438C100.856 138.455 100.689 138.426 100.537 138.352C100.386 138.277 100.262 138.158 100.166 137.995C100.069 137.835 100.009 137.639 99.9876 137.407C99.9661 137.175 99.9885 136.971 100.055 136.793C100.119 136.617 100.219 136.479 100.354 136.377C100.49 136.276 100.648 136.217 100.831 136.2ZM100.877 136.698C100.775 136.708 100.698 136.764 100.648 136.868C100.596 136.974 100.58 137.135 100.6 137.35C100.619 137.565 100.665 137.719 100.735 137.812C100.804 137.907 100.89 137.95 100.992 137.94C101.097 137.931 101.175 137.873 101.227 137.767C101.278 137.663 101.293 137.503 101.273 137.288C101.253 137.073 101.209 136.917 101.14 136.823C101.069 136.73 100.982 136.688 100.877 136.698Z" fill="white" fill-opacity="0.32"/>
<path d="M93.5184 138.49L93.6145 136.33L94.2253 136.357L94.1502 138.045L94.5513 138.063L94.5303 138.535L93.5184 138.49Z" fill="white" fill-opacity="0.32"/>
<path d="M87.2885 135.476C87.4707 135.51 87.6246 135.583 87.7502 135.697C87.8758 135.81 87.9637 135.957 88.0139 136.138C88.0618 136.321 88.0645 136.526 88.0222 136.755C87.9798 136.984 87.9038 137.174 87.7941 137.325C87.6821 137.478 87.5471 137.585 87.3893 137.646C87.2315 137.707 87.0615 137.72 86.8793 137.687C86.6991 137.653 86.5462 137.58 86.4206 137.467C86.295 137.353 86.2083 137.206 86.1605 137.023C86.1102 136.842 86.1063 136.637 86.1486 136.408C86.191 136.18 86.2682 135.989 86.3803 135.836C86.4899 135.684 86.6237 135.578 86.7815 135.517C86.9393 135.456 87.1083 135.443 87.2885 135.476ZM87.1974 135.968C87.0962 135.949 87.0073 135.983 86.9306 136.069C86.8515 136.157 86.7922 136.308 86.7529 136.52C86.7135 136.733 86.7152 136.893 86.758 137.002C86.7983 137.112 86.8691 137.176 86.9703 137.195C87.0736 137.214 87.1647 137.179 87.2438 137.092C87.3205 137.005 87.3786 136.856 87.4179 136.643C87.4573 136.431 87.4568 136.269 87.4164 136.159C87.3737 136.051 87.3007 135.987 87.1974 135.968Z" fill="white" fill-opacity="0.32"/>
<path d="M80.2448 133.564C80.42 133.624 80.5614 133.719 80.669 133.85C80.7766 133.98 80.8419 134.139 80.8651 134.325C80.8855 134.513 80.858 134.717 80.7825 134.937C80.707 135.157 80.6039 135.333 80.4732 135.467C80.3398 135.602 80.1906 135.688 80.0256 135.725C79.8606 135.762 79.6904 135.75 79.5151 135.69C79.3418 135.631 79.2014 135.536 79.0938 135.405C78.9862 135.275 78.9222 135.116 78.9017 134.928C78.8786 134.741 78.9048 134.538 78.9803 134.318C79.0558 134.098 79.1602 133.921 79.2936 133.786C79.4243 133.652 79.5722 133.567 79.7372 133.53C79.9023 133.493 80.0714 133.504 80.2448 133.564ZM80.0824 134.037C79.985 134.003 79.8921 134.024 79.8035 134.098C79.7124 134.173 79.6317 134.313 79.5616 134.518C79.4914 134.722 79.4695 134.881 79.4958 134.995C79.5196 135.109 79.5801 135.184 79.6775 135.217C79.7768 135.251 79.872 135.23 79.9632 135.155C80.0518 135.081 80.1311 134.942 80.2013 134.737C80.2714 134.533 80.2946 134.373 80.2709 134.258C80.2445 134.145 80.1817 134.071 80.0824 134.037Z" fill="white" fill-opacity="0.32"/>
<path d="M72.6564 132.666L73.6267 130.735L74.1731 131.009L73.4149 132.519L73.7737 132.699L73.5616 133.121L72.6564 132.666Z" fill="white" fill-opacity="0.32"/>
<path d="M68.1784 127.361C68.331 127.466 68.4414 127.596 68.5099 127.751C68.5783 127.905 68.5985 128.076 68.5704 128.261C68.5396 128.448 68.4581 128.637 68.326 128.828C68.194 129.02 68.047 129.162 67.8851 129.256C67.7203 129.35 67.5535 129.392 67.3846 129.383C67.2157 129.374 67.0549 129.317 66.9024 129.212C66.7515 129.108 66.6419 128.979 66.5735 128.824C66.5051 128.669 66.4863 128.499 66.5172 128.313C66.5452 128.127 66.6253 127.938 66.7573 127.747C66.8894 127.555 67.0378 127.412 67.2026 127.318C67.3645 127.225 67.5299 127.183 67.6988 127.192C67.8677 127.201 68.0276 127.257 68.1784 127.361ZM67.8945 127.773C67.8097 127.714 67.7147 127.709 67.6095 127.756C67.5014 127.804 67.386 127.917 67.2633 128.095C67.1406 128.273 67.0766 128.421 67.0714 128.537C67.0633 128.654 67.1016 128.742 67.1863 128.8C67.2728 128.86 67.3701 128.865 67.4782 128.817C67.5834 128.77 67.6974 128.657 67.8201 128.479C67.9428 128.301 68.0082 128.154 68.0163 128.037C68.0215 127.921 67.9809 127.833 67.8945 127.773Z" fill="white" fill-opacity="0.32"/>
<path d="M61.1211 124.462L62.5765 122.864L63.0286 123.276L61.8913 124.525L62.1881 124.795L61.87 125.144L61.1211 124.462Z" fill="white" fill-opacity="0.32"/>
<path d="M56.595 119.623L58.2443 118.226L58.6396 118.692L57.3508 119.784L57.6103 120.091L57.2498 120.396L56.595 119.623Z" fill="white" fill-opacity="0.32"/>
<path d="M52.7593 114.299L54.5726 113.122L54.9055 113.635L53.4884 114.555L53.707 114.892L53.3106 115.149L52.7593 114.299Z" fill="white" fill-opacity="0.32"/>
<path d="M49.6718 108.614L51.6181 107.673L51.8842 108.224L50.3633 108.959L50.5381 109.32L50.1127 109.526L49.6718 108.614Z" fill="white" fill-opacity="0.32"/>
<path d="M49.3396 101.652C49.3965 101.828 49.4049 101.998 49.3649 102.163C49.3248 102.327 49.2371 102.474 49.1017 102.605C48.9638 102.733 48.7841 102.834 48.5626 102.905C48.3412 102.976 48.1379 103 47.9526 102.975C47.7646 102.949 47.6065 102.881 47.478 102.771C47.3495 102.661 47.2568 102.518 47.1999 102.342C47.1437 102.167 47.1356 101.998 47.1756 101.834C47.2156 101.669 47.3046 101.523 47.4426 101.394C47.578 101.264 47.7564 101.163 47.9778 101.092C48.1992 101.02 48.4039 100.997 48.5918 101.023C48.7771 101.048 48.934 101.115 49.0625 101.225C49.191 101.335 49.2834 101.477 49.3396 101.652ZM48.8635 101.805C48.8319 101.707 48.7599 101.645 48.6475 101.619C48.5325 101.591 48.3722 101.61 48.1664 101.676C47.9607 101.743 47.8203 101.821 47.7452 101.91C47.6675 101.997 47.6445 102.09 47.6761 102.188C47.7083 102.288 47.7819 102.352 47.8969 102.38C48.0092 102.406 48.1683 102.386 48.374 102.32C48.5798 102.254 48.7215 102.177 48.7992 102.089C48.8743 102 48.8957 101.905 48.8635 101.805Z" fill="white" fill-opacity="0.32"/>
<path d="M45.4634 94.8346L47.5928 94.4623L47.6981 95.0646L46.0342 95.3556L46.1033 95.751L45.6379 95.8324L45.4634 94.8346Z" fill="white" fill-opacity="0.32"/>
<path d="M44.8424 88.3342L47.0018 88.2335L47.0303 88.8443L45.3429 88.923L45.3616 89.324L44.8896 89.346L44.8424 88.3342Z" fill="white" fill-opacity="0.32"/>
<path d="M47.2685 81.741C47.2512 81.9254 47.1918 82.0853 47.0902 82.2205C46.9886 82.3557 46.8499 82.4565 46.6742 82.5227C46.4965 82.5867 46.2919 82.6079 46.0603 82.5862C45.8287 82.5645 45.6325 82.5058 45.472 82.4101C45.3095 82.3122 45.1909 82.1873 45.1162 82.0356C45.0415 81.8838 45.0128 81.7157 45.0301 81.5313C45.0472 81.3488 45.1065 81.19 45.2081 81.0548C45.3097 80.9195 45.4493 80.8199 45.6269 80.7559C45.8027 80.6897 46.0064 80.6674 46.238 80.6891C46.4696 80.7108 46.6667 80.7706 46.8291 80.8685C46.9897 80.9642 47.1074 81.088 47.1821 81.2397C47.2568 81.3914 47.2856 81.5585 47.2685 81.741ZM46.7704 81.6943C46.78 81.5918 46.7384 81.5062 46.6455 81.4376C46.5509 81.3667 46.3959 81.3211 46.1807 81.301C45.9655 81.2808 45.8058 81.2969 45.7016 81.3491C45.5956 81.3992 45.5378 81.4754 45.5282 81.5779C45.5184 81.6825 45.5609 81.7702 45.6555 81.8411C45.7484 81.9097 45.9024 81.9542 46.1176 81.9743C46.3328 81.9945 46.4935 81.9795 46.5995 81.9295C46.7036 81.8772 46.7606 81.7988 46.7704 81.6943Z" fill="white" fill-opacity="0.32"/>
<path d="M48.4848 74.749C48.441 74.929 48.3591 75.0786 48.239 75.1977C48.1189 75.3168 47.9672 75.3964 47.7837 75.4365C47.5986 75.4742 47.3931 75.4655 47.1671 75.4105C46.941 75.3555 46.7555 75.2691 46.6104 75.1512C46.4638 75.0308 46.3646 74.8901 46.3126 74.7291C46.2606 74.5682 46.2566 74.3977 46.3004 74.2176C46.3437 74.0396 46.4254 73.891 46.5454 73.7719C46.6655 73.6528 46.8181 73.5744 47.0031 73.5368C47.1866 73.4967 47.3913 73.5041 47.6174 73.5591C47.8434 73.6141 48.0298 73.7018 48.1763 73.8222C48.3214 73.9401 48.4199 74.0795 48.4719 74.2405C48.5238 74.4015 48.5281 74.571 48.4848 74.749ZM47.9987 74.6307C48.0231 74.5307 47.9943 74.44 47.9124 74.3587C47.8289 74.2748 47.6822 74.2073 47.4721 74.1562C47.2621 74.1052 47.1018 74.0979 46.9912 74.1346C46.879 74.1688 46.8108 74.2359 46.7865 74.3359C46.7616 74.4379 46.7909 74.5308 46.8744 74.6147C46.9563 74.6961 47.1023 74.7623 47.3123 74.8134C47.5224 74.8645 47.6834 74.8729 47.7956 74.8388C47.9062 74.8021 47.9739 74.7328 47.9987 74.6307Z" fill="white" fill-opacity="0.32"/>
<path d="M48.749 66.9061L50.758 67.704L50.5323 68.2723L48.9624 67.6488L48.8142 68.0219L48.3751 67.8475L48.749 66.9061Z" fill="white" fill-opacity="0.32"/>
<path d="M53.5435 62.1204C53.4526 62.2819 53.3332 62.4037 53.1854 62.4858C53.0376 62.568 52.8699 62.6035 52.6824 62.5925C52.4941 62.5786 52.2986 62.5147 52.0958 62.4005C51.8931 62.2864 51.7379 62.153 51.6302 62.0002C51.5216 61.8446 51.4642 61.6823 51.4577 61.5133C51.4513 61.3443 51.4935 61.1791 51.5844 61.0176C51.6742 60.8579 51.7931 60.737 51.9409 60.6548C52.0888 60.5727 52.2568 60.5385 52.4451 60.5524C52.6326 60.5634 52.8278 60.626 53.0305 60.7401C53.2332 60.8543 53.3888 60.9891 53.4974 61.1447C53.6051 61.2975 53.6622 61.4584 53.6686 61.6274C53.6751 61.7964 53.6334 61.9607 53.5435 62.1204ZM53.1075 61.875C53.158 61.7853 53.1549 61.6902 53.098 61.5897C53.0404 61.4864 52.9174 61.3817 52.729 61.2757C52.5407 61.1696 52.3883 61.1193 52.2719 61.1246C52.1547 61.1272 52.0708 61.1733 52.0203 61.263C51.9688 61.3545 51.9719 61.4519 52.0295 61.5552C52.0863 61.6557 52.2089 61.759 52.3973 61.865C52.5857 61.971 52.7385 62.0228 52.8556 62.0203C52.9721 62.0149 53.056 61.9665 53.1075 61.875Z" fill="white" fill-opacity="0.32"/>
<path d="M57.5554 56.1279C57.4421 56.2745 57.3063 56.3777 57.1481 56.4375C56.9899 56.4974 56.8189 56.5083 56.635 56.4702C56.4507 56.4291 56.2665 56.3375 56.0825 56.1952C55.8984 56.0529 55.7642 55.8983 55.6797 55.7315C55.5949 55.5619 55.5616 55.393 55.5797 55.2248C55.5978 55.0566 55.6636 54.8993 55.7769 54.7527C55.889 54.6077 56.0241 54.5053 56.1823 54.4455C56.3405 54.3856 56.5117 54.3762 56.696 54.4172C56.88 54.4553 57.0639 54.5455 57.248 54.6878C57.432 54.8302 57.5664 54.9861 57.6512 55.1558C57.7357 55.3226 57.7688 55.4901 57.7507 55.6582C57.7326 55.8264 57.6675 55.9829 57.5554 56.1279ZM57.1597 55.8219C57.2226 55.7404 57.2333 55.6459 57.1916 55.5382C57.1496 55.4276 57.0431 55.3062 56.8721 55.174C56.7011 55.0418 56.5576 54.9699 56.4416 54.9583C56.3253 54.9438 56.2356 54.9773 56.1727 55.0587C56.1085 55.1418 56.0973 55.2386 56.1394 55.3492C56.181 55.4568 56.2874 55.5768 56.4584 55.709C56.6294 55.8413 56.7731 55.9146 56.8894 55.9291C57.0053 55.9407 57.0954 55.9049 57.1597 55.8219Z" fill="white" fill-opacity="0.32"/>
<path d="M61.0121 49.0415L62.522 50.5885L62.0844 51.0156L60.9045 49.8067L60.6173 50.0871L60.2872 49.749L61.0121 49.0415Z" fill="white" fill-opacity="0.32"/>
<path d="M67.4457 46.5493C67.2966 46.6594 67.1378 46.7215 66.9693 46.7359C66.8008 46.7502 66.6333 46.7139 66.4668 46.627C66.3007 46.5372 66.1486 46.3987 66.0105 46.2115C65.8723 46.0243 65.7854 45.839 65.7498 45.6554C65.7146 45.469 65.7287 45.2975 65.7921 45.1406C65.8555 44.9838 65.9617 44.8504 66.1108 44.7404C66.2582 44.6316 66.4162 44.57 66.5847 44.5557C66.7532 44.5413 66.9205 44.5791 67.0866 44.6689C67.2531 44.7558 67.4054 44.8929 67.5436 45.0801C67.6817 45.2673 67.7684 45.4541 67.8036 45.6404C67.8392 45.824 67.8254 45.9941 67.762 46.1509C67.6986 46.3077 67.5932 46.4405 67.4457 46.5493ZM67.1487 46.1468C67.2315 46.0857 67.2676 45.9976 67.2569 45.8827C67.2467 45.7648 67.1775 45.6189 67.0491 45.445C66.9207 45.2711 66.8024 45.1627 66.694 45.1198C66.5861 45.0741 66.4907 45.0818 66.4078 45.1429C66.3234 45.2053 66.2862 45.2954 66.2964 45.4132C66.3071 45.5282 66.3766 45.6726 66.5049 45.8466C66.6333 46.0205 66.7514 46.1303 66.8594 46.1761C66.9678 46.2189 67.0642 46.2091 67.1487 46.1468Z" fill="white" fill-opacity="0.32"/>
<path d="M72.3225 40.9009L73.3586 42.7981L72.822 43.0912L72.0124 41.6087L71.66 41.8011L71.4336 41.3864L72.3225 40.9009Z" fill="white" fill-opacity="0.32"/>
<path d="M79.2355 40.2068C79.0622 40.2724 78.8925 40.2894 78.7264 40.2576C78.5602 40.2259 78.4088 40.1456 78.272 40.0169C78.1363 39.8856 78.0273 39.7111 77.9449 39.4936C77.8625 39.276 77.829 39.0741 77.8443 38.8877C77.8608 38.6988 77.9207 38.5374 78.0241 38.4035C78.1276 38.2697 78.2659 38.17 78.4392 38.1044C78.6105 38.0395 78.7793 38.0229 78.9454 38.0546C79.1115 38.0864 79.2624 38.1679 79.398 38.2993C79.5348 38.428 79.6444 38.6011 79.7268 38.8187C79.8092 39.0362 79.8422 39.2395 79.8257 39.4285C79.8104 39.6148 79.751 39.7749 79.6476 39.9087C79.5442 40.0425 79.4068 40.1419 79.2355 40.2068ZM79.0583 39.7389C79.1545 39.7025 79.2131 39.6275 79.2339 39.5139C79.2559 39.3977 79.2287 39.2385 79.1521 39.0363C79.0755 38.8342 78.9909 38.6978 78.8981 38.6273C78.8066 38.5541 78.7126 38.5357 78.6164 38.5722C78.5182 38.6094 78.4581 38.6861 78.436 38.8023C78.4152 38.9159 78.4431 39.0737 78.5196 39.2759C78.5962 39.478 78.6803 39.6157 78.7718 39.6889C78.8646 39.7595 78.9601 39.7761 79.0583 39.7389Z" fill="white" fill-opacity="0.32"/>
<path d="M85.8363 35.9802L86.3148 38.0882L85.7186 38.2236L85.3446 36.5763L84.9531 36.6651L84.8485 36.2044L85.8363 35.9802Z" fill="white" fill-opacity="0.32"/>
<path d="M92.824 37.1817C92.6394 37.1974 92.4715 37.1672 92.3204 37.0912C92.1693 37.0152 92.0456 36.8966 91.9493 36.7353C91.8548 36.5719 91.7977 36.3742 91.778 36.1424C91.7583 35.9106 91.7813 35.7072 91.847 35.5322C91.9146 35.355 92.0164 35.2162 92.1525 35.1157C92.2886 35.0153 92.449 34.9573 92.6336 34.9416C92.8162 34.9261 92.983 34.9563 93.1341 35.0323C93.2852 35.1083 93.408 35.228 93.5024 35.3915C93.5988 35.5527 93.6568 35.7493 93.6765 35.9811C93.6962 36.2129 93.6723 36.4174 93.6047 36.5946C93.539 36.7696 93.4381 36.9074 93.302 37.0078C93.1659 37.1082 93.0066 37.1662 92.824 37.1817ZM92.7816 36.6832C92.8842 36.6745 92.9611 36.6183 93.0122 36.5148C93.0652 36.4091 93.0825 36.2485 93.0642 36.0331C93.0459 35.8177 93.0018 35.6634 92.9319 35.5702C92.8638 35.4747 92.7785 35.4313 92.676 35.4401C92.5713 35.449 92.4925 35.5063 92.4395 35.612C92.3884 35.7155 92.372 35.875 92.3903 36.0904C92.4086 36.3058 92.4518 36.4612 92.5198 36.5567C92.5898 36.6499 92.677 36.6921 92.7816 36.6832Z" fill="white" fill-opacity="0.32"/>
<path d="M100.047 34.9252L99.9346 37.084L99.324 37.0522L99.4118 35.3653L99.0109 35.3444L99.0355 34.8725L100.047 34.9252Z" fill="white" fill-opacity="0.32"/>
<path d="M106.312 37.9673C106.13 37.9322 105.977 37.8576 105.852 37.7434C105.727 37.6291 105.64 37.4814 105.591 37.3C105.545 37.117 105.544 36.9113 105.588 36.6829C105.632 36.4544 105.709 36.2649 105.82 36.1144C105.933 35.9622 106.069 35.8563 106.227 35.7966C106.386 35.737 106.556 35.7247 106.738 35.7598C106.917 35.7945 107.07 35.8689 107.195 35.9831C107.319 36.0973 107.405 36.2459 107.451 36.4289C107.5 36.6103 107.503 36.8152 107.459 37.0436C107.415 37.272 107.336 37.4624 107.223 37.6146C107.112 37.7651 106.977 37.8702 106.819 37.9299C106.661 37.9895 106.492 38.002 106.312 37.9673ZM106.407 37.4761C106.508 37.4955 106.597 37.4624 106.674 37.3767C106.754 37.2893 106.814 37.1395 106.855 36.9273C106.896 36.715 106.896 36.5545 106.854 36.4458C106.814 36.3354 106.744 36.2705 106.643 36.251C106.54 36.2311 106.448 36.2649 106.369 36.3522C106.291 36.438 106.232 36.587 106.191 36.7992C106.15 37.0115 106.15 37.1728 106.189 37.2832C106.231 37.3919 106.304 37.4562 106.407 37.4761Z" fill="white" fill-opacity="0.32"/>
<path d="M113.362 39.9148C113.187 39.8534 113.046 39.7571 112.94 39.6258C112.833 39.4945 112.769 39.3355 112.747 39.149C112.728 38.9611 112.757 38.7575 112.834 38.538C112.911 38.3185 113.016 38.1424 113.147 38.0098C113.282 37.8758 113.432 37.791 113.597 37.7552C113.762 37.7195 113.932 37.7323 114.107 37.7937C114.28 37.8545 114.42 37.9505 114.526 38.0818C114.633 38.2131 114.696 38.3726 114.715 38.5605C114.737 38.747 114.709 38.9501 114.632 39.1695C114.555 39.389 114.449 39.5657 114.315 39.6997C114.183 39.8323 114.034 39.9165 113.869 39.9523C113.704 39.988 113.535 39.9756 113.362 39.9148ZM113.528 39.4428C113.625 39.4769 113.718 39.4573 113.807 39.3838C113.899 39.3091 113.98 39.1698 114.052 38.9659C114.124 38.7619 114.147 38.6031 114.121 38.4894C114.098 38.3744 114.038 38.2999 113.941 38.2657C113.842 38.2309 113.747 38.2509 113.655 38.3256C113.566 38.399 113.486 38.5377 113.414 38.7417C113.342 38.9456 113.318 39.1051 113.341 39.2201C113.366 39.3338 113.429 39.408 113.528 39.4428Z" fill="white" fill-opacity="0.32"/>
<path d="M120.858 40.8013L119.874 42.7259L119.33 42.4475L120.099 40.9436L119.741 40.7608L119.957 40.3401L120.858 40.8013Z" fill="white" fill-opacity="0.32"/>
<path d="M125.439 46.201C125.287 46.0947 125.178 45.964 125.11 45.8088C125.043 45.6536 125.024 45.4833 125.053 45.2977C125.086 45.1117 125.169 44.9234 125.302 44.7328C125.435 44.5423 125.583 44.4009 125.746 44.3086C125.911 44.2159 126.079 44.1746 126.247 44.1847C126.416 44.1949 126.577 44.2531 126.728 44.3593C126.878 44.4644 126.987 44.5946 127.054 44.7497C127.122 44.9049 127.139 45.0755 127.107 45.2616C127.078 45.4471 126.996 45.6351 126.863 45.8257C126.729 46.0163 126.58 46.1579 126.414 46.2507C126.252 46.3429 126.086 46.384 125.917 46.3738C125.748 46.3637 125.589 46.3061 125.439 46.201ZM125.726 45.7912C125.81 45.8502 125.905 45.8564 126.011 45.8097C126.119 45.7624 126.235 45.6503 126.359 45.4732C126.483 45.2961 126.548 45.1494 126.554 45.033C126.563 44.9162 126.526 44.8282 126.441 44.7692C126.355 44.7089 126.258 44.7024 126.15 44.7496C126.044 44.7963 125.929 44.9082 125.805 45.0853C125.681 45.2624 125.615 45.4094 125.606 45.5263C125.6 45.6426 125.64 45.7309 125.726 45.7912Z" fill="white" fill-opacity="0.32"/>
<path d="M132.435 49.0982L130.968 50.6858L130.519 50.2708L131.665 49.0302L131.37 48.7577L131.691 48.4108L132.435 49.0982Z" fill="white" fill-opacity="0.32"/>
<path d="M135.422 55.589C135.304 55.4454 135.235 55.2898 135.212 55.1222C135.19 54.9545 135.218 54.7855 135.296 54.6149C135.378 54.4447 135.509 54.2861 135.689 54.139C135.87 53.9919 136.05 53.8961 136.232 53.8516C136.417 53.8074 136.589 53.8132 136.748 53.8689C136.908 53.9246 137.046 54.0242 137.164 54.1678C137.279 54.3098 137.349 54.4646 137.371 54.6322C137.394 54.7998 137.364 54.9688 137.282 55.139C137.204 55.3095 137.074 55.4683 136.894 55.6154C136.714 55.7624 136.531 55.8581 136.347 55.9023C136.165 55.9468 135.995 55.9412 135.835 55.8855C135.675 55.8298 135.537 55.7309 135.422 55.589ZM135.809 55.2727C135.874 55.3525 135.964 55.3843 136.078 55.368C136.195 55.3521 136.338 55.2758 136.505 55.1392C136.673 55.0025 136.775 54.8791 136.813 54.7687C136.853 54.6587 136.841 54.5638 136.776 54.484C136.71 54.4027 136.618 54.37 136.501 54.3859C136.386 54.4021 136.245 54.4785 136.078 54.6152C135.91 54.7518 135.806 54.8752 135.766 54.9852C135.728 55.0955 135.743 55.1914 135.809 55.2727Z" fill="white" fill-opacity="0.32"/>
<path d="M139.507 61.5071C139.412 61.348 139.366 61.1839 139.368 61.0147C139.37 60.8456 139.423 60.6825 139.526 60.5253C139.631 60.3688 139.784 60.2309 139.984 60.1118C140.184 59.9926 140.377 59.9243 140.563 59.9067C140.752 59.8899 140.921 59.9207 141.071 59.9992C141.221 60.0776 141.343 60.1963 141.438 60.3555C141.532 60.5128 141.578 60.6761 141.576 60.8452C141.573 61.0143 141.52 61.1771 141.414 61.3336C141.311 61.4908 141.16 61.629 140.96 61.7482C140.76 61.8674 140.566 61.9353 140.377 61.9521C140.191 61.9697 140.023 61.9392 139.873 61.8608C139.723 61.7824 139.601 61.6645 139.507 61.5071ZM139.937 61.2509C139.99 61.3393 140.074 61.3838 140.189 61.3844C140.308 61.3858 140.46 61.3311 140.645 61.2204C140.831 61.1097 140.95 61.0025 141.004 60.8988C141.06 60.7958 141.061 60.7002 141.008 60.6118C140.955 60.5216 140.869 60.4758 140.75 60.4744C140.635 60.4738 140.484 60.5288 140.299 60.6396C140.113 60.7503 139.992 60.8571 139.936 60.9601C139.883 61.0638 139.883 61.1607 139.937 61.2509Z" fill="white" fill-opacity="0.32"/>
<path d="M142.757 68.1205C142.687 67.9491 142.665 67.7799 142.693 67.613C142.72 67.446 142.796 67.2925 142.921 67.1522C143.049 67.0132 143.22 66.8995 143.435 66.8113C143.651 66.723 143.852 66.6841 144.038 66.6943C144.228 66.7057 144.391 66.7613 144.527 66.8611C144.664 66.9609 144.767 67.0965 144.837 67.268C144.907 67.4375 144.928 67.6057 144.901 67.7726C144.873 67.9396 144.796 68.0926 144.668 68.2317C144.543 68.3719 144.373 68.4861 144.158 68.5743C143.943 68.6626 143.74 68.701 143.551 68.6896C143.364 68.6793 143.203 68.6243 143.066 68.5245C142.93 68.4247 142.827 68.2901 142.757 68.1205ZM143.22 67.9308C143.259 68.026 143.336 68.0826 143.45 68.1003C143.566 68.1192 143.725 68.0877 143.925 68.0057C144.125 67.9237 144.259 67.8354 144.327 67.7408C144.398 67.6473 144.413 67.5529 144.374 67.4577C144.335 67.3605 144.256 67.3025 144.14 67.2836C144.025 67.2658 143.868 67.2979 143.668 67.3799C143.468 67.4619 143.333 67.5496 143.262 67.6431C143.194 67.7377 143.18 67.8336 143.22 67.9308Z" fill="white" fill-opacity="0.32"/>
<defs>
<filter id="filter0_d_1673_9517" x="0.837189" y="0.927629" width="223.85" height="223.85" filterUnits="userSpaceOnUse" color-interpolation-filters="sRGB">
<feFlood flood-opacity="0" result="BackgroundImageFix"/>
<feColorMatrix in="SourceAlpha" type="matrix" values="0 0 0 0 0 0 0 0 0 0 0 0 0 0 0 0 0 0 127 0" result="hardAlpha"/>
<feOffset dx="16.0526" dy="26.1429"/>
<feGaussianBlur stdDeviation="25.4549"/>
<feComposite in2="hardAlpha" operator="out"/>
<feColorMatrix type="matrix" values="0 0 0 0 0 0 0 0 0 0.0705882 0 0 0 0 0.141176 0 0 0 0.16 0"/>
<feBlend mode="normal" in2="BackgroundImageFix" result="effect1_dropShadow_1673_9517"/>
<feBlend mode="normal" in="SourceGraphic" in2="effect1_dropShadow_1673_9517" result="shape"/>
</filter>
<filter id="filter1_d_1673_9517" x="55.1919" y="50.7119" width="83.9529" height="78.4328" filterUnits="userSpaceOnUse" color-interpolation-filters="sRGB">
<feFlood flood-opacity="0" result="BackgroundImageFix"/>
<feColorMatrix in="SourceAlpha" type="matrix" values="0 0 0 0 0 0 0 0 0 0 0 0 0 0 0 0 0 0 127 0" result="hardAlpha"/>
<feOffset dx="0.917293" dy="0.917293"/>
<feComposite in2="hardAlpha" operator="out"/>
<feColorMatrix type="matrix" values="0 0 0 0 0.115104 0 0 0 0 0.649472 0 0 0 0 0.8125 0 0 0 0.36 0"/>
<feBlend mode="normal" in2="BackgroundImageFix" result="effect1_dropShadow_1673_9517"/>
<feBlend mode="normal" in="SourceGraphic" in2="effect1_dropShadow_1673_9517" result="shape"/>
</filter>
<filter id="filter2_d_1673_9517" x="60.2378" y="43.0414" width="73.8607" height="81.0577" filterUnits="userSpaceOnUse" color-interpolation-filters="sRGB">
<feFlood flood-opacity="0" result="BackgroundImageFix"/>
<feColorMatrix in="SourceAlpha" type="matrix" values="0 0 0 0 0 0 0 0 0 0 0 0 0 0 0 0 0 0 127 0" result="hardAlpha"/>
<feOffset dx="0.917293" dy="0.917293"/>
<feComposite in2="hardAlpha" operator="out"/>
<feColorMatrix type="matrix" values="0 0 0 0 0.115104 0 0 0 0 0.649472 0 0 0 0 0.8125 0 0 0 0.36 0"/>
<feBlend mode="normal" in2="BackgroundImageFix" result="effect1_dropShadow_1673_9517"/>
<feBlend mode="normal" in="SourceGraphic" in2="effect1_dropShadow_1673_9517" result="shape"/>
</filter>
<filter id="filter3_d_1673_9517" x="65.2847" y="55.2889" width="63.7679" height="63.7635" filterUnits="userSpaceOnUse" color-interpolation-filters="sRGB">
<feFlood flood-opacity="0" result="BackgroundImageFix"/>
<feColorMatrix in="SourceAlpha" type="matrix" values="0 0 0 0 0 0 0 0 0 0 0 0 0 0 0 0 0 0 127 0" result="hardAlpha"/>
<feOffset dx="0.917293" dy="0.917293"/>
<feComposite in2="hardAlpha" operator="out"/>
<feColorMatrix type="matrix" values="0 0 0 0 0.115104 0 0 0 0 0.649472 0 0 0 0 0.8125 0 0 0 0.36 0"/>
<feBlend mode="normal" in2="BackgroundImageFix" result="effect1_dropShadow_1673_9517"/>
<feBlend mode="normal" in="SourceGraphic" in2="effect1_dropShadow_1673_9517" result="shape"/>
</filter>
<filter id="filter4_d_1673_9517" x="70.332" y="60.3306" width="53.6746" height="53.6747" filterUnits="userSpaceOnUse" color-interpolation-filters="sRGB">
<feFlood flood-opacity="0" result="BackgroundImageFix"/>
<feColorMatrix in="SourceAlpha" type="matrix" values="0 0 0 0 0 0 0 0 0 0 0 0 0 0 0 0 0 0 127 0" result="hardAlpha"/>
<feOffset dx="0.917293" dy="0.917293"/>
<feComposite in2="hardAlpha" operator="out"/>
<feColorMatrix type="matrix" values="0 0 0 0 0.115104 0 0 0 0 0.649472 0 0 0 0 0.8125 0 0 0 0.36 0"/>
<feBlend mode="normal" in2="BackgroundImageFix" result="effect1_dropShadow_1673_9517"/>
<feBlend mode="normal" in="SourceGraphic" in2="effect1_dropShadow_1673_9517" result="shape"/>
</filter>
<linearGradient id="paint0_linear_1673_9517" x1="35.7094" y1="25.7097" x2="157.709" y2="147.71" gradientUnits="userSpaceOnUse">
<stop stop-color="#47BDE1"/>
<stop offset="1" stop-color="#3DB1D5"/>
</linearGradient>
<linearGradient id="paint1_linear_1673_9517" x1="35.7094" y1="25.7097" x2="157.709" y2="147.71" gradientUnits="userSpaceOnUse">
<stop stop-color="white"/>
<stop offset="1" stop-color="#87DDF8"/>
</linearGradient>
<linearGradient id="paint2_linear_1673_9517" x1="41.4444" y1="31.4426" x2="151.978" y2="141.976" gradientUnits="userSpaceOnUse">
<stop stop-color="#039DCE" stop-opacity="0.69"/>
<stop offset="1" stop-color="#0294C2" stop-opacity="0.12"/>
</linearGradient>
<linearGradient id="paint3_linear_1673_9517" x1="46.997" y1="58.008" x2="146.422" y2="115.411" gradientUnits="userSpaceOnUse">
<stop stop-color="white" stop-opacity="0.35"/>
<stop offset="1" stop-color="#1099C5" stop-opacity="0"/>
</linearGradient>
<linearGradient id="paint4_linear_1673_9517" x1="49.7969" y1="52.51" x2="141.367" y2="112.493" gradientUnits="userSpaceOnUse">
<stop stop-color="white" stop-opacity="0.35"/>
<stop offset="1" stop-color="#1099C5" stop-opacity="0"/>
</linearGradient>
<linearGradient id="paint5_linear_1673_9517" x1="59.3553" y1="65.1434" x2="134.065" y2="108.277" gradientUnits="userSpaceOnUse">
<stop stop-color="white" stop-opacity="0.35"/>
<stop offset="1" stop-color="#1099C5" stop-opacity="0"/>
</linearGradient>
<linearGradient id="paint6_linear_1673_9517" x1="64.4116" y1="68.0613" x2="129.01" y2="105.357" gradientUnits="userSpaceOnUse">
<stop stop-color="white" stop-opacity="0.35"/>
<stop offset="1" stop-color="#1099C5" stop-opacity="0"/>
</linearGradient>
<linearGradient id="paint7_linear_1673_9517" x1="76.1193" y1="75.6329" x2="111.647" y2="103.814" gradientUnits="userSpaceOnUse">
<stop stop-color="#F5FDFF"/>
<stop offset="1" stop-color="#97E7FF"/>
</linearGradient>
</defs>
</svg>
