<svg width="114" height="161" viewBox="0 0 114 161" fill="none" xmlns="http://www.w3.org/2000/svg">
<mask id="path-1-outside-1_1673_9247" maskUnits="userSpaceOnUse" x="0.733398" y="-0.302979" width="113" height="162" fill="black">
<rect fill="white" x="0.733398" y="-0.302979" width="113" height="162"/>
<path fill-rule="evenodd" clip-rule="evenodd" d="M87.6519 34.9965L56.3988 151.635L20.7334 150.995L46.407 122.431L21.7972 79.857L64.4027 55.2704L56.4504 17.697L87.6519 34.9965ZM102.903 43.7635L73.9957 151.647L64.7446 151.4L94.7676 39.3523L102.903 43.7635Z"/>
</mask>
<path fill-rule="evenodd" clip-rule="evenodd" d="M87.6519 34.9965L56.3988 151.635L20.7334 150.995L46.407 122.431L21.7972 79.857L64.4027 55.2704L56.4504 17.697L87.6519 34.9965ZM102.903 43.7635L73.9957 151.647L64.7446 151.4L94.7676 39.3523L102.903 43.7635Z" fill="white"/>
<path d="M56.3988 151.635L56.2374 160.633L63.2713 160.759L65.0922 153.964L56.3988 151.635ZM87.6519 34.9965L96.3453 37.3259L98.165 30.5346L92.016 27.1254L87.6519 34.9965ZM20.7334 150.995L14.0399 144.978L0.861856 159.64L20.572 159.993L20.7334 150.995ZM46.407 122.431L53.1005 128.448L57.47 123.586L54.1989 117.927L46.407 122.431ZM21.7972 79.857L17.2989 72.0618L9.49805 76.5635L14.0053 84.361L21.7972 79.857ZM64.4027 55.2704L68.9011 63.0656L74.5607 59.7996L73.2077 53.4069L64.4027 55.2704ZM56.4504 17.697L60.8145 9.82589L43.5605 0.259483L47.6455 19.5606L56.4504 17.697ZM73.9957 151.647L73.7551 160.644L80.8517 160.834L82.6891 153.977L73.9957 151.647ZM102.903 43.7635L111.596 46.0929L113.434 39.2356L107.193 35.8517L102.903 43.7635ZM64.7446 151.4L56.0512 149.07L53.0982 160.091L64.5039 160.396L64.7446 151.4ZM94.7676 39.3523L99.0575 31.4405L89.0273 26.0019L86.0742 37.0229L94.7676 39.3523ZM65.0922 153.964L96.3453 37.3259L78.9586 32.6671L47.7055 149.305L65.0922 153.964ZM20.572 159.993L56.2374 160.633L56.5603 142.636L20.8948 141.996L20.572 159.993ZM39.7134 116.415L14.0399 144.978L27.4269 157.011L53.1005 128.448L39.7134 116.415ZM14.0053 84.361L38.6151 126.935L54.1989 117.927L29.5891 75.3529L14.0053 84.361ZM59.9043 47.4753L17.2989 72.0618L26.2956 87.6521L68.9011 63.0656L59.9043 47.4753ZM47.6455 19.5606L55.5978 57.134L73.2077 53.4069L65.2554 15.8335L47.6455 19.5606ZM92.016 27.1254L60.8145 9.82589L52.0863 25.5681L83.2878 42.8676L92.016 27.1254ZM82.6891 153.977L111.596 46.0929L94.2097 41.4342L65.3024 149.318L82.6891 153.977ZM64.5039 160.396L73.7551 160.644L74.2364 142.65L64.9852 142.403L64.5039 160.396ZM86.0742 37.0229L56.0512 149.07L73.4379 153.729L103.461 41.6816L86.0742 37.0229ZM107.193 35.8517L99.0575 31.4405L90.4776 47.264L98.6131 51.6753L107.193 35.8517Z" fill="#0A2138" mask="url(#path-1-outside-1_1673_9247)"/>
</svg>
