<svg width="153" height="152" viewBox="0 0 153 152" fill="none" xmlns="http://www.w3.org/2000/svg">
<g filter="url(#filter0_d_1673_9718)">
<circle cx="65.5363" cy="58.5359" r="41.2624" transform="rotate(15 65.5363 58.5359)" fill="url(#paint0_linear_1673_9718)"/>
<circle cx="65.5363" cy="58.5359" r="39.3234" transform="rotate(15 65.5363 58.5359)" stroke="url(#paint1_linear_1673_9718)" stroke-width="3.87805"/>
</g>
<circle cx="65.5363" cy="58.5363" r="34.4007" transform="rotate(15 65.5363 58.5363)" stroke="url(#paint2_linear_1673_9718)" stroke-width="5.96746"/>
<g filter="url(#filter1_d_1673_9718)">
<path d="M92.0585 65.6419C88.1338 80.2891 73.0784 88.9813 58.4312 85.0566C43.7841 81.132 35.0918 66.0765 39.0165 51.4293C42.2951 39.1933 53.3415 31.113 65.4286 31.0724" stroke="url(#paint3_linear_1673_9718)" stroke-width="1.24098" stroke-linecap="round" shape-rendering="crispEdges"/>
</g>
<g filter="url(#filter2_d_1673_9718)">
<path fill-rule="evenodd" clip-rule="evenodd" d="M73.4417 29.0188C73.7727 29.1075 73.9691 29.4478 73.8804 29.7788L72.5137 34.8794C73.0846 35.0475 73.6449 35.2345 74.1943 35.4397C74.1431 35.0918 74.1607 34.7286 74.257 34.369L74.9579 31.7531C75.0466 31.4221 75.3868 31.2257 75.7179 31.3144C76.0489 31.4031 76.2453 31.7433 76.1566 32.0743L75.4557 34.6902C75.3029 35.2603 75.5225 35.848 75.9738 36.1848C86.6268 41.144 92.5068 53.1781 89.3605 64.9201C85.835 78.0777 72.3106 85.8861 59.153 82.3605C45.9954 78.8349 38.187 65.3105 41.7126 52.1529C44.8577 40.4152 55.9601 32.9345 67.6607 33.9596C68.2234 33.8965 68.7113 33.4962 68.8648 32.9234L69.5657 30.3075C69.6544 29.9765 69.9946 29.7801 70.3256 29.8688C70.6567 29.9575 70.8531 30.2977 70.7644 30.6287L70.0635 33.2446C69.967 33.6046 69.8003 33.9284 69.5816 34.2043C70.1592 34.301 70.7373 34.4189 71.315 34.5584L72.6817 29.4576C72.7704 29.1266 73.1107 28.9301 73.4417 29.0188ZM75.3536 37.2654C75.5272 37.3803 75.717 37.4762 75.921 37.5495L75.9251 37.5378C85.7401 42.3804 91.1026 53.624 88.1619 64.5989C84.8137 77.0945 71.9698 84.51 59.4742 81.1618C46.9786 77.8136 39.5631 64.9697 42.9113 52.4741C45.8516 41.5009 56.1147 34.4454 67.0341 35.1565L67.0322 35.167C67.2418 35.2048 67.4505 35.2169 67.6549 35.2053C68.9658 35.3259 70.2843 35.559 71.599 35.9112C72.9085 36.2621 74.1622 36.7173 75.3536 37.2654Z" fill="url(#paint4_linear_1673_9718)" shape-rendering="crispEdges"/>
</g>
<g filter="url(#filter3_d_1673_9718)">
<path d="M76.1394 40.8325C83.8495 45.4461 87.9034 54.7658 85.4625 63.8753C82.5134 74.8813 71.2005 81.4128 60.1945 78.4637C49.1884 75.5147 42.657 64.2018 45.606 53.1958C48.0469 44.0863 56.2175 38.0421 65.2014 37.9017" stroke="url(#paint5_linear_1673_9718)" stroke-width="1.24098" stroke-linecap="round" shape-rendering="crispEdges"/>
</g>
<g filter="url(#filter4_d_1673_9718)">
<path fill-rule="evenodd" clip-rule="evenodd" d="M69.8343 42.5041C60.9798 40.1315 51.8785 45.3862 49.5059 54.2407C47.1334 63.0951 52.388 72.1965 61.2425 74.569C70.097 76.9416 79.1983 71.6869 81.5709 62.8324C83.9434 53.9779 78.6888 44.8766 69.8343 42.5041ZM48.3072 53.9195C50.8572 44.403 60.639 38.7554 70.1555 41.3054C79.672 43.8553 85.3195 53.6371 82.7696 63.1536C80.2196 72.6701 70.4378 78.3177 60.9213 75.7677C51.4048 73.2178 45.7573 63.436 48.3072 53.9195ZM68.952 45.8005C61.918 43.9157 54.688 48.09 52.8033 55.1239C50.9185 62.1579 55.0928 69.3879 62.1267 71.2726C69.1607 73.1574 76.3907 68.9831 78.2754 61.9492C80.1602 54.9152 75.9859 47.6852 68.952 45.8005ZM51.6046 54.8028C53.6667 47.1068 61.5772 42.5397 69.2732 44.6018C76.9691 46.6639 81.5362 54.5744 79.4741 62.2704C77.412 69.9663 69.5015 74.5335 61.8055 72.4713C54.1096 70.4092 49.5424 62.4987 51.6046 54.8028ZM56.1045 56.0072C57.5014 50.7938 62.8601 47.7 68.0735 49.0969C73.2869 50.4938 76.3808 55.8525 74.9839 61.0659C73.5869 66.2793 68.2282 69.3732 63.0148 67.9763C57.8014 66.5793 54.7076 61.2206 56.1045 56.0072ZM68.3947 47.8982C62.5193 46.3239 56.4801 49.8106 54.9058 55.686C53.3315 61.5615 56.8182 67.6006 62.6936 69.175C68.569 70.7493 74.6082 67.2625 76.1826 61.3871C77.7569 55.5117 74.2701 49.4725 68.3947 47.8982Z" fill="url(#paint6_linear_1673_9718)" shape-rendering="crispEdges"/>
</g>
<path fill-rule="evenodd" clip-rule="evenodd" d="M87.4316 53.179L88.8972 54.7855L88.8456 57.9661L48.6426 47.1937L47.2741 45.5559L50.1882 44.4134L87.4316 53.179ZM87.3474 59.5324L88.8909 60.7602L88.6874 73.4116L78.4673 64.2841L63.2781 72.9841L61.8185 71.7174L54.4665 57.8531L41.0518 60.6477L39.6185 59.3934L47.2088 49.5915L87.3474 59.5324Z" fill="#008FBB" fill-opacity="0.32"/>
<path fill-rule="evenodd" clip-rule="evenodd" d="M48.794 42.8242L87.503 53.1962L87.4514 56.3769L47.2483 45.6045L48.794 42.8242ZM45.715 48.3797L87.397 59.5484L87.1936 72.1997L76.9734 63.0723L61.7843 71.7723L52.9726 56.6413L39.558 59.4358L45.715 48.3797Z" fill="url(#paint7_linear_1673_9718)"/>
<path d="M96.992 69.621C97.0328 69.5025 97.0973 69.4069 97.1856 69.3341C97.274 69.2614 97.3812 69.2173 97.5073 69.2018C97.6343 69.188 97.7722 69.2067 97.921 69.2579C98.0698 69.3091 98.1893 69.3789 98.2797 69.4674C98.3709 69.5577 98.4289 69.6586 98.4538 69.7703C98.4788 69.8819 98.4708 69.997 98.4301 70.1156C98.3898 70.2328 98.3255 70.3277 98.2371 70.4004C98.1488 70.4731 98.0411 70.5164 97.9142 70.5302C97.7881 70.5457 97.6506 70.5279 97.5018 70.4767C97.353 70.4255 97.233 70.3548 97.1418 70.2645C97.0515 70.176 96.9939 70.0759 96.9689 69.9643C96.944 69.8526 96.9517 69.7382 96.992 69.621ZM97.312 69.731C97.2894 69.7969 97.3031 69.8598 97.3532 69.9197C97.4041 69.9814 97.4987 70.036 97.637 70.0836C97.7753 70.1311 97.8828 70.146 97.9596 70.1283C98.0373 70.1123 98.0874 70.0714 98.1101 70.0055C98.1332 69.9383 98.1192 69.8739 98.0683 69.8122C98.0182 69.7523 97.924 69.6985 97.7858 69.651C97.6475 69.6034 97.5395 69.5877 97.4619 69.6037C97.3851 69.6214 97.3351 69.6639 97.312 69.731Z" fill="white" fill-opacity="0.32"/>
<path d="M96.4413 74.638L95.1372 73.9766L95.3243 73.6077L96.3434 74.1245L96.4662 73.8823L96.7512 74.0269L96.4413 74.638Z" fill="white" fill-opacity="0.32"/>
<path d="M92.7686 77.804C92.8404 77.7013 92.9287 77.6271 93.0336 77.5814C93.1385 77.5358 93.2537 77.5228 93.3793 77.5425C93.5051 77.5641 93.6326 77.62 93.7616 77.7101C93.8906 77.8002 93.9864 77.9002 94.049 78.0101C94.1118 78.1219 94.1399 78.2349 94.1332 78.3491C94.1265 78.4633 94.0873 78.5718 94.0155 78.6746C93.9446 78.7762 93.8567 78.8499 93.7518 78.8955C93.6469 78.9412 93.5315 78.9532 93.4056 78.9315C93.2801 78.9118 93.1528 78.8569 93.0238 78.7669C92.8947 78.6768 92.7988 78.5758 92.7359 78.464C92.6734 78.3541 92.6454 78.242 92.6522 78.1278C92.6589 78.0136 92.6977 77.9057 92.7686 77.804ZM93.0461 77.9978C93.0062 78.0549 93.0022 78.1191 93.0339 78.1905C93.0659 78.2638 93.1419 78.3423 93.2617 78.426C93.3816 78.5097 93.481 78.5536 93.5597 78.5576C93.6387 78.5635 93.6982 78.538 93.7381 78.4809C93.7787 78.4226 93.783 78.3569 93.751 78.2836C93.7193 78.2122 93.6435 78.1346 93.5236 78.0509C93.4037 77.9672 93.3043 77.9224 93.2252 77.9164C93.1465 77.9124 93.0868 77.9395 93.0461 77.9978Z" fill="white" fill-opacity="0.32"/>
<path d="M90.9353 82.3939L89.8592 81.404L90.1392 81.0996L90.9801 81.8732L91.164 81.6733L91.3992 81.8897L90.9353 82.3939Z" fill="white" fill-opacity="0.32"/>
<path d="M86.5391 84.4419C86.6359 84.3624 86.741 84.3148 86.8544 84.2992C86.9677 84.2837 87.0822 84.3023 87.1977 84.3553C87.313 84.4101 87.4206 84.4984 87.5204 84.62C87.6203 84.7416 87.6855 84.8638 87.7159 84.9865C87.7462 85.1112 87.7427 85.2276 87.7054 85.3358C87.668 85.4439 87.6009 85.5377 87.504 85.6173C87.4082 85.6959 87.3037 85.743 87.1903 85.7586C87.077 85.7742 86.9627 85.7545 86.8473 85.6996C86.7318 85.6467 86.6241 85.5595 86.5243 85.4378C86.4244 85.3162 86.3594 85.1931 86.3291 85.0684C86.2986 84.9457 86.302 84.8302 86.3394 84.7221C86.3767 84.6139 86.4433 84.5205 86.5391 84.4419ZM86.7538 84.7035C86.7 84.7476 86.6787 84.8084 86.6899 84.8857C86.7009 84.9649 86.7528 85.061 86.8456 85.1741C86.9384 85.2871 87.0221 85.3562 87.0968 85.3813C87.1713 85.4084 87.2355 85.3999 87.2893 85.3557C87.3442 85.3106 87.3661 85.2485 87.3551 85.1692C87.3439 85.0919 87.2919 84.9968 87.1991 84.8838C87.1064 84.7708 87.0227 84.7007 86.9482 84.6736C86.8735 84.6484 86.8087 84.6584 86.7538 84.7035Z" fill="white" fill-opacity="0.32"/>
<path d="M83.4885 88.3934L82.7209 87.1488L83.0729 86.9317L83.6727 87.9042L83.9039 87.7617L84.0716 88.0337L83.4885 88.3934Z" fill="white" fill-opacity="0.32"/>
<path d="M78.7289 89.1627C78.8437 89.1123 78.9577 89.0948 79.071 89.1103C79.1844 89.1259 79.2895 89.1747 79.3865 89.2568C79.4828 89.3407 79.5626 89.4547 79.626 89.5987C79.6894 89.7428 79.7192 89.878 79.7155 90.0044C79.711 90.1326 79.6762 90.2438 79.6111 90.3379C79.546 90.4319 79.4561 90.5042 79.3414 90.5547C79.2279 90.6046 79.1145 90.6218 79.0012 90.6062C78.8879 90.5907 78.7831 90.5409 78.6868 90.457C78.5898 90.3749 78.5096 90.2619 78.4463 90.1178C78.3829 89.9738 78.3534 89.8376 78.3578 89.7094C78.3616 89.583 78.396 89.4728 78.4611 89.3787C78.5262 89.2846 78.6155 89.2126 78.7289 89.1627ZM78.8652 89.4725C78.8015 89.5005 78.7646 89.5533 78.7546 89.6307C78.7438 89.71 78.7679 89.8166 78.8267 89.9504C78.8856 90.0842 78.9477 90.1733 79.0128 90.2177C79.0773 90.2639 79.1414 90.273 79.2051 90.2449C79.2701 90.2163 79.308 90.1624 79.3188 90.0831C79.3288 90.0057 79.3044 89.9 79.2455 89.7662C79.1866 89.6323 79.1249 89.5423 79.0605 89.4961C78.9953 89.4517 78.9302 89.4439 78.8652 89.4725Z" fill="white" fill-opacity="0.32"/>
<path d="M74.718 92.1497L74.3151 90.7441L74.7127 90.6301L75.0276 91.7285L75.2886 91.6537L75.3767 91.961L74.718 92.1497Z" fill="white" fill-opacity="0.32"/>
<path d="M69.9468 91.5994C70.0709 91.5817 70.1854 91.5955 70.2904 91.641C70.3954 91.6865 70.4835 91.7618 70.5549 91.867C70.625 91.9737 70.6712 92.1049 70.6935 92.2607C70.7158 92.4165 70.7081 92.5548 70.6705 92.6755C70.6317 92.7978 70.5683 92.8955 70.4803 92.9686C70.3923 93.0417 70.2862 93.0871 70.1622 93.1048C70.0395 93.1224 69.9256 93.1084 69.8207 93.0629C69.7157 93.0175 69.6281 92.9414 69.558 92.8346C69.4867 92.7295 69.4399 92.599 69.4176 92.4432C69.3953 92.2874 69.4036 92.1484 69.4423 92.0261C69.4799 91.9054 69.5427 91.8084 69.6308 91.7354C69.7188 91.6623 69.8241 91.617 69.9468 91.5994ZM69.9948 91.9344C69.9258 91.9443 69.8761 91.9851 69.8456 92.057C69.8139 92.1305 69.8084 92.2396 69.8291 92.3844C69.8498 92.5291 69.8856 92.6316 69.9364 92.6919C69.986 92.7537 70.0453 92.7797 70.1143 92.7698C70.1846 92.7598 70.2356 92.718 70.2673 92.6445C70.2978 92.5727 70.3027 92.4643 70.282 92.3196C70.2613 92.1748 70.2261 92.0715 70.1765 92.0097C70.1256 91.9495 70.0651 91.9244 69.9948 91.9344Z" fill="white" fill-opacity="0.32"/>
<path d="M65.043 91.8882C65.1683 91.8893 65.2795 91.9202 65.3765 91.9809C65.4734 92.0416 65.5493 92.1293 65.604 92.244C65.6573 92.36 65.6833 92.4967 65.682 92.6541C65.6806 92.8115 65.6523 92.947 65.597 93.0607C65.5403 93.1758 65.463 93.2629 65.365 93.322C65.267 93.381 65.1553 93.41 65.03 93.4089C64.9061 93.4079 64.7956 93.377 64.6986 93.3163C64.6017 93.2555 64.5265 93.1672 64.4732 93.0511C64.4185 92.9364 64.3918 92.8004 64.3931 92.6431C64.3945 92.4857 64.4235 92.3495 64.4802 92.2344C64.5355 92.1206 64.6121 92.0343 64.7101 91.9752C64.8081 91.9162 64.9191 91.8872 65.043 91.8882ZM65.0401 92.2266C64.9705 92.226 64.9152 92.259 64.8742 92.3255C64.8319 92.3934 64.8101 92.5004 64.8088 92.6466C64.8076 92.7928 64.8275 92.8996 64.8688 92.9668C64.9086 93.0353 64.9633 93.0699 65.0329 93.0705C65.1039 93.0711 65.1606 93.0375 65.203 92.9696C65.2439 92.9031 65.265 92.7968 65.2663 92.6505C65.2675 92.5043 65.2483 92.3969 65.2085 92.3283C65.1672 92.2611 65.1111 92.2272 65.0401 92.2266Z" fill="white" fill-opacity="0.32"/>
<path d="M60.1579 91.4511C60.2818 91.4703 60.3873 91.517 60.4744 91.5911C60.5616 91.6652 60.6239 91.7629 60.6615 91.8843C60.6974 92.0069 60.7033 92.1459 60.6792 92.3014C60.6551 92.4569 60.6075 92.5869 60.5363 92.6914C60.4635 92.7971 60.3744 92.8721 60.2689 92.9163C60.1634 92.9606 60.0487 92.9731 59.9248 92.9539C59.8024 92.9349 59.6975 92.8883 59.6104 92.8142C59.5232 92.7401 59.4617 92.6418 59.4257 92.5192C59.3882 92.3978 59.3815 92.2594 59.4056 92.1039C59.4297 91.9484 59.4781 91.8178 59.5509 91.7121C59.6221 91.6076 59.7104 91.5332 59.8159 91.489C59.9214 91.4447 60.0354 91.4321 60.1579 91.4511ZM60.106 91.7855C60.0372 91.7748 59.9778 91.7994 59.9276 91.8593C59.8759 91.9203 59.8388 92.0231 59.8164 92.1676C59.794 92.3121 59.7983 92.4206 59.8293 92.493C59.8588 92.5666 59.9079 92.6088 59.9767 92.6195C60.0469 92.6303 60.1079 92.6053 60.1596 92.5442C60.2097 92.4844 60.246 92.3822 60.2684 92.2377C60.2908 92.0932 60.2873 91.9841 60.2579 91.9105C60.2268 91.8381 60.1762 91.7964 60.106 91.7855Z" fill="white" fill-opacity="0.32"/>
<path d="M55.0359 91.7595L55.4578 90.3594L55.8538 90.4787L55.5242 91.5728L55.7842 91.6511L55.692 91.9571L55.0359 91.7595Z" fill="white" fill-opacity="0.32"/>
<path d="M51.3246 88.7131C51.4385 88.7654 51.5272 88.8392 51.5907 88.9343C51.6543 89.0295 51.6875 89.1406 51.6904 89.2676C51.6914 89.3953 51.659 89.5306 51.5933 89.6736C51.5275 89.8166 51.4461 89.9286 51.349 90.0096C51.2501 90.0913 51.1439 90.139 51.0303 90.1527C50.9167 90.1664 50.803 90.147 50.6891 90.0946C50.5765 90.0428 50.4884 89.9694 50.4249 89.8742C50.3614 89.7791 50.3291 89.6677 50.328 89.5399C50.3251 89.4129 50.3566 89.2779 50.4223 89.135C50.4881 88.992 50.5705 88.8797 50.6694 88.7979C50.7664 88.7169 50.8718 88.6695 50.9853 88.6559C51.0989 88.6422 51.212 88.6613 51.3246 88.7131ZM51.1832 89.0205C51.1199 88.9914 51.056 88.9988 50.9914 89.0426C50.9249 89.0872 50.8611 89.1758 50.8 89.3087C50.7389 89.4415 50.7134 89.547 50.7234 89.6252C50.7315 89.7041 50.7673 89.7581 50.8305 89.7872C50.895 89.8169 50.9605 89.8094 51.027 89.7649C51.0916 89.7211 51.1545 89.6327 51.2156 89.4999C51.2767 89.367 51.3032 89.2612 51.295 89.1823C51.285 89.1041 51.2477 89.0502 51.1832 89.0205Z" fill="white" fill-opacity="0.32"/>
<path d="M46.4281 87.6859L47.2148 86.4533L47.5635 86.6758L46.9487 87.639L47.1776 87.7851L47.0057 88.0545L46.4281 87.6859Z" fill="white" fill-opacity="0.32"/>
<path d="M43.6851 83.7468C43.7804 83.8282 43.8457 83.9233 43.881 84.0322C43.9162 84.141 43.918 84.2569 43.8862 84.38C43.8525 84.5031 43.7845 84.6246 43.6823 84.7442C43.5802 84.8639 43.4713 84.9496 43.3559 85.0011C43.2385 85.0529 43.1233 85.0699 43.0102 85.0521C42.8972 85.0344 42.793 84.9848 42.6977 84.9034C42.6035 84.823 42.5387 84.7283 42.5034 84.6195C42.4682 84.5106 42.4674 84.3946 42.5012 84.2715C42.5329 84.1484 42.5999 84.0271 42.7021 83.9074C42.8043 83.7877 42.9141 83.702 43.0315 83.6503C43.1469 83.5987 43.2612 83.5818 43.3742 83.5995C43.4872 83.6173 43.5908 83.6664 43.6851 83.7468ZM43.4654 84.0042C43.4124 83.959 43.3489 83.9487 43.2748 83.9733C43.1987 83.9981 43.1132 84.0661 43.0182 84.1773C42.9233 84.2885 42.87 84.3831 42.8584 84.4611C42.8448 84.5392 42.8645 84.6009 42.9174 84.6461C42.9715 84.6922 43.0365 84.7028 43.1126 84.6781C43.1867 84.6535 43.2712 84.5855 43.3662 84.4743C43.4611 84.3631 43.5154 84.2685 43.529 84.1903C43.5406 84.1124 43.5194 84.0503 43.4654 84.0042Z" fill="white" fill-opacity="0.32"/>
<path d="M40.232 80.2711C40.3143 80.3656 40.3649 80.4692 40.3838 80.5821C40.4027 80.6949 40.3874 80.8098 40.3379 80.9268C40.2864 81.0437 40.2013 81.1538 40.0827 81.2572C39.964 81.3606 39.8438 81.4293 39.722 81.4634C39.5983 81.4973 39.4818 81.4972 39.3726 81.463C39.2635 81.4288 39.1677 81.3645 39.0854 81.27C39.0039 81.1765 38.9538 81.0734 38.9349 80.9606C38.916 80.8477 38.9323 80.7329 38.9838 80.616C39.0333 80.499 39.1174 80.3888 39.236 80.2854C39.3547 80.182 39.4759 80.1134 39.5996 80.0795C39.7214 80.0454 39.8369 80.0455 39.9461 80.0796C40.0553 80.1138 40.1506 80.1776 40.232 80.2711ZM39.9768 80.4933C39.9311 80.4408 39.8698 80.4213 39.7928 80.4348C39.7139 80.4481 39.6194 80.5028 39.5091 80.5988C39.3989 80.6949 39.3323 80.7806 39.3093 80.856C39.2844 80.9313 39.2948 80.9952 39.3405 81.0477C39.3872 81.1013 39.4499 81.1214 39.5288 81.108C39.6058 81.0946 39.6994 81.0398 39.8096 80.9438C39.9199 80.8477 39.9875 80.7621 40.0124 80.6868C40.0353 80.6114 40.0235 80.5469 39.9768 80.4933Z" fill="white" fill-opacity="0.32"/>
<path d="M36.1974 77.3404L37.4191 76.5369L37.6464 76.8825L36.6917 77.5103L36.8409 77.7372L36.5739 77.9128L36.1974 77.3404Z" fill="white" fill-opacity="0.32"/>
<path d="M35.2939 72.6116C35.3477 72.7248 35.3685 72.8382 35.3563 72.952C35.344 73.0657 35.2983 73.1723 35.2191 73.2716C35.138 73.3703 35.0264 73.4534 34.8842 73.5209C34.7421 73.5885 34.6078 73.6222 34.4814 73.6222C34.353 73.6215 34.2409 73.59 34.145 73.5276C34.0491 73.4653 33.9742 73.3775 33.9204 73.2643C33.8672 73.1523 33.8467 73.0395 33.859 72.9257C33.8712 72.812 33.9179 72.7058 33.999 72.6071C34.0782 72.5078 34.1889 72.4244 34.331 72.3568C34.4732 72.2893 34.6084 72.2558 34.7367 72.2565C34.8631 72.2566 34.9743 72.2878 35.0703 72.3501C35.1662 72.4125 35.2407 72.4996 35.2939 72.6116ZM34.9883 72.7568C34.9584 72.6939 34.9046 72.6586 34.8269 72.6508C34.7473 72.6423 34.6415 72.6695 34.5095 72.7323C34.3774 72.795 34.2901 72.8596 34.2477 72.9261C34.2034 72.9918 34.1962 73.0561 34.2261 73.119C34.2565 73.1832 34.3116 73.2195 34.3911 73.2279C34.4688 73.2357 34.5737 73.2082 34.7058 73.1455C34.8379 73.0827 34.9261 73.0184 34.9704 72.9527C35.0128 72.8862 35.0188 72.821 34.9883 72.7568Z" fill="white" fill-opacity="0.32"/>
<path d="M32.1974 68.7124L33.5906 68.2684L33.7162 68.6625L32.6275 69.0094L32.7099 69.2682L32.4054 69.3652L32.1974 68.7124Z" fill="white" fill-opacity="0.32"/>
<path d="M31.1702 64.3811L32.609 64.1203L32.6828 64.5273L31.5584 64.7311L31.6069 64.9983L31.2924 65.0553L31.1702 64.3811Z" fill="white" fill-opacity="0.32"/>
<path d="M30.7048 59.9983L32.1651 59.9223L32.1866 60.3353L31.0455 60.3947L31.0596 60.6659L30.7405 60.6825L30.7048 59.9983Z" fill="white" fill-opacity="0.32"/>
<path d="M30.7944 55.651L32.2528 55.7581L32.2225 56.1706L31.0829 56.0869L31.063 56.3577L30.7443 56.3343L30.7944 55.651Z" fill="white" fill-opacity="0.32"/>
<path d="M32.9617 51.3314C32.9354 51.4539 32.8827 51.5566 32.8037 51.6393C32.7246 51.722 32.6235 51.7786 32.5001 51.8091C32.3757 51.8379 32.2366 51.8358 32.0827 51.8027C31.9288 51.7697 31.8018 51.7146 31.7016 51.6375C31.6003 51.5588 31.5306 51.4655 31.4925 51.3576C31.4544 51.2497 31.4486 51.1345 31.4749 51.0119C31.5009 50.8908 31.5534 50.7888 31.6325 50.7061C31.7115 50.6234 31.8132 50.5676 31.9376 50.5388C32.061 50.5083 32.1996 50.5096 32.3534 50.5426C32.5073 50.5757 32.6349 50.6316 32.7362 50.7103C32.8364 50.7874 32.9056 50.8799 32.9436 50.9878C32.9817 51.0957 32.9877 51.2102 32.9617 51.3314ZM32.6308 51.2603C32.6455 51.1922 32.6243 51.1314 32.5675 51.0779C32.5095 51.0227 32.4091 50.9798 32.2661 50.9491C32.1232 50.9183 32.0146 50.9164 31.9405 50.9432C31.8653 50.9683 31.8204 51.015 31.8057 51.083C31.7908 51.1525 31.8123 51.2148 31.8703 51.27C31.9271 51.3235 32.0271 51.3656 32.17 51.3963C32.313 51.427 32.4221 51.4298 32.4973 51.4047C32.5714 51.3779 32.6159 51.3297 32.6308 51.2603Z" fill="white" fill-opacity="0.32"/>
<path d="M32.9279 46.2093L34.3013 46.7114L34.1592 47.0999L33.0861 46.7075L32.9928 46.9626L32.6926 46.8528L32.9279 46.2093Z" fill="white" fill-opacity="0.32"/>
<path d="M34.7283 42.209L36.0273 42.8803L35.8374 43.2478L34.8223 42.7231L34.6976 42.9644L34.4137 42.8177L34.7283 42.209Z" fill="white" fill-opacity="0.32"/>
<path d="M38.4376 39.0511C38.3651 39.1533 38.2762 39.2268 38.1709 39.2717C38.0657 39.3166 37.9504 39.3287 37.825 39.308C37.6993 39.2855 37.5723 39.2286 37.444 39.1376C37.3156 39.0465 37.2206 38.9458 37.1589 38.8355C37.0968 38.7231 37.0696 38.6099 37.0771 38.4958C37.0847 38.3816 37.1247 38.2734 37.1973 38.1712C37.269 38.0701 37.3575 37.9971 37.4627 37.9523C37.5679 37.9074 37.6834 37.8963 37.8091 37.9188C37.9345 37.9395 38.0613 37.9953 38.1897 38.0864C38.318 38.1774 38.4132 38.2791 38.4753 38.3914C38.537 38.5018 38.5641 38.6141 38.5565 38.7282C38.5489 38.8424 38.5093 38.95 38.4376 39.0511ZM38.1616 38.8553C38.2019 38.7985 38.2064 38.7343 38.1753 38.6627C38.1438 38.5891 38.0684 38.51 37.9492 38.4254C37.8299 38.3408 37.7309 38.2962 37.6522 38.2916C37.5732 38.2851 37.5136 38.3102 37.4733 38.367C37.4322 38.4249 37.4274 38.4907 37.4589 38.5642C37.49 38.6358 37.5652 38.7139 37.6845 38.7985C37.8037 38.8831 37.9029 38.9287 37.9819 38.9353C38.0606 38.9399 38.1205 38.9132 38.1616 38.8553Z" fill="white" fill-opacity="0.32"/>
<path d="M41.4908 35.3921C41.4042 35.4828 41.3056 35.5427 41.195 35.5718C41.0844 35.601 40.9685 35.5963 40.8475 35.5577C40.7264 35.5172 40.6089 35.4426 40.4951 35.3339C40.3812 35.2253 40.3018 35.1119 40.2567 34.9937C40.2115 34.8736 40.201 34.7576 40.225 34.6458C40.249 34.5339 40.3042 34.4327 40.3908 34.342C40.4764 34.2524 40.5745 34.193 40.6851 34.1638C40.7957 34.1346 40.9116 34.1403 41.0327 34.1808C41.1538 34.2194 41.2712 34.293 41.385 34.4017C41.4989 34.5103 41.5784 34.6247 41.6235 34.7448C41.6686 34.863 41.6791 34.978 41.6551 35.0898C41.6311 35.2017 41.5763 35.3025 41.4908 35.3921ZM41.246 35.1584C41.2941 35.1081 41.3079 35.0452 41.2874 34.9698C41.2669 34.8925 41.2038 34.8033 41.098 34.7024C40.9922 34.6014 40.9008 34.5429 40.8236 34.527C40.7463 34.5091 40.6836 34.5253 40.6356 34.5757C40.5865 34.6271 40.5723 34.6914 40.5928 34.7688C40.6132 34.8441 40.6763 34.9323 40.7821 35.0333C40.8879 35.1342 40.9794 35.1937 41.0566 35.2116C41.1338 35.2275 41.1969 35.2098 41.246 35.1584Z" fill="white" fill-opacity="0.32"/>
<path d="M44.1481 31.0077L45.0551 32.1546L44.7307 32.4112L44.0219 31.5149L43.8089 31.6834L43.6106 31.4327L44.1481 31.0077Z" fill="white" fill-opacity="0.32"/>
<path d="M48.673 29.7418C48.5652 29.8056 48.4541 29.8366 48.3397 29.8348C48.2253 29.8329 48.115 29.797 48.0089 29.7271C47.9033 29.6553 47.8104 29.5517 47.7303 29.4163C47.6501 29.2809 47.6043 29.1502 47.5929 29.0243C47.5819 28.8964 47.6031 28.7819 47.6565 28.6807C47.7099 28.5795 47.7905 28.497 47.8984 28.4332C48.005 28.37 48.1155 28.3394 48.2299 28.3413C48.3443 28.3431 48.4543 28.38 48.5599 28.4518C48.6661 28.5217 48.7592 28.6243 48.8394 28.7597C48.9195 28.8951 48.9651 29.0268 48.976 29.1546C48.9875 29.2805 48.9665 29.3941 48.9131 29.4953C48.8597 29.5965 48.7797 29.6787 48.673 29.7418ZM48.5007 29.4506C48.5606 29.4151 48.5909 29.3583 48.5916 29.2802C48.5928 29.2002 48.5561 29.0973 48.4816 28.9715C48.4072 28.8457 48.3349 28.7646 48.2649 28.7284C48.1954 28.6902 48.1307 28.6889 48.0708 28.7244C48.0096 28.7605 47.9785 28.8186 47.9773 28.8986C47.9766 28.9767 48.0135 29.0787 48.088 29.2045C48.1625 29.3304 48.2345 29.4123 48.304 29.4505C48.374 29.4867 48.4395 29.4868 48.5007 29.4506Z" fill="white" fill-opacity="0.32"/>
<path d="M53.0183 27.6018C52.9024 27.6494 52.7879 27.6639 52.675 27.6455C52.5621 27.627 52.4582 27.5755 52.3634 27.491C52.2693 27.4046 52.1924 27.2887 52.1327 27.1431C52.073 26.9974 52.0467 26.8615 52.0536 26.7353C52.0613 26.6072 52.0989 26.4969 52.1664 26.4046C52.2339 26.3122 52.3256 26.2422 52.4416 26.1947C52.5563 26.1477 52.6701 26.1334 52.783 26.1518C52.8959 26.1703 52.9994 26.2227 53.0935 26.309C53.1883 26.3936 53.2656 26.5086 53.3253 26.6542C53.385 26.7999 53.411 26.9367 53.4033 27.0648C53.3963 27.191 53.3591 27.3004 53.2916 27.3927C53.2241 27.4851 53.133 27.5548 53.0183 27.6018ZM52.89 27.2887C52.9544 27.2623 52.9926 27.2105 53.0047 27.1333C53.0174 27.0543 52.9961 26.9472 52.9406 26.8119C52.8852 26.6766 52.8255 26.5859 52.7614 26.5399C52.6982 26.4921 52.6344 26.4814 52.5699 26.5078C52.5042 26.5348 52.465 26.5877 52.4522 26.6667C52.4402 26.7439 52.4619 26.8501 52.5173 26.9854C52.5728 27.1207 52.6322 27.2123 52.6954 27.2601C52.7594 27.3061 52.8243 27.3156 52.89 27.2887Z" fill="white" fill-opacity="0.32"/>
<path d="M57.2515 24.6679L57.6128 26.0848L57.2121 26.187L56.9297 25.0797L56.6666 25.1468L56.5876 24.8372L57.2515 24.6679Z" fill="white" fill-opacity="0.32"/>
<path d="M61.989 25.3486C61.8645 25.3626 61.7504 25.3453 61.6468 25.2967C61.5433 25.2481 61.4574 25.1702 61.3893 25.063C61.3224 24.9542 61.2801 24.8216 61.2625 24.6652C61.2449 24.5088 61.2567 24.3709 61.2978 24.2513C61.3403 24.1302 61.4066 24.0345 61.4967 23.9641C61.5869 23.8936 61.6942 23.8514 61.8188 23.8374C61.942 23.8235 62.0553 23.8409 62.1589 23.8895C62.2625 23.9381 62.3477 24.0167 62.4146 24.1255C62.4828 24.2328 62.5256 24.3646 62.5432 24.521C62.5609 24.6773 62.5485 24.8161 62.506 24.9372C62.4649 25.0567 62.3992 25.1517 62.309 25.2221C62.2188 25.2925 62.1122 25.3347 61.989 25.3486ZM61.9511 25.0123C62.0203 25.0045 62.0712 24.9651 62.1039 24.8942C62.1378 24.8217 62.1465 24.7128 62.1302 24.5675C62.1138 24.4222 62.0811 24.3187 62.0321 24.2569C61.9843 24.1936 61.9259 24.1659 61.8567 24.1737C61.7861 24.1816 61.7339 24.2218 61.7 24.2943C61.6673 24.3653 61.6592 24.4734 61.6756 24.6187C61.6919 24.764 61.724 24.8683 61.7718 24.9316C61.8208 24.9933 61.8806 25.0202 61.9511 25.0123Z" fill="white" fill-opacity="0.32"/>
<path d="M66.5645 23.6845L66.5298 25.1463L66.1163 25.1365L66.1435 23.9942L65.872 23.9877L65.8796 23.6682L66.5645 23.6845Z" fill="white" fill-opacity="0.32"/>
<path d="M70.975 25.6135C70.8513 25.5933 70.7461 25.5458 70.6596 25.471C70.573 25.3963 70.5114 25.298 70.4748 25.1764C70.4398 25.0535 70.4349 24.9145 70.4602 24.7592C70.4855 24.6038 70.5342 24.4742 70.6061 24.3702C70.6797 24.2651 70.7694 24.1908 70.8753 24.1474C70.9811 24.104 71.0959 24.0924 71.2196 24.1125C71.3419 24.1325 71.4464 24.1798 71.533 24.2546C71.6195 24.3294 71.6803 24.4282 71.7153 24.551C71.752 24.6727 71.7576 24.8112 71.7323 24.9665C71.707 25.1218 71.6575 25.252 71.584 25.3571C71.512 25.4611 71.4231 25.5348 71.3172 25.5782C71.2114 25.6216 71.0973 25.6334 70.975 25.6135ZM71.0294 25.2795C71.0981 25.2907 71.1578 25.2665 71.2084 25.207C71.2606 25.1464 71.2985 25.0439 71.322 24.8996C71.3455 24.7553 71.3421 24.6468 71.3116 24.5741C71.2827 24.5002 71.2339 24.4577 71.1652 24.4465C71.0951 24.4351 71.0339 24.4597 70.9817 24.5203C70.9311 24.5798 70.894 24.6817 70.8705 24.826C70.847 24.9703 70.8497 25.0794 70.8785 25.1533C70.909 25.226 70.9593 25.268 71.0294 25.2795Z" fill="white" fill-opacity="0.32"/>
<path d="M76.0855 25.3129L75.6528 26.7096L75.2578 26.5872L75.5959 25.4958L75.3365 25.4154L75.431 25.1101L76.0855 25.3129Z" fill="white" fill-opacity="0.32"/>
<path d="M79.9007 28.4148C79.7872 28.3615 79.6991 28.2871 79.6363 28.1915C79.5735 28.0958 79.5411 27.9845 79.5392 27.8575C79.5391 27.7297 79.5725 27.5947 79.6394 27.4522C79.7063 27.3098 79.7885 27.1984 79.8862 27.1181C79.9858 27.0371 80.0924 26.9902 80.2061 26.9774C80.3197 26.9646 80.4333 26.9849 80.5468 27.0381C80.659 27.0908 80.7465 27.1649 80.8093 27.2605C80.8721 27.3562 80.9035 27.4678 80.9036 27.5955C80.9055 27.7226 80.873 27.8573 80.8062 27.9998C80.7393 28.1422 80.6561 28.254 80.5566 28.3349C80.4589 28.4152 80.3532 28.4618 80.2395 28.4746C80.1258 28.4874 80.0129 28.4674 79.9007 28.4148ZM80.0445 28.1084C80.1075 28.138 80.1715 28.1311 80.2365 28.0878C80.3033 28.0437 80.3677 27.9555 80.4299 27.8232C80.492 27.6908 80.5183 27.5855 80.5089 27.5072C80.5013 27.4283 80.466 27.374 80.403 27.3445C80.3387 27.3143 80.2732 27.3212 80.2063 27.3652C80.1414 27.4086 80.0778 27.4964 80.0157 27.6288C79.9536 27.7612 79.9263 27.8668 79.9339 27.9458C79.9433 28.024 79.9802 28.0783 80.0445 28.1084Z" fill="white" fill-opacity="0.32"/>
<path d="M84.7289 29.4302L83.9329 30.6568L83.586 30.4317L84.208 29.4732L83.9801 29.3253L84.1541 29.0572L84.7289 29.4302Z" fill="white" fill-opacity="0.32"/>
<path d="M87.4814 33.3986C87.3867 33.3165 87.3221 33.2209 87.2876 33.1118C87.2532 33.0027 87.2523 32.8868 87.285 32.764C87.3197 32.6411 87.3885 32.5202 87.4916 32.4012C87.5946 32.2823 87.7041 32.1975 87.8199 32.1468C87.9377 32.0959 88.0531 32.0797 88.1659 32.0983C88.2788 32.1169 88.3826 32.1673 88.4774 32.2493C88.571 32.3305 88.6351 32.4257 88.6695 32.5348C88.704 32.6438 88.7039 32.7599 88.6692 32.8828C88.6365 33.0056 88.5686 33.1264 88.4656 33.2453C88.3625 33.3642 88.2521 33.4491 88.1343 33.5C88.0185 33.5507 87.9041 33.5668 87.7912 33.5482C87.6783 33.5296 87.5751 33.4797 87.4814 33.3986ZM87.703 33.1428C87.7556 33.1884 87.8191 33.1992 87.8934 33.1751C87.9697 33.1509 88.0557 33.0836 88.1514 32.9731C88.2472 32.8626 88.3012 32.7684 88.3134 32.6905C88.3276 32.6125 88.3083 32.5507 88.2557 32.5051C88.2021 32.4586 88.1371 32.4474 88.0608 32.4716C87.9865 32.4957 87.9015 32.563 87.8057 32.6735C87.71 32.784 87.655 32.8782 87.6408 32.9563C87.6286 33.0341 87.6494 33.0963 87.703 33.1428Z" fill="white" fill-opacity="0.32"/>
<path d="M90.9319 36.897C90.8503 36.8019 90.8004 36.6978 90.7824 36.5848C90.7643 36.4719 90.7805 36.3571 90.8308 36.2404C90.8832 36.1239 90.969 36.0144 91.0885 35.9119C91.2079 35.8094 91.3286 35.7416 91.4506 35.7084C91.5746 35.6754 91.691 35.6764 91.8 35.7113C91.9089 35.7463 92.0042 35.8113 92.0858 35.9064C92.1666 36.0005 92.216 36.104 92.234 36.217C92.2521 36.3299 92.2349 36.4447 92.1826 36.5612C92.1322 36.6778 92.0474 36.7874 91.9279 36.8899C91.8085 36.9924 91.6868 37.0602 91.5629 37.0932C91.4408 37.1263 91.3253 37.1254 91.2164 37.0905C91.1075 37.0555 91.0127 36.991 90.9319 36.897ZM91.1887 36.6765C91.2341 36.7294 91.2952 36.7493 91.3723 36.7365C91.4513 36.7237 91.5462 36.6697 91.6572 36.5745C91.7681 36.4792 91.8354 36.394 91.8589 36.3187C91.8844 36.2437 91.8744 36.1797 91.8291 36.1269C91.7828 36.073 91.7202 36.0524 91.6412 36.0651C91.5642 36.078 91.4702 36.1321 91.3592 36.2273C91.2483 36.3226 91.18 36.4078 91.1546 36.4828C91.1311 36.5581 91.1424 36.6227 91.1887 36.6765Z" fill="white" fill-opacity="0.32"/>
<path d="M94.9165 39.7901L93.689 40.5847L93.4642 40.2375L94.4235 39.6166L94.2759 39.3886L94.5442 39.2149L94.9165 39.7901Z" fill="white" fill-opacity="0.32"/>
<path d="M95.8456 44.6089C95.7927 44.4953 95.7727 44.3817 95.7858 44.2681C95.7989 44.1544 95.8454 44.0482 95.9253 43.9495C96.0071 43.8514 96.1193 43.7691 96.262 43.7026C96.4046 43.6361 96.5391 43.6033 96.6656 43.6043C96.7939 43.6059 96.9057 43.6382 97.0012 43.7013C97.0967 43.7643 97.1709 43.8526 97.2239 43.9662C97.2763 44.0785 97.2959 44.1915 97.2828 44.3052C97.2698 44.4189 97.2223 44.5247 97.1405 44.6228C97.0606 44.7215 96.9493 44.8042 96.8067 44.8707C96.6641 44.9372 96.5286 44.9696 96.4003 44.968C96.2739 44.967 96.1629 44.935 96.0674 44.872C95.9719 44.809 95.898 44.7213 95.8456 44.6089ZM96.1523 44.4659C96.1818 44.529 96.2353 44.5648 96.313 44.5731C96.3925 44.5821 96.4985 44.5557 96.631 44.4939C96.7635 44.4321 96.8512 44.3682 96.8942 44.3021C96.9389 44.2366 96.9466 44.1723 96.9172 44.1092C96.8872 44.0449 96.8324 44.0082 96.7529 43.9992C96.6753 43.9908 96.5702 44.0175 96.4376 44.0793C96.3051 44.1411 96.2165 44.2047 96.1717 44.2702C96.1288 44.3363 96.1223 44.4015 96.1523 44.4659Z" fill="white" fill-opacity="0.32"/>
<path d="M98.9061 48.4869L97.5097 48.9206L97.387 48.5257L98.4782 48.1867L98.3976 47.9273L98.7029 47.8325L98.9061 48.4869Z" fill="white" fill-opacity="0.32"/>
<path d="M98.5068 53.4211C98.4867 53.2974 98.4984 53.1826 98.542 53.0768C98.5855 52.971 98.6591 52.8815 98.7629 52.8082C98.8683 52.7361 98.9987 52.6875 99.154 52.6623C99.3094 52.6371 99.4478 52.6422 99.5692 52.6775C99.6922 52.714 99.7911 52.7756 99.8658 52.8622C99.9405 52.9488 99.9879 53.054 100.008 53.1777C100.028 53.3001 100.016 53.4142 99.9724 53.52C99.9289 53.6258 99.8544 53.7147 99.749 53.7869C99.6452 53.8601 99.5156 53.9093 99.3603 53.9345C99.205 53.9597 99.0658 53.9541 98.9428 53.9176C98.8214 53.8822 98.7233 53.8212 98.6486 53.7346C98.5739 53.648 98.5266 53.5435 98.5068 53.4211ZM98.8408 53.367C98.852 53.4357 98.8938 53.4846 98.9662 53.5138C99.0403 53.5441 99.1494 53.5476 99.2938 53.5242C99.4381 53.5008 99.5399 53.4631 99.5992 53.4112C99.6601 53.3604 99.685 53.3006 99.6739 53.2319C99.6625 53.1618 99.6198 53.1116 99.5458 53.0813C99.4733 53.0521 99.3649 53.0492 99.2206 53.0726C99.0762 53.096 98.9736 53.1331 98.9127 53.1839C98.8534 53.2358 98.8295 53.2968 98.8408 53.367Z" fill="white" fill-opacity="0.32"/>
<path d="M98.8959 58.236C98.8941 58.1107 98.9224 57.9989 98.9809 57.9006C99.0394 57.8023 99.1254 57.7244 99.2387 57.6671C99.3535 57.6112 99.4896 57.5821 99.647 57.5798C99.8043 57.5776 99.9405 57.6028 100.055 57.6555C100.172 57.7096 100.261 57.7849 100.322 57.8815C100.383 57.9781 100.415 58.0891 100.416 58.2144C100.418 58.3384 100.39 58.4495 100.331 58.5478C100.273 58.6461 100.186 58.7233 100.071 58.7792C99.958 58.8366 99.8226 58.8663 99.6653 58.8686C99.5079 58.8708 99.3711 58.8449 99.2547 58.7908C99.1398 58.7382 99.0516 58.6635 98.9904 58.5669C98.9291 58.4703 98.8976 58.36 98.8959 58.236ZM99.2342 58.2312C99.2352 58.3009 99.2694 58.3554 99.3368 58.3948C99.4057 58.4356 99.5132 58.455 99.6594 58.4529C99.8056 58.4508 99.9118 58.4284 99.9781 58.3857C100.046 58.3444 100.079 58.2889 100.078 58.2192C100.077 58.1482 100.042 58.0923 99.9733 58.0515C99.9059 58.0121 99.7991 57.9934 99.6529 57.9955C99.5067 57.9976 99.3997 58.0193 99.3321 58.0606C99.2658 58.1034 99.2332 58.1602 99.2342 58.2312Z" fill="white" fill-opacity="0.32"/>
<path d="M98.5679 63.1739C98.5847 63.0497 98.6294 62.9433 98.7018 62.8547C98.7742 62.7662 98.8707 62.7019 98.9914 62.6621C99.1132 62.6238 99.2521 62.6152 99.408 62.6363C99.564 62.6574 99.6949 62.7026 99.8008 62.7717C99.9078 62.8424 99.9845 62.9301 100.031 63.0347C100.077 63.1394 100.092 63.2538 100.075 63.378C100.058 63.5008 100.014 63.6065 99.9413 63.6951C99.8689 63.7836 99.7717 63.8471 99.6499 63.8854C99.5293 63.9252 99.391 63.9346 99.235 63.9135C99.0791 63.8924 98.9476 63.8465 98.8405 63.7757C98.7347 63.7066 98.6586 63.6197 98.6123 63.5151C98.5661 63.4104 98.5513 63.2967 98.5679 63.1739ZM98.9033 63.2193C98.8939 63.2883 98.9196 63.3473 98.9805 63.3963C99.0425 63.4468 99.1459 63.4819 99.2908 63.5016C99.4357 63.5212 99.5441 63.5148 99.616 63.4824C99.689 63.4515 99.7302 63.4016 99.7395 63.3326C99.7491 63.2622 99.7228 63.2017 99.6608 63.1512C99.6 63.1022 99.4971 63.0679 99.3522 63.0482C99.2073 63.0286 99.0984 63.0342 99.0253 63.0651C98.9535 63.0975 98.9128 63.1489 98.9033 63.2193Z" fill="white" fill-opacity="0.32"/>
<defs>
<filter id="filter0_d_1673_9718" x="0.685136" y="0.510105" width="151.42" height="151.419" filterUnits="userSpaceOnUse" color-interpolation-filters="sRGB">
<feFlood flood-opacity="0" result="BackgroundImageFix"/>
<feColorMatrix in="SourceAlpha" type="matrix" values="0 0 0 0 0 0 0 0 0 0 0 0 0 0 0 0 0 0 127 0" result="hardAlpha"/>
<feOffset dx="10.8585" dy="17.6839"/>
<feGaussianBlur stdDeviation="17.2185"/>
<feComposite in2="hardAlpha" operator="out"/>
<feColorMatrix type="matrix" values="0 0 0 0 0 0 0 0 0 0.0708333 0 0 0 0 0.141667 0 0 0 0.16 0"/>
<feBlend mode="normal" in2="BackgroundImageFix" result="effect1_dropShadow_1673_9718"/>
<feBlend mode="normal" in="SourceGraphic" in2="effect1_dropShadow_1673_9718" result="shape"/>
</filter>
<filter id="filter1_d_1673_9718" x="37.4536" y="30.4519" width="55.8461" height="56.7882" filterUnits="userSpaceOnUse" color-interpolation-filters="sRGB">
<feFlood flood-opacity="0" result="BackgroundImageFix"/>
<feColorMatrix in="SourceAlpha" type="matrix" values="0 0 0 0 0 0 0 0 0 0 0 0 0 0 0 0 0 0 127 0" result="hardAlpha"/>
<feOffset dx="0.620488" dy="0.620488"/>
<feComposite in2="hardAlpha" operator="out"/>
<feColorMatrix type="matrix" values="0 0 0 0 0.115104 0 0 0 0 0.649472 0 0 0 0 0.8125 0 0 0 0.36 0"/>
<feBlend mode="normal" in2="BackgroundImageFix" result="effect1_dropShadow_1673_9718"/>
<feBlend mode="normal" in="SourceGraphic" in2="effect1_dropShadow_1673_9718" result="shape"/>
</filter>
<filter id="filter2_d_1673_9718" x="40.8662" y="28.9975" width="49.9613" height="54.83" filterUnits="userSpaceOnUse" color-interpolation-filters="sRGB">
<feFlood flood-opacity="0" result="BackgroundImageFix"/>
<feColorMatrix in="SourceAlpha" type="matrix" values="0 0 0 0 0 0 0 0 0 0 0 0 0 0 0 0 0 0 127 0" result="hardAlpha"/>
<feOffset dx="0.620488" dy="0.620488"/>
<feComposite in2="hardAlpha" operator="out"/>
<feColorMatrix type="matrix" values="0 0 0 0 0.115104 0 0 0 0 0.649472 0 0 0 0 0.8125 0 0 0 0.36 0"/>
<feBlend mode="normal" in2="BackgroundImageFix" result="effect1_dropShadow_1673_9718"/>
<feBlend mode="normal" in="SourceGraphic" in2="effect1_dropShadow_1673_9718" result="shape"/>
</filter>
<filter id="filter3_d_1673_9718" x="44.2773" y="37.2812" width="43.1342" height="43.1318" filterUnits="userSpaceOnUse" color-interpolation-filters="sRGB">
<feFlood flood-opacity="0" result="BackgroundImageFix"/>
<feColorMatrix in="SourceAlpha" type="matrix" values="0 0 0 0 0 0 0 0 0 0 0 0 0 0 0 0 0 0 127 0" result="hardAlpha"/>
<feOffset dx="0.620488" dy="0.620488"/>
<feComposite in2="hardAlpha" operator="out"/>
<feColorMatrix type="matrix" values="0 0 0 0 0.115104 0 0 0 0 0.649472 0 0 0 0 0.8125 0 0 0 0.36 0"/>
<feBlend mode="normal" in2="BackgroundImageFix" result="effect1_dropShadow_1673_9718"/>
<feBlend mode="normal" in="SourceGraphic" in2="effect1_dropShadow_1673_9718" result="shape"/>
</filter>
<filter id="filter4_d_1673_9718" x="47.6948" y="40.6931" width="36.3075" height="36.3074" filterUnits="userSpaceOnUse" color-interpolation-filters="sRGB">
<feFlood flood-opacity="0" result="BackgroundImageFix"/>
<feColorMatrix in="SourceAlpha" type="matrix" values="0 0 0 0 0 0 0 0 0 0 0 0 0 0 0 0 0 0 127 0" result="hardAlpha"/>
<feOffset dx="0.620488" dy="0.620488"/>
<feComposite in2="hardAlpha" operator="out"/>
<feColorMatrix type="matrix" values="0 0 0 0 0.115104 0 0 0 0 0.649472 0 0 0 0 0.8125 0 0 0 0.36 0"/>
<feBlend mode="normal" in2="BackgroundImageFix" result="effect1_dropShadow_1673_9718"/>
<feBlend mode="normal" in="SourceGraphic" in2="effect1_dropShadow_1673_9718" result="shape"/>
</filter>
<linearGradient id="paint0_linear_1673_9718" x1="24.2739" y1="17.2735" x2="106.799" y2="99.7984" gradientUnits="userSpaceOnUse">
<stop stop-color="#47BDE1"/>
<stop offset="1" stop-color="#3DB1D5"/>
</linearGradient>
<linearGradient id="paint1_linear_1673_9718" x1="24.2739" y1="17.2735" x2="106.799" y2="99.7984" gradientUnits="userSpaceOnUse">
<stop stop-color="white"/>
<stop offset="1" stop-color="#87DDF8"/>
</linearGradient>
<linearGradient id="paint2_linear_1673_9718" x1="28.1519" y1="21.1519" x2="102.921" y2="95.9207" gradientUnits="userSpaceOnUse">
<stop stop-color="#039DCE" stop-opacity="0.69"/>
<stop offset="1" stop-color="#0294C2" stop-opacity="0.12"/>
</linearGradient>
<linearGradient id="paint3_linear_1673_9718" x1="46.1228" y1="24.9083" x2="84.9522" y2="92.1629" gradientUnits="userSpaceOnUse">
<stop stop-color="white" stop-opacity="0.35"/>
<stop offset="1" stop-color="#1099C5" stop-opacity="0"/>
</linearGradient>
<linearGradient id="paint4_linear_1673_9718" x1="49.6216" y1="22.6363" x2="82.9756" y2="88.7448" gradientUnits="userSpaceOnUse">
<stop stop-color="white" stop-opacity="0.35"/>
<stop offset="1" stop-color="#1099C5" stop-opacity="0"/>
</linearGradient>
<linearGradient id="paint5_linear_1673_9718" x1="50.9458" y1="33.2676" x2="80.1227" y2="83.8035" gradientUnits="userSpaceOnUse">
<stop stop-color="white" stop-opacity="0.35"/>
<stop offset="1" stop-color="#1099C5" stop-opacity="0"/>
</linearGradient>
<linearGradient id="paint6_linear_1673_9718" x1="52.9243" y1="36.6883" x2="78.1525" y2="80.3848" gradientUnits="userSpaceOnUse">
<stop stop-color="white" stop-opacity="0.35"/>
<stop offset="1" stop-color="#1099C5" stop-opacity="0"/>
</linearGradient>
<linearGradient id="paint7_linear_1673_9718" x1="57.2193" y1="45.0823" x2="68.5" y2="73.6071" gradientUnits="userSpaceOnUse">
<stop stop-color="#F5FDFF"/>
<stop offset="1" stop-color="#97E7FF"/>
</linearGradient>
</defs>
</svg>
