<svg width="60" height="73" viewBox="0 0 60 73" fill="none" xmlns="http://www.w3.org/2000/svg">
<path d="M5.83503 33.4466C2.61243 21.4197 9.74973 9.05749 21.7766 5.83489C33.8035 2.61229 46.1657 9.74959 49.3883 21.7765L54.0563 39.1978C57.2789 51.2247 50.1416 63.5869 38.1147 66.8095C26.0878 70.032 13.7257 62.8947 10.5031 50.8679L5.83503 33.4466Z" fill="#3887DE"/>
<g clip-path="url(#clip0_1673_9439)">
<path d="M40.3978 33.5211C38.8509 27.7482 32.9171 24.3223 27.1442 25.8691C21.3713 27.416 17.9454 33.3498 19.4922 39.1227C20.8902 44.3399 25.8713 47.6401 31.0785 47.0853L29.1214 39.781L26.4673 40.4922L25.6577 37.4707L28.3118 36.7595L27.6947 34.4566C26.9927 31.8369 28.1656 29.9717 30.5532 29.3319C31.6965 29.0256 32.9477 28.9091 32.9477 28.9091L33.637 31.4815L32.3189 31.8347C31.0205 32.1826 30.8314 33.0969 31.0531 33.9244L31.5783 35.8843L34.4773 35.1075L34.8234 38.2532L32.3879 38.9058L34.345 46.2101C39.132 44.0869 41.7957 38.7383 40.3978 33.5211Z" fill="white"/>
</g>
<defs>
<clipPath id="clip0_1673_9439">
<rect width="21.643" height="21.643" fill="white" transform="translate(16.6914 28.6699) rotate(-15)"/>
</clipPath>
</defs>
</svg>
