<svg width="68" height="82" viewBox="0 0 68 82" fill="none" xmlns="http://www.w3.org/2000/svg">
<path d="M12.4397 24.8708C16.0132 11.5342 29.7216 3.61959 43.0583 7.19313C56.395 10.7667 64.3095 24.4751 60.736 37.8118L55.5596 57.1303C51.986 70.4669 38.2776 78.3815 24.941 74.8079C11.6043 71.2344 3.68975 57.526 7.2633 44.1893L12.4397 24.8708Z" fill="#E33434"/>
<g clip-path="url(#clip0_1673_9442)">
<path fill-rule="evenodd" clip-rule="evenodd" d="M40.0863 36.9878C39.1954 35.5257 37.7648 34.4759 36.1054 34.0586C33.0815 33.2484 29.9666 34.6003 28.3149 37.102C27.4436 38.4115 27.0259 39.9704 27.1257 41.5401L27.1299 41.5412C27.315 44.5306 29.3323 47.2577 32.3562 48.0679C33.9172 48.4862 35.3643 48.446 36.5919 48.0191L36.5926 48.0162C38.0318 47.5345 39.2078 46.4847 39.8534 45.1148L33.5925 43.4372L34.7885 38.9737L45.7216 41.9032C45.6502 42.7149 45.5018 43.5242 45.2907 44.3121C44.346 47.8376 42.2874 50.4806 39.5542 51.912L39.5561 51.9144C37.1605 53.1715 34.2491 53.4915 31.1229 52.6538C26.7403 51.4795 23.3944 47.9354 22.4755 43.494C21.7091 39.7783 22.743 35.9195 25.2646 33.0848C28.2822 29.6937 32.9519 28.2973 37.3345 29.4716C40.2228 30.209 42.7141 32.036 44.2824 34.5652L40.0863 36.9878Z" fill="white"/>
</g>
<defs>
<clipPath id="clip0_1673_9442">
<rect width="24" height="24" fill="white" transform="translate(25.5117 26.3037) rotate(15)"/>
</clipPath>
</defs>
</svg>
