<svg width="24" height="24" viewBox="0 0 24 24" fill="none" xmlns="http://www.w3.org/2000/svg">
<path d="M16 9V5C16 2.79086 14.2091 1 12 1V1C9.79086 1 8 2.79086 8 5V5" stroke="white" stroke-width="2"/>
<path fill-rule="evenodd" clip-rule="evenodd" d="M8 8C5.79086 8 4 9.79086 4 12V18C4 20.2091 5.79086 22 8 22H16C18.2091 22 20 20.2091 20 18V12C20 9.79086 18.2091 8 16 8H8ZM12 18C12.5523 18 13 17.5523 13 17V13C13 12.4477 12.5523 12 12 12C11.4477 12 11 12.4477 11 13L11 17C11 17.5523 11.4477 18 12 18Z" fill="white"/>
</svg>
