<svg width="153" height="39" viewBox="0 0 153 39" fill="none" xmlns="http://www.w3.org/2000/svg">
<path d="M59.0381 37.6633C57.989 37.5151 56.9662 37.2194 56 36.7848L57.0688 32.5389C57.8612 32.9667 58.705 33.2915 59.5798 33.5052C60.5604 33.7555 61.5692 33.8785 62.5812 33.8712C63.694 33.8712 64.2577 33.5564 64.2577 32.9269C64.2472 32.7265 64.1824 32.5327 64.0702 32.3663C63.958 32.2 63.8026 32.0673 63.6208 31.9825C62.9764 31.6115 62.3032 31.2933 61.6076 31.0308C60.6876 30.6569 59.7926 30.224 58.9282 29.7351C58.1902 29.309 57.5454 28.7389 57.0322 28.0586C56.4915 27.3161 56.2133 26.4146 56.2416 25.4964C56.2128 24.4998 56.5368 23.5249 57.1567 22.7439C57.7953 21.9668 58.6403 21.3857 59.5944 21.0675C60.6864 20.6893 61.8357 20.5035 62.9912 20.5184C64.1127 20.5269 65.2307 20.6446 66.3294 20.8698C67.2909 21.0329 68.2264 21.3234 69.1112 21.7336L67.896 25.8625C67.1601 25.4991 66.3869 25.2168 65.59 25.0206C64.7841 24.7931 63.9528 24.6677 63.1156 24.6472C62.6822 24.6188 62.2486 24.702 61.8565 24.8888C61.7271 24.9486 61.618 25.0449 61.5426 25.1659C61.4672 25.2868 61.4287 25.4271 61.4319 25.5696C61.4515 25.7732 61.523 25.9683 61.6397 26.1362C61.7563 26.3041 61.9142 26.4393 62.0981 26.5286C62.7393 26.9089 63.4101 27.2369 64.1039 27.5096C65.0246 27.865 65.922 28.2782 66.7906 28.7468C67.5229 29.1663 68.1589 29.7349 68.6573 30.4159C69.2014 31.1735 69.4794 32.0898 69.448 33.022C69.4746 33.7305 69.327 34.4347 69.0181 35.0729C68.7093 35.711 68.2485 36.2637 67.6764 36.6823C66.1943 37.6541 64.4381 38.1214 62.6691 38.0147C61.451 38.0005 60.2363 37.8829 59.0381 37.6633Z" fill="#3E5BA9"/>
<path d="M73.3563 35.754C71.8922 34.2899 71.1602 32.0937 71.1602 29.3558C71.1602 26.6179 71.8922 24.3412 73.3563 22.8185C74.8205 21.2958 76.8849 20.5198 79.5715 20.5198C80.4762 20.5136 81.3783 20.6169 82.2582 20.8273C82.9917 20.984 83.6926 21.2663 84.3299 21.6618L82.756 25.6223C81.8435 25.1716 80.845 24.922 79.8278 24.8902C77.5437 24.8902 76.4017 26.3543 76.4017 29.3558C76.3226 30.4929 76.6128 31.6252 77.2289 32.5842C77.552 32.9553 77.959 33.244 78.4161 33.4261C78.8733 33.6082 79.3673 33.6784 79.857 33.631C80.8787 33.6337 81.8851 33.3822 82.7853 32.899L84.3592 36.9033C83.6452 37.2689 82.8875 37.542 82.1045 37.7159C81.2825 37.8996 80.443 37.9929 79.6008 37.9941C76.8971 37.999 74.8156 37.2523 73.3563 35.754Z" fill="#3E5BA9"/>
<path d="M88.2118 35.7537C86.7477 34.2896 86.0156 32.0934 86.0156 29.3555C86.0156 26.6176 86.7477 24.3409 88.2118 22.8182C89.6759 21.2955 91.7403 20.5195 94.427 20.5195C97.1137 20.5195 99.1854 21.2516 100.642 22.8182C102.099 24.3848 102.838 26.5224 102.838 29.3555C102.838 32.1886 102.106 34.2603 100.642 35.7537C99.1781 37.2471 97.1137 38.0012 94.427 38.0012C91.7403 38.0012 89.6759 37.2545 88.2118 35.7537ZM96.8062 32.5473C97.4066 31.5958 97.6886 30.4779 97.6115 29.3555C97.6886 28.1868 97.4077 27.0223 96.8062 26.0173C96.5178 25.665 96.1548 25.3812 95.7433 25.1862C95.3319 24.9913 94.8823 24.8902 94.427 24.8902C93.9717 24.8902 93.5221 24.9913 93.1107 25.1862C92.6992 25.3812 92.3362 25.665 92.0478 26.0173C91.4489 27.0231 91.1705 28.1876 91.2499 29.3555C91.1705 30.4771 91.45 31.5949 92.0478 32.5473C92.344 32.8873 92.7096 33.1599 93.12 33.3467C93.5304 33.5335 93.9761 33.6301 94.427 33.6301C94.8779 33.6301 95.3236 33.5335 95.734 33.3467C96.1444 33.1599 96.51 32.8873 96.8062 32.5473Z" fill="#3E5BA9"/>
<path d="M107.243 35.7537C105.779 34.2896 105.047 32.0934 105.047 29.3555C105.047 26.6176 105.779 24.3409 107.243 22.8182C108.707 21.2955 110.772 20.5195 113.458 20.5195C116.145 20.5195 118.217 21.2516 119.673 22.8182C121.13 24.3848 121.87 26.5224 121.87 29.3555C121.87 32.1886 121.138 34.2603 119.673 35.7537C118.209 37.2471 116.145 38.0012 113.458 38.0012C110.772 38.0012 108.656 37.2545 107.243 35.7537ZM115.837 32.5473C116.435 31.5949 116.715 30.4771 116.635 29.3555C116.715 28.1876 116.436 27.0231 115.837 26.0173C115.549 25.665 115.186 25.3812 114.775 25.1862C114.363 24.9913 113.914 24.8902 113.458 24.8902C113.003 24.8902 112.553 24.9913 112.142 25.1862C111.73 25.3812 111.367 25.665 111.079 26.0173C110.478 27.0223 110.197 28.1868 110.274 29.3555C110.197 30.4779 110.479 31.5958 111.079 32.5473C111.375 32.8873 111.741 33.1599 112.151 33.3467C112.562 33.5335 113.007 33.6301 113.458 33.6301C113.909 33.6301 114.355 33.5335 114.765 33.3467C115.176 33.1599 115.541 32.8873 115.837 32.5473Z" fill="#3E5BA9"/>
<path d="M124.734 20.8848H130.803C133.102 20.8848 134.871 21.4021 136.111 22.4367C136.742 22.9849 137.24 23.6703 137.566 24.4405C137.893 25.2106 138.038 26.0452 137.992 26.8803C138.04 27.7158 137.898 28.5513 137.576 29.3237C137.254 30.096 136.76 30.7851 136.133 31.3386C134.895 32.3781 133.124 32.9052 130.825 32.9052H129.859V37.6343H124.734V20.8848ZM130.671 28.791C131.226 28.8246 131.773 28.6467 132.201 28.2932C132.383 28.1104 132.525 27.8916 132.617 27.6507C132.709 27.4099 132.749 27.1525 132.736 26.895C132.751 26.6396 132.711 26.3838 132.619 26.1451C132.527 25.9064 132.384 25.6903 132.201 25.5114C131.771 25.1631 131.224 24.9906 130.671 25.0282H129.822V28.791H130.671Z" fill="#3E5BA9"/>
<path d="M142.339 37.6628C141.29 37.5147 140.267 37.2189 139.301 36.7843L140.37 32.5384C141.162 32.9663 142.006 33.291 142.881 33.5047C143.861 33.755 144.87 33.878 145.882 33.8707C146.995 33.8707 147.558 33.5559 147.558 32.9264C147.548 32.726 147.483 32.5322 147.371 32.3658C147.259 32.1995 147.103 32.0668 146.922 31.982C146.277 31.611 145.604 31.2928 144.908 31.0303C143.988 30.6564 143.093 30.2236 142.229 29.7346C141.491 29.3086 140.846 28.7385 140.333 28.0582C139.797 27.3216 139.519 26.4286 139.542 25.5179C139.514 24.5212 139.838 23.5464 140.457 22.7654C141.096 21.9883 141.941 21.4072 142.895 21.0889C143.987 20.7108 145.136 20.525 146.292 20.5399C147.413 20.5483 148.531 20.666 149.63 20.8913C150.592 21.0544 151.527 21.3449 152.412 21.7551L151.167 25.862C150.432 25.4986 149.658 25.2163 148.862 25.0201C148.056 24.7926 147.224 24.6672 146.387 24.6468C145.963 24.6233 145.541 24.7063 145.157 24.8883C145.028 24.9482 144.919 25.0445 144.843 25.1654C144.768 25.2863 144.729 25.4267 144.733 25.5692C144.752 25.7727 144.824 25.9678 144.94 26.1357C145.057 26.3036 145.215 26.4388 145.399 26.5282C146.04 26.9084 146.711 27.2364 147.405 27.5091C148.325 27.8645 149.223 28.2777 150.091 28.7463C150.824 29.1658 151.46 29.7344 151.958 30.4154C152.502 31.173 152.78 32.0894 152.749 33.0215C152.775 33.73 152.628 34.4342 152.319 35.0724C152.01 35.7105 151.549 36.2632 150.977 36.6818C149.495 37.6536 147.739 38.1209 145.97 38.0142C144.752 38 143.537 37.8825 142.339 37.6628Z" fill="#3E5BA9"/>
<path d="M59.0449 17.1018C58.0126 16.9618 57.0048 16.6784 56.0508 16.2599L57.1123 12.014C57.9072 12.4418 58.7535 12.7666 59.6306 12.9803C60.6094 13.2271 61.6153 13.35 62.6247 13.3463C63.7447 13.3463 64.3011 13.0315 64.3011 12.4019C64.2896 12.2019 64.2252 12.0084 64.1147 11.8412C64.0041 11.6741 63.8512 11.5392 63.6715 11.4503C63.0124 11.0877 62.3272 10.7745 61.6218 10.5132C60.7001 10.1377 59.8028 9.70491 58.9351 9.21748C58.1952 8.78442 57.5524 8.20383 57.0464 7.51178C56.5093 6.77846 56.2312 5.88746 56.2558 4.97884C56.2256 3.98095 56.5469 3.00416 57.1635 2.21897C57.8042 1.44575 58.6487 0.86753 59.6013 0.549874C60.6958 0.171712 61.8475 -0.0140477 63.0054 0.000827568C64.1268 0.0100193 65.2448 0.127697 66.3436 0.352217C67.3035 0.512062 68.237 0.802711 69.1181 1.21605L67.9102 5.33756C67.1752 4.97219 66.4017 4.68982 65.6042 4.49568C64.7957 4.26857 63.962 4.14315 63.1225 4.12233C62.7035 4.09914 62.2855 4.18224 61.9073 4.36391C61.7779 4.42374 61.6688 4.52003 61.5934 4.64097C61.518 4.76191 61.4795 4.90224 61.4827 5.04473C61.5016 5.24847 61.5728 5.44386 61.6896 5.6119C61.8063 5.77994 61.9645 5.91493 62.1489 6.00373C62.7916 6.3811 63.4622 6.70903 64.1547 6.98469C65.0737 7.33852 65.9687 7.75179 66.834 8.22188C67.5659 8.63888 68.2019 9.20504 68.7008 9.88366C69.2449 10.644 69.5228 11.5627 69.4914 12.4971C69.52 13.2059 69.3733 13.9107 69.0642 14.5492C68.7552 15.1877 68.2934 15.7401 67.7198 16.1574C66.2433 17.1361 64.4879 17.6064 62.7199 17.4971C61.4858 17.4706 60.2563 17.3384 59.0449 17.1018Z" fill="#3E5BA9"/>
<path d="M71.9141 0.359375H77.0385V6.6185H81.6505V0.359375H86.7749V17.1016H81.6505V10.7473H77.0385V17.1016H71.9141V0.359375Z" fill="#3E5BA9"/>
<path d="M100.465 14.5614H94.9824L94.2503 17.1089H88.9062L94.6383 0.359375H101.293L107.025 17.1016H101.168L100.465 14.5614ZM99.4479 10.9011L97.8447 5.1983H97.6031L95.9999 10.9011H99.4479Z" fill="#3E5BA9"/>
<path d="M117.947 17.1016L115.349 12.3725H114.324V17.1016H109.199V0.359375H115.275C117.574 0.359375 119.343 0.876698 120.583 1.91134C121.21 2.46197 121.702 3.14857 122.023 3.9187C122.344 4.68883 122.485 5.52212 122.435 6.35496C122.461 7.43296 122.209 8.49955 121.703 9.45158C121.207 10.3244 120.463 11.0302 119.565 11.4794L123.533 17.1016H117.947ZM114.287 8.24368H115.144C115.696 8.27986 116.242 8.10156 116.666 7.74587C116.85 7.5642 116.992 7.3455 117.084 7.10439C117.176 6.86328 117.216 6.6053 117.201 6.34764C117.217 6.09205 117.178 5.83588 117.086 5.59695C116.994 5.35802 116.85 5.14205 116.666 4.96404C116.237 4.61755 115.694 4.44508 115.144 4.48088H114.302L114.287 8.24368Z" fill="#3E5BA9"/>
<path d="M136.76 12.9801V17.1016H125.348V0.359375H136.643V4.4882H130.45V6.64778H135.67V10.7766H130.45V12.9728L136.76 12.9801Z" fill="#3E5BA9"/>
<path d="M43.8129 15.3516H2.96389L0.0429688 26.9694L11.6242 21.1275L23.3884 32.8039L35.1453 21.1275L46.7265 26.9694L43.8129 15.3516Z" fill="#3E5BA9"/>
<path d="M42.355 9.51758H4.41956L3.6875 12.4385H43.087L42.355 9.51758Z" fill="#53C0E2"/>
</svg>
