<svg width="1682" height="741" viewBox="0 0 1682 741" fill="none" xmlns="http://www.w3.org/2000/svg">
<path d="M257.66 435.586C153.37 454.799 71.9014 329.555 64.5949 268.549C57.2884 207.543 192.605 -34.1395 297.106 100.987C401.606 236.114 453.903 185.899 457.124 283.426C460.345 380.953 388.022 411.57 257.66 435.586Z" stroke="#0E4780" stroke-opacity="0.2"/>
<path d="M254.829 355.914C196.727 366.66 151.414 297.017 147.377 263.077C143.34 229.137 218.843 94.5914 276.979 169.721C335.116 244.85 364.274 216.883 366.016 271.145C367.758 325.408 327.456 342.482 254.829 355.914Z" stroke="#0E4780" stroke-opacity="0.2"/>
<path d="M1583.56 410.104C1609.03 544.692 1449.55 648.619 1371.59 657.51C1293.63 666.402 983.357 489.905 1155.28 356.377C1327.2 222.849 1262.53 155.009 1387.23 151.698C1511.94 148.388 1551.72 241.87 1583.56 410.104Z" stroke="#0E4780" stroke-opacity="0.2"/>
<path d="M1457.49 413.727C1469.04 474.515 1397.17 521.365 1362.01 525.342C1326.86 529.318 1186.84 449.464 1264.31 389.253C1341.78 329.042 1312.58 298.375 1368.82 296.942C1425.06 295.509 1443.04 337.743 1457.49 413.727Z" stroke="#0E4780" stroke-opacity="0.2"/>
</svg>
