<svg width="32" height="32" viewBox="0 0 32 32" fill="none" xmlns="http://www.w3.org/2000/svg">
<g clip-path="url(#clip0_1673_9513)">
<path fill-rule="evenodd" clip-rule="evenodd" d="M2.18422 14.4162C0.841355 20.2491 -0.161283 25.9762 0.0165632 31.6724C1.89039 31.4018 4.44209 29.6362 6.87007 26.7366C12.7055 30.028 18.3037 29.2986 23.7242 25.5277C30.6602 24.5019 33.0211 21.4991 30.6782 16.4576C28.5992 13.4711 21.2589 -1.58771 16.4608 0.160234L14.0664 0.943786C12.5276 1.54692 12.0843 2.37428 12.7158 3.42332L13.4452 4.59864C13.8344 5.57808 14.4427 6.02914 15.4221 5.57808C15.7973 5.45748 16.3829 5.26501 16.417 5.25332C16.2496 5.31658 17.5582 4.72604 19.7497 8.01895C21.6441 10.8671 22.6545 14.2616 22.6726 18.2721C19.1595 15.3106 15.1386 15.4137 10.8007 17.4396C8.64079 14.9343 5.72825 14.0142 2.18422 14.4162Z" fill="#0A2138"/>
</g>
<defs>
<clipPath id="clip0_1673_9513">
<rect width="31.5586" height="31.672" fill="white"/>
</clipPath>
</defs>
</svg>
