<svg width="959" height="440" viewBox="0 0 959 440" fill="none" xmlns="http://www.w3.org/2000/svg">
<path d="M153.111 263.981C105.709 272.714 68.6803 215.788 65.3593 188.06C62.0384 160.332 123.542 50.4825 171.04 111.9C218.537 173.318 242.307 150.494 243.771 194.822C245.235 239.15 212.363 253.065 153.111 263.981Z" stroke="#0E4780"/>
<path d="M151.827 227.769C125.419 232.653 104.824 200.999 102.989 185.573C101.154 170.146 135.471 108.993 161.895 143.141C188.319 177.288 201.572 164.577 202.364 189.24C203.156 213.903 184.838 221.664 151.827 227.769Z" stroke="#0E4780"/>
<path d="M908.252 234.232C921.284 303.087 839.692 356.257 799.807 360.806C759.922 365.355 601.186 275.058 689.142 206.745C777.098 138.431 744.01 103.724 807.81 102.03C871.611 100.337 891.962 148.163 908.252 234.232Z" stroke="#0E4780"/>
<path d="M843.752 236.085C849.663 267.184 812.893 291.153 794.907 293.187C776.921 295.221 705.288 254.368 744.921 223.563C784.555 192.759 769.615 177.07 798.388 176.337C827.16 175.604 836.362 197.211 843.752 236.085Z" stroke="#0E4780"/>
<path d="M921 107.237C921 98.8219 927.822 92 936.237 92C944.652 92 951.474 98.8219 951.474 107.237C951.474 115.652 944.652 122.474 936.237 122.474C927.822 122.474 921 115.652 921 107.237Z" fill="#0A2138"/>
<circle cx="936.236" cy="107.236" r="3.80927" stroke="#D9AD8D" stroke-width="1.52371"/>
<rect x="930.141" y="106.475" width="3.04742" height="1.52371" rx="0.761854" fill="white"/>
<rect x="939.283" y="106.475" width="3.04742" height="1.52371" rx="0.761854" fill="white"/>
<rect x="935.474" y="101.142" width="1.52371" height="3.04742" rx="0.761854" fill="white"/>
<rect x="935.474" y="110.284" width="1.52371" height="3.04742" rx="0.761854" fill="white"/>
<path d="M231 339.737C231 329.389 239.389 321 249.737 321C260.085 321 268.474 329.389 268.474 339.737C268.474 350.085 260.085 358.474 249.737 358.474C239.389 358.474 231 350.085 231 339.737Z" fill="#CEAB2E"/>
<circle cx="249.737" cy="339.737" r="4.68427" stroke="white" stroke-opacity="0.47" stroke-width="1.87371"/>
<rect x="242.242" y="338.8" width="3.74742" height="1.87371" rx="0.936854" fill="white"/>
<rect x="253.484" y="338.8" width="3.74742" height="1.87371" rx="0.936854" fill="white"/>
<rect x="248.8" y="332.242" width="1.87371" height="3.74742" rx="0.936854" fill="white"/>
<rect x="248.8" y="343.484" width="1.87371" height="3.74742" rx="0.936854" fill="white"/>
<path d="M78.5 258C78.5 258 60.5 235.5 60.5 202C60.5 168.5 78.5 149 78.5 149" stroke="white"/>
<path d="M899 165C899 165 921 192.454 921 233.33C921 274.206 899 298 899 298" stroke="white"/>
</svg>
