<svg width="30" height="30" viewBox="0 0 30 30" fill="none" xmlns="http://www.w3.org/2000/svg">
<path fill-rule="evenodd" clip-rule="evenodd" d="M9.04415 23.3269C9.63821 23.6403 10.2998 23.804 10.9715 23.8038C13.2086 23.8038 15.0349 22.0242 15.1174 19.8062L15.1256 0H20.0672C20.0677 0.420678 20.1068 0.840425 20.184 1.25395H16.5658V1.25463H20.184H21.5081C21.5074 2.91227 22.1082 4.51385 23.199 5.76199C23.1995 5.76252 23.1999 5.76305 23.2004 5.76358C24.3132 6.49048 25.6138 6.87701 26.943 6.87577V7.97635C27.4082 8.07598 27.8892 8.12904 28.3839 8.12904V13.072C25.9167 13.0749 23.5112 12.3013 21.5081 10.8609V20.9042C21.5081 25.9193 17.4274 30 12.4116 30C11.1625 30.0003 9.92684 29.7426 8.78199 29.2431C7.63797 28.7439 6.60929 28.014 5.76033 27.099C5.7597 27.0986 5.75909 27.0981 5.75847 27.0977C3.41272 25.4507 1.875 22.7271 1.875 19.6503C1.875 14.6345 5.95567 10.5531 10.9715 10.5531C11.3816 10.5551 11.7912 10.5849 12.1972 10.6424V11.8126C12.1973 11.8126 12.1972 11.8126 12.1972 11.8126L12.1972 15.6878C12.1972 15.6878 12.1972 15.6878 12.1972 15.6878L12.1972 11.8126C12.2258 11.812 12.2542 11.811 12.2827 11.81C12.3255 11.8085 12.3683 11.8071 12.4116 11.8071C12.8218 11.809 13.2313 11.8389 13.6374 11.8964V16.9417C13.2499 16.8201 12.8397 16.7493 12.4116 16.7493C11.3101 16.7506 10.2541 17.1888 9.47533 17.9677C8.69653 18.7467 8.25853 19.8027 8.25744 20.9042C8.25749 21.7742 8.53246 22.6219 9.04306 23.3263C9.04342 23.3265 9.04379 23.3267 9.04415 23.3269ZM14.3482 24.5778C15.6203 23.9029 16.5011 22.5848 16.5582 21.0595V21.0602C16.5011 22.585 15.6203 23.903 14.3482 24.5778ZM10.9718 15.4954C11.2262 15.4954 11.4744 15.5203 11.7155 15.5662C11.4707 15.52 11.2217 15.4962 10.9718 15.4954ZM8.03541 16.7135C8.03541 16.7135 8.03541 16.7135 8.03541 16.7135V16.7135ZM3.91518 24.1498C4.33734 25.2497 4.96737 26.2475 5.75647 27.0956C4.95131 26.234 4.32959 25.2319 3.91518 24.1498ZM10.9715 28.746C10.9715 28.746 10.9715 28.746 10.9715 28.746V28.746ZM20.0673 19.6496V9.60629C20.0672 9.60629 20.0673 9.6063 20.0673 9.60629V19.6496Z" fill="white"/>
</svg>
